<mxfile host="Electron" modified="2023-07-16T06:05:19.271Z" agent="Mozilla/5.0 (Windows NT 10.0; Win64; x64) AppleWebKit/537.36 (KHTML, like Gecko) draw.io/21.6.1 Chrome/112.0.5615.204 Electron/24.6.1 Safari/537.36" etag="g61D_NZy33R7ImhS5azs" version="21.6.1" type="device" pages="5">
  <diagram id="1MAdvxJRai_hiTrWs22X" name="ITI">
    <mxGraphModel dx="1289" dy="628" grid="1" gridSize="10" guides="1" tooltips="1" connect="1" arrows="1" fold="1" page="1" pageScale="1" pageWidth="850" pageHeight="1100" math="0" shadow="0">
      <root>
        <mxCell id="0" />
        <mxCell id="1" parent="0" />
        <mxCell id="18WWBmQ5kVy6B0JB5kDH-1" value="&lt;font style=&quot;font-size: 18px;&quot;&gt;Departments&lt;/font&gt;" style="rounded=0;whiteSpace=wrap;html=1;labelBackgroundColor=none;fillColor=#FAE5C7;strokeColor=#0F8B8D;fontColor=#143642;" parent="1" vertex="1">
          <mxGeometry x="550" y="268" width="120" height="50" as="geometry" />
        </mxCell>
        <mxCell id="18WWBmQ5kVy6B0JB5kDH-2" value="&lt;font style=&quot;font-size: 18px;&quot;&gt;Students&lt;/font&gt;" style="rounded=0;whiteSpace=wrap;html=1;labelBackgroundColor=none;fillColor=#FAE5C7;strokeColor=#0F8B8D;fontColor=#143642;" parent="1" vertex="1">
          <mxGeometry x="180" y="260" width="120" height="50" as="geometry" />
        </mxCell>
        <mxCell id="18WWBmQ5kVy6B0JB5kDH-3" value="st_Name" style="ellipse;whiteSpace=wrap;html=1;labelBackgroundColor=none;fillColor=#FAE5C7;strokeColor=#0F8B8D;fontColor=#143642;" parent="1" vertex="1">
          <mxGeometry x="120" y="210" width="60" height="30" as="geometry" />
        </mxCell>
        <mxCell id="18WWBmQ5kVy6B0JB5kDH-4" value="Fname" style="ellipse;whiteSpace=wrap;html=1;labelBackgroundColor=none;fillColor=#FAE5C7;strokeColor=#0F8B8D;fontColor=#143642;" parent="1" vertex="1">
          <mxGeometry x="50" y="170" width="70" height="20" as="geometry" />
        </mxCell>
        <mxCell id="18WWBmQ5kVy6B0JB5kDH-5" value="Lname" style="ellipse;whiteSpace=wrap;html=1;labelBackgroundColor=none;fillColor=#FAE5C7;strokeColor=#0F8B8D;fontColor=#143642;" parent="1" vertex="1">
          <mxGeometry x="130" y="160" width="70" height="20" as="geometry" />
        </mxCell>
        <mxCell id="18WWBmQ5kVy6B0JB5kDH-6" value="" style="endArrow=none;html=1;rounded=0;entryX=0.5;entryY=1;entryDx=0;entryDy=0;labelBackgroundColor=none;strokeColor=#A8201A;fontColor=default;" parent="1" target="18WWBmQ5kVy6B0JB5kDH-5" edge="1">
          <mxGeometry width="50" height="50" relative="1" as="geometry">
            <mxPoint x="160" y="210" as="sourcePoint" />
            <mxPoint x="540" y="390" as="targetPoint" />
          </mxGeometry>
        </mxCell>
        <mxCell id="18WWBmQ5kVy6B0JB5kDH-7" value="" style="endArrow=none;html=1;rounded=0;entryX=0.5;entryY=1;entryDx=0;entryDy=0;exitX=0.084;exitY=-0.007;exitDx=0;exitDy=0;exitPerimeter=0;labelBackgroundColor=none;strokeColor=#A8201A;fontColor=default;" parent="1" source="18WWBmQ5kVy6B0JB5kDH-2" target="18WWBmQ5kVy6B0JB5kDH-3" edge="1">
          <mxGeometry width="50" height="50" relative="1" as="geometry">
            <mxPoint x="200" y="250" as="sourcePoint" />
            <mxPoint x="395" y="110" as="targetPoint" />
          </mxGeometry>
        </mxCell>
        <mxCell id="18WWBmQ5kVy6B0JB5kDH-8" value="" style="endArrow=none;html=1;rounded=0;entryX=0.718;entryY=0.996;entryDx=0;entryDy=0;entryPerimeter=0;exitX=0;exitY=0;exitDx=0;exitDy=0;labelBackgroundColor=none;strokeColor=#A8201A;fontColor=default;" parent="1" source="18WWBmQ5kVy6B0JB5kDH-3" target="18WWBmQ5kVy6B0JB5kDH-4" edge="1">
          <mxGeometry width="50" height="50" relative="1" as="geometry">
            <mxPoint x="280" y="270" as="sourcePoint" />
            <mxPoint x="300" y="150" as="targetPoint" />
          </mxGeometry>
        </mxCell>
        <mxCell id="18WWBmQ5kVy6B0JB5kDH-9" value="" style="endArrow=none;html=1;rounded=0;labelBackgroundColor=none;strokeColor=#A8201A;fontColor=default;" parent="1" source="18WWBmQ5kVy6B0JB5kDH-11" target="18WWBmQ5kVy6B0JB5kDH-2" edge="1">
          <mxGeometry width="50" height="50" relative="1" as="geometry">
            <mxPoint x="490" y="440" as="sourcePoint" />
            <mxPoint x="540" y="390" as="targetPoint" />
          </mxGeometry>
        </mxCell>
        <mxCell id="18WWBmQ5kVy6B0JB5kDH-10" value="st_address" style="ellipse;whiteSpace=wrap;html=1;labelBackgroundColor=none;fillColor=#FAE5C7;strokeColor=#0F8B8D;fontColor=#143642;" parent="1" vertex="1">
          <mxGeometry x="205" y="180" width="70" height="30" as="geometry" />
        </mxCell>
        <mxCell id="18WWBmQ5kVy6B0JB5kDH-11" value="st_id" style="ellipse;whiteSpace=wrap;html=1;labelBackgroundColor=none;fillColor=#FAE5C7;strokeColor=#0F8B8D;fontColor=#143642;" parent="1" vertex="1">
          <mxGeometry x="80" y="260" width="70" height="40" as="geometry" />
        </mxCell>
        <mxCell id="18WWBmQ5kVy6B0JB5kDH-12" style="edgeStyle=orthogonalEdgeStyle;rounded=0;orthogonalLoop=1;jettySize=auto;html=1;exitX=0.5;exitY=1;exitDx=0;exitDy=0;labelBackgroundColor=none;strokeColor=#A8201A;fontColor=default;" parent="1" source="18WWBmQ5kVy6B0JB5kDH-11" target="18WWBmQ5kVy6B0JB5kDH-11" edge="1">
          <mxGeometry relative="1" as="geometry" />
        </mxCell>
        <mxCell id="18WWBmQ5kVy6B0JB5kDH-13" value="" style="endArrow=none;html=1;rounded=0;labelBackgroundColor=none;strokeColor=#A8201A;fontColor=default;" parent="1" edge="1">
          <mxGeometry width="50" height="50" relative="1" as="geometry">
            <mxPoint x="140" y="288.5" as="sourcePoint" />
            <mxPoint x="90" y="288.5" as="targetPoint" />
          </mxGeometry>
        </mxCell>
        <mxCell id="18WWBmQ5kVy6B0JB5kDH-14" value="" style="endArrow=none;html=1;rounded=0;entryX=0.363;entryY=0.985;entryDx=0;entryDy=0;entryPerimeter=0;labelBackgroundColor=none;strokeColor=#A8201A;fontColor=default;" parent="1" target="18WWBmQ5kVy6B0JB5kDH-10" edge="1">
          <mxGeometry width="50" height="50" relative="1" as="geometry">
            <mxPoint x="220" y="260" as="sourcePoint" />
            <mxPoint x="310" y="220" as="targetPoint" />
          </mxGeometry>
        </mxCell>
        <mxCell id="18WWBmQ5kVy6B0JB5kDH-15" value="st_age" style="ellipse;whiteSpace=wrap;html=1;labelBackgroundColor=none;fillColor=#FAE5C7;strokeColor=#0F8B8D;fontColor=#143642;" parent="1" vertex="1">
          <mxGeometry x="290" y="200" width="60" height="30" as="geometry" />
        </mxCell>
        <mxCell id="18WWBmQ5kVy6B0JB5kDH-16" value="" style="endArrow=none;html=1;rounded=0;entryX=0.283;entryY=0.896;entryDx=0;entryDy=0;exitX=0.75;exitY=0;exitDx=0;exitDy=0;entryPerimeter=0;labelBackgroundColor=none;strokeColor=#A8201A;fontColor=default;" parent="1" source="18WWBmQ5kVy6B0JB5kDH-2" target="18WWBmQ5kVy6B0JB5kDH-15" edge="1">
          <mxGeometry width="50" height="50" relative="1" as="geometry">
            <mxPoint x="229" y="268" as="sourcePoint" />
            <mxPoint x="260" y="226" as="targetPoint" />
          </mxGeometry>
        </mxCell>
        <mxCell id="18WWBmQ5kVy6B0JB5kDH-17" value="dep_id" style="ellipse;whiteSpace=wrap;html=1;labelBackgroundColor=none;fillColor=#FAE5C7;strokeColor=#0F8B8D;fontColor=#143642;" parent="1" vertex="1">
          <mxGeometry x="500" y="185" width="80" height="40" as="geometry" />
        </mxCell>
        <mxCell id="18WWBmQ5kVy6B0JB5kDH-18" value="" style="endArrow=none;html=1;rounded=0;labelBackgroundColor=none;strokeColor=#A8201A;fontColor=default;" parent="1" edge="1">
          <mxGeometry width="50" height="50" relative="1" as="geometry">
            <mxPoint x="560" y="215" as="sourcePoint" />
            <mxPoint x="510" y="215" as="targetPoint" />
          </mxGeometry>
        </mxCell>
        <mxCell id="18WWBmQ5kVy6B0JB5kDH-19" value="" style="endArrow=none;html=1;rounded=0;entryX=0.615;entryY=0.989;entryDx=0;entryDy=0;entryPerimeter=0;exitX=0.099;exitY=-0.011;exitDx=0;exitDy=0;exitPerimeter=0;labelBackgroundColor=none;strokeColor=#A8201A;fontColor=default;" parent="1" source="18WWBmQ5kVy6B0JB5kDH-1" target="18WWBmQ5kVy6B0JB5kDH-17" edge="1">
          <mxGeometry width="50" height="50" relative="1" as="geometry">
            <mxPoint x="615" y="250" as="sourcePoint" />
            <mxPoint x="485" y="300" as="targetPoint" />
          </mxGeometry>
        </mxCell>
        <mxCell id="18WWBmQ5kVy6B0JB5kDH-20" value="dep_name&lt;br&gt;" style="ellipse;whiteSpace=wrap;html=1;labelBackgroundColor=none;fillColor=#FAE5C7;strokeColor=#0F8B8D;fontColor=#143642;" parent="1" vertex="1">
          <mxGeometry x="605" y="180" width="80" height="40" as="geometry" />
        </mxCell>
        <mxCell id="18WWBmQ5kVy6B0JB5kDH-21" value="" style="endArrow=none;html=1;rounded=0;entryX=0.5;entryY=1;entryDx=0;entryDy=0;exitX=0.75;exitY=0;exitDx=0;exitDy=0;labelBackgroundColor=none;strokeColor=#A8201A;fontColor=default;" parent="1" source="18WWBmQ5kVy6B0JB5kDH-1" target="18WWBmQ5kVy6B0JB5kDH-20" edge="1">
          <mxGeometry width="50" height="50" relative="1" as="geometry">
            <mxPoint x="685" y="260" as="sourcePoint" />
            <mxPoint x="604" y="245" as="targetPoint" />
          </mxGeometry>
        </mxCell>
        <mxCell id="18WWBmQ5kVy6B0JB5kDH-22" value="&lt;font style=&quot;font-size: 18px;&quot;&gt;Courses&lt;/font&gt;" style="rounded=0;whiteSpace=wrap;html=1;labelBackgroundColor=none;fillColor=#FAE5C7;strokeColor=#0F8B8D;fontColor=#143642;" parent="1" vertex="1">
          <mxGeometry x="145" y="495" width="120" height="50" as="geometry" />
        </mxCell>
        <mxCell id="18WWBmQ5kVy6B0JB5kDH-23" value="crs_id" style="ellipse;whiteSpace=wrap;html=1;labelBackgroundColor=none;fillColor=#FAE5C7;strokeColor=#0F8B8D;fontColor=#143642;" parent="1" vertex="1">
          <mxGeometry x="20" y="525" width="80" height="30" as="geometry" />
        </mxCell>
        <mxCell id="18WWBmQ5kVy6B0JB5kDH-24" value="crs_duration" style="ellipse;whiteSpace=wrap;html=1;labelBackgroundColor=none;fillColor=#FAE5C7;strokeColor=#0F8B8D;fontColor=#143642;" parent="1" vertex="1">
          <mxGeometry x="40" y="612.5" width="80" height="35" as="geometry" />
        </mxCell>
        <mxCell id="18WWBmQ5kVy6B0JB5kDH-25" value="crs_description" style="ellipse;whiteSpace=wrap;html=1;labelBackgroundColor=none;fillColor=#FAE5C7;strokeColor=#0F8B8D;fontColor=#143642;" parent="1" vertex="1">
          <mxGeometry x="90" y="650" width="110" height="30" as="geometry" />
        </mxCell>
        <mxCell id="18WWBmQ5kVy6B0JB5kDH-26" value="crs_name" style="ellipse;whiteSpace=wrap;html=1;labelBackgroundColor=none;fillColor=#FAE5C7;strokeColor=#0F8B8D;fontColor=#143642;" parent="1" vertex="1">
          <mxGeometry x="40" y="570" width="70" height="30" as="geometry" />
        </mxCell>
        <mxCell id="18WWBmQ5kVy6B0JB5kDH-27" value="" style="endArrow=none;html=1;rounded=0;entryX=0;entryY=0.75;entryDx=0;entryDy=0;exitX=1;exitY=0;exitDx=0;exitDy=0;labelBackgroundColor=none;strokeColor=#A8201A;fontColor=default;" parent="1" source="18WWBmQ5kVy6B0JB5kDH-23" target="18WWBmQ5kVy6B0JB5kDH-22" edge="1">
          <mxGeometry width="50" height="50" relative="1" as="geometry">
            <mxPoint x="100" y="565" as="sourcePoint" />
            <mxPoint x="520" y="365" as="targetPoint" />
          </mxGeometry>
        </mxCell>
        <mxCell id="18WWBmQ5kVy6B0JB5kDH-28" value="" style="endArrow=none;html=1;rounded=0;exitX=0.768;exitY=0.03;exitDx=0;exitDy=0;exitPerimeter=0;entryX=0.099;entryY=1.009;entryDx=0;entryDy=0;entryPerimeter=0;labelBackgroundColor=none;strokeColor=#A8201A;fontColor=default;" parent="1" source="18WWBmQ5kVy6B0JB5kDH-26" target="18WWBmQ5kVy6B0JB5kDH-22" edge="1">
          <mxGeometry width="50" height="50" relative="1" as="geometry">
            <mxPoint x="107" y="573" as="sourcePoint" />
            <mxPoint x="170" y="565" as="targetPoint" />
          </mxGeometry>
        </mxCell>
        <mxCell id="18WWBmQ5kVy6B0JB5kDH-29" value="" style="endArrow=none;html=1;rounded=0;exitX=0.686;exitY=-0.016;exitDx=0;exitDy=0;entryX=0.25;entryY=1;entryDx=0;entryDy=0;exitPerimeter=0;labelBackgroundColor=none;strokeColor=#A8201A;fontColor=default;" parent="1" source="18WWBmQ5kVy6B0JB5kDH-24" target="18WWBmQ5kVy6B0JB5kDH-22" edge="1">
          <mxGeometry width="50" height="50" relative="1" as="geometry">
            <mxPoint x="156" y="625" as="sourcePoint" />
            <mxPoint x="180" y="563" as="targetPoint" />
          </mxGeometry>
        </mxCell>
        <mxCell id="18WWBmQ5kVy6B0JB5kDH-30" value="" style="endArrow=none;html=1;rounded=0;entryX=0.5;entryY=1;entryDx=0;entryDy=0;exitX=0.5;exitY=0;exitDx=0;exitDy=0;labelBackgroundColor=none;strokeColor=#A8201A;fontColor=default;" parent="1" source="18WWBmQ5kVy6B0JB5kDH-25" target="18WWBmQ5kVy6B0JB5kDH-22" edge="1">
          <mxGeometry width="50" height="50" relative="1" as="geometry">
            <mxPoint x="150" y="650" as="sourcePoint" />
            <mxPoint x="214" y="565" as="targetPoint" />
          </mxGeometry>
        </mxCell>
        <mxCell id="18WWBmQ5kVy6B0JB5kDH-31" value="&lt;font style=&quot;font-size: 18px;&quot;&gt;Instructors&lt;/font&gt;" style="rounded=0;whiteSpace=wrap;html=1;labelBackgroundColor=none;fillColor=#FAE5C7;strokeColor=#0F8B8D;fontColor=#143642;" parent="1" vertex="1">
          <mxGeometry x="535" y="500" width="120" height="50" as="geometry" />
        </mxCell>
        <mxCell id="18WWBmQ5kVy6B0JB5kDH-32" value="ins_name" style="ellipse;whiteSpace=wrap;html=1;labelBackgroundColor=none;fillColor=#FAE5C7;strokeColor=#0F8B8D;fontColor=#143642;" parent="1" vertex="1">
          <mxGeometry x="505" y="590" width="70" height="40" as="geometry" />
        </mxCell>
        <mxCell id="18WWBmQ5kVy6B0JB5kDH-33" value="ins_id" style="ellipse;whiteSpace=wrap;html=1;labelBackgroundColor=none;fillColor=#FAE5C7;strokeColor=#0F8B8D;fontColor=#143642;" parent="1" vertex="1">
          <mxGeometry x="435" y="560" width="70" height="40" as="geometry" />
        </mxCell>
        <mxCell id="18WWBmQ5kVy6B0JB5kDH-34" value="ins_salary" style="ellipse;whiteSpace=wrap;html=1;labelBackgroundColor=none;fillColor=#FAE5C7;strokeColor=#0F8B8D;fontColor=#143642;" parent="1" vertex="1">
          <mxGeometry x="575" y="600" width="70" height="40" as="geometry" />
        </mxCell>
        <mxCell id="18WWBmQ5kVy6B0JB5kDH-35" value="ins_houreRate" style="ellipse;whiteSpace=wrap;html=1;labelBackgroundColor=none;fillColor=#FAE5C7;strokeColor=#0F8B8D;fontColor=#143642;" parent="1" vertex="1">
          <mxGeometry x="655" y="595" width="110" height="40" as="geometry" />
        </mxCell>
        <mxCell id="18WWBmQ5kVy6B0JB5kDH-36" value="ins_bonus" style="ellipse;whiteSpace=wrap;html=1;labelBackgroundColor=none;fillColor=#FAE5C7;strokeColor=#0F8B8D;fontColor=#143642;" parent="1" vertex="1">
          <mxGeometry x="725" y="545" width="70" height="40" as="geometry" />
        </mxCell>
        <mxCell id="18WWBmQ5kVy6B0JB5kDH-37" value="ins_address" style="ellipse;whiteSpace=wrap;html=1;labelBackgroundColor=none;fillColor=#FAE5C7;strokeColor=#0F8B8D;fontColor=#143642;" parent="1" vertex="1">
          <mxGeometry x="695" y="490" width="80" height="40" as="geometry" />
        </mxCell>
        <mxCell id="18WWBmQ5kVy6B0JB5kDH-38" value="" style="endArrow=none;html=1;rounded=0;exitX=1;exitY=0;exitDx=0;exitDy=0;entryX=0;entryY=1;entryDx=0;entryDy=0;labelBackgroundColor=none;strokeColor=#A8201A;fontColor=default;" parent="1" source="18WWBmQ5kVy6B0JB5kDH-33" target="18WWBmQ5kVy6B0JB5kDH-31" edge="1">
          <mxGeometry width="50" height="50" relative="1" as="geometry">
            <mxPoint x="415" y="450" as="sourcePoint" />
            <mxPoint x="465" y="400" as="targetPoint" />
          </mxGeometry>
        </mxCell>
        <mxCell id="18WWBmQ5kVy6B0JB5kDH-39" value="" style="endArrow=none;html=1;rounded=0;exitX=0.5;exitY=0;exitDx=0;exitDy=0;entryX=0.25;entryY=1;entryDx=0;entryDy=0;labelBackgroundColor=none;strokeColor=#A8201A;fontColor=default;" parent="1" source="18WWBmQ5kVy6B0JB5kDH-32" target="18WWBmQ5kVy6B0JB5kDH-31" edge="1">
          <mxGeometry width="50" height="50" relative="1" as="geometry">
            <mxPoint x="485" y="596" as="sourcePoint" />
            <mxPoint x="545" y="560" as="targetPoint" />
          </mxGeometry>
        </mxCell>
        <mxCell id="18WWBmQ5kVy6B0JB5kDH-40" value="" style="endArrow=none;html=1;rounded=0;entryX=0.5;entryY=1;entryDx=0;entryDy=0;exitX=0.5;exitY=0;exitDx=0;exitDy=0;labelBackgroundColor=none;strokeColor=#A8201A;fontColor=default;" parent="1" source="18WWBmQ5kVy6B0JB5kDH-34" target="18WWBmQ5kVy6B0JB5kDH-31" edge="1">
          <mxGeometry width="50" height="50" relative="1" as="geometry">
            <mxPoint x="605" y="620" as="sourcePoint" />
            <mxPoint x="575" y="560" as="targetPoint" />
          </mxGeometry>
        </mxCell>
        <mxCell id="18WWBmQ5kVy6B0JB5kDH-41" value="" style="endArrow=none;html=1;rounded=0;entryX=0.75;entryY=1;entryDx=0;entryDy=0;exitX=0.252;exitY=-0.044;exitDx=0;exitDy=0;exitPerimeter=0;labelBackgroundColor=none;strokeColor=#A8201A;fontColor=default;" parent="1" source="18WWBmQ5kVy6B0JB5kDH-35" target="18WWBmQ5kVy6B0JB5kDH-31" edge="1">
          <mxGeometry width="50" height="50" relative="1" as="geometry">
            <mxPoint x="620" y="640" as="sourcePoint" />
            <mxPoint x="605" y="560" as="targetPoint" />
          </mxGeometry>
        </mxCell>
        <mxCell id="18WWBmQ5kVy6B0JB5kDH-42" value="" style="endArrow=none;html=1;rounded=0;entryX=1;entryY=1;entryDx=0;entryDy=0;exitX=0;exitY=0.5;exitDx=0;exitDy=0;labelBackgroundColor=none;strokeColor=#A8201A;fontColor=default;" parent="1" source="18WWBmQ5kVy6B0JB5kDH-36" target="18WWBmQ5kVy6B0JB5kDH-31" edge="1">
          <mxGeometry width="50" height="50" relative="1" as="geometry">
            <mxPoint x="713" y="618" as="sourcePoint" />
            <mxPoint x="635" y="560" as="targetPoint" />
          </mxGeometry>
        </mxCell>
        <mxCell id="18WWBmQ5kVy6B0JB5kDH-43" value="" style="endArrow=none;html=1;rounded=0;entryX=1;entryY=0.5;entryDx=0;entryDy=0;exitX=-0.007;exitY=0.733;exitDx=0;exitDy=0;exitPerimeter=0;labelBackgroundColor=none;strokeColor=#A8201A;fontColor=default;" parent="1" source="18WWBmQ5kVy6B0JB5kDH-37" target="18WWBmQ5kVy6B0JB5kDH-31" edge="1">
          <mxGeometry width="50" height="50" relative="1" as="geometry">
            <mxPoint x="695" y="525" as="sourcePoint" />
            <mxPoint x="665" y="560" as="targetPoint" />
          </mxGeometry>
        </mxCell>
        <mxCell id="18WWBmQ5kVy6B0JB5kDH-44" value="top_id" style="ellipse;whiteSpace=wrap;html=1;labelBackgroundColor=none;fillColor=#FAE5C7;strokeColor=#0F8B8D;fontColor=#143642;" parent="1" vertex="1">
          <mxGeometry x="440" y="764.39" width="70" height="35" as="geometry" />
        </mxCell>
        <mxCell id="18WWBmQ5kVy6B0JB5kDH-45" value="top_name" style="ellipse;whiteSpace=wrap;html=1;labelBackgroundColor=none;fillColor=#FAE5C7;strokeColor=#0F8B8D;fontColor=#143642;" parent="1" vertex="1">
          <mxGeometry x="360" y="764.39" width="70" height="35" as="geometry" />
        </mxCell>
        <mxCell id="18WWBmQ5kVy6B0JB5kDH-46" value="" style="endArrow=none;html=1;rounded=0;exitX=0.5;exitY=0;exitDx=0;exitDy=0;labelBackgroundColor=none;strokeColor=#A8201A;fontColor=default;entryX=0.378;entryY=1.03;entryDx=0;entryDy=0;entryPerimeter=0;" parent="1" source="18WWBmQ5kVy6B0JB5kDH-45" target="18WWBmQ5kVy6B0JB5kDH-79" edge="1">
          <mxGeometry width="50" height="50" relative="1" as="geometry">
            <mxPoint x="421" y="715.39" as="sourcePoint" />
            <mxPoint x="417" y="720" as="targetPoint" />
          </mxGeometry>
        </mxCell>
        <mxCell id="18WWBmQ5kVy6B0JB5kDH-47" value="" style="endArrow=none;html=1;rounded=0;exitX=0.37;exitY=0.006;exitDx=0;exitDy=0;exitPerimeter=0;entryX=0.75;entryY=1;entryDx=0;entryDy=0;labelBackgroundColor=none;strokeColor=#A8201A;fontColor=default;" parent="1" source="18WWBmQ5kVy6B0JB5kDH-44" target="18WWBmQ5kVy6B0JB5kDH-79" edge="1">
          <mxGeometry width="50" height="50" relative="1" as="geometry">
            <mxPoint x="405" y="774.39" as="sourcePoint" />
            <mxPoint x="444.74873734152925" y="729.9966017177982" as="targetPoint" />
          </mxGeometry>
        </mxCell>
        <mxCell id="18WWBmQ5kVy6B0JB5kDH-48" value="Take" style="rhombus;whiteSpace=wrap;html=1;labelBackgroundColor=none;fillColor=#FAE5C7;strokeColor=#0F8B8D;fontColor=#143642;" parent="1" vertex="1">
          <mxGeometry x="200" y="370" width="60" height="50" as="geometry" />
        </mxCell>
        <mxCell id="18WWBmQ5kVy6B0JB5kDH-49" value="" style="endArrow=none;html=1;rounded=0;entryX=0.5;entryY=1;entryDx=0;entryDy=0;exitX=0.609;exitY=0.011;exitDx=0;exitDy=0;exitPerimeter=0;labelBackgroundColor=none;strokeColor=#A8201A;fontColor=default;" parent="1" source="18WWBmQ5kVy6B0JB5kDH-22" target="18WWBmQ5kVy6B0JB5kDH-48" edge="1">
          <mxGeometry width="50" height="50" relative="1" as="geometry">
            <mxPoint x="220" y="490" as="sourcePoint" />
            <mxPoint x="215" y="555" as="targetPoint" />
          </mxGeometry>
        </mxCell>
        <mxCell id="18WWBmQ5kVy6B0JB5kDH-50" value="" style="endArrow=none;html=1;rounded=0;entryX=0.5;entryY=1;entryDx=0;entryDy=0;exitX=0.5;exitY=0;exitDx=0;exitDy=0;labelBackgroundColor=none;strokeColor=#A8201A;fontColor=default;" parent="1" source="18WWBmQ5kVy6B0JB5kDH-48" target="18WWBmQ5kVy6B0JB5kDH-2" edge="1">
          <mxGeometry width="50" height="50" relative="1" as="geometry">
            <mxPoint x="230" y="500" as="sourcePoint" />
            <mxPoint x="240" y="430" as="targetPoint" />
          </mxGeometry>
        </mxCell>
        <mxCell id="18WWBmQ5kVy6B0JB5kDH-51" value="m" style="text;html=1;align=center;verticalAlign=middle;resizable=0;points=[];autosize=1;strokeColor=none;fillColor=none;labelBackgroundColor=none;fontColor=#143642;" parent="1" vertex="1">
          <mxGeometry x="205" y="328" width="30" height="30" as="geometry" />
        </mxCell>
        <mxCell id="18WWBmQ5kVy6B0JB5kDH-52" value="m" style="text;html=1;align=center;verticalAlign=middle;resizable=0;points=[];autosize=1;strokeColor=none;fillColor=none;labelBackgroundColor=none;fontColor=#143642;" parent="1" vertex="1">
          <mxGeometry x="195" y="428" width="30" height="30" as="geometry" />
        </mxCell>
        <mxCell id="18WWBmQ5kVy6B0JB5kDH-53" value="Contain" style="rhombus;whiteSpace=wrap;html=1;labelBackgroundColor=none;fillColor=#FAE5C7;strokeColor=#0F8B8D;fontColor=#143642;" parent="1" vertex="1">
          <mxGeometry x="530" y="380" width="60" height="50" as="geometry" />
        </mxCell>
        <mxCell id="18WWBmQ5kVy6B0JB5kDH-54" value="" style="endArrow=none;html=1;rounded=0;entryX=0.25;entryY=1;entryDx=0;entryDy=0;labelBackgroundColor=none;strokeColor=#A8201A;fontColor=default;" parent="1" source="18WWBmQ5kVy6B0JB5kDH-53" target="18WWBmQ5kVy6B0JB5kDH-1" edge="1">
          <mxGeometry width="50" height="50" relative="1" as="geometry">
            <mxPoint x="695" y="270" as="sourcePoint" />
            <mxPoint x="705" y="235" as="targetPoint" />
          </mxGeometry>
        </mxCell>
        <mxCell id="18WWBmQ5kVy6B0JB5kDH-55" value="" style="endArrow=none;html=1;rounded=0;entryX=0.25;entryY=0;entryDx=0;entryDy=0;exitX=0.5;exitY=1;exitDx=0;exitDy=0;labelBackgroundColor=none;strokeColor=#A8201A;fontColor=default;" parent="1" source="18WWBmQ5kVy6B0JB5kDH-53" target="18WWBmQ5kVy6B0JB5kDH-31" edge="1">
          <mxGeometry width="50" height="50" relative="1" as="geometry">
            <mxPoint x="640" y="394" as="sourcePoint" />
            <mxPoint x="657" y="322" as="targetPoint" />
          </mxGeometry>
        </mxCell>
        <mxCell id="18WWBmQ5kVy6B0JB5kDH-56" value="1" style="text;html=1;align=center;verticalAlign=middle;resizable=0;points=[];autosize=1;strokeColor=none;fillColor=none;labelBackgroundColor=none;fontColor=#143642;" parent="1" vertex="1">
          <mxGeometry x="575" y="330" width="30" height="30" as="geometry" />
        </mxCell>
        <mxCell id="18WWBmQ5kVy6B0JB5kDH-57" value="m" style="text;html=1;align=center;verticalAlign=middle;resizable=0;points=[];autosize=1;strokeColor=none;fillColor=none;labelBackgroundColor=none;fontColor=#143642;" parent="1" vertex="1">
          <mxGeometry x="560" y="448" width="30" height="30" as="geometry" />
        </mxCell>
        <mxCell id="18WWBmQ5kVy6B0JB5kDH-58" value="Manage" style="rhombus;whiteSpace=wrap;html=1;labelBackgroundColor=none;fillColor=#FAE5C7;strokeColor=#0F8B8D;fontColor=#143642;" parent="1" vertex="1">
          <mxGeometry x="615" y="375" width="60" height="50" as="geometry" />
        </mxCell>
        <mxCell id="18WWBmQ5kVy6B0JB5kDH-59" value="" style="endArrow=none;html=1;rounded=0;exitX=0;exitY=1;exitDx=0;exitDy=0;labelBackgroundColor=none;strokeColor=#A8201A;fontColor=default;" parent="1" source="18WWBmQ5kVy6B0JB5kDH-58" edge="1">
          <mxGeometry width="50" height="50" relative="1" as="geometry">
            <mxPoint x="715" y="420" as="sourcePoint" />
            <mxPoint x="645" y="500" as="targetPoint" />
          </mxGeometry>
        </mxCell>
        <mxCell id="18WWBmQ5kVy6B0JB5kDH-60" value="" style="endArrow=none;html=1;rounded=0;exitX=0.409;exitY=0.849;exitDx=0;exitDy=0;exitPerimeter=0;labelBackgroundColor=none;strokeColor=#A8201A;fontColor=default;" parent="1" source="18WWBmQ5kVy6B0JB5kDH-58" edge="1">
          <mxGeometry width="50" height="50" relative="1" as="geometry">
            <mxPoint x="725" y="430" as="sourcePoint" />
            <mxPoint x="655" y="500" as="targetPoint" />
          </mxGeometry>
        </mxCell>
        <mxCell id="18WWBmQ5kVy6B0JB5kDH-61" value="" style="endArrow=none;html=1;rounded=0;exitX=0.75;exitY=1;exitDx=0;exitDy=0;labelBackgroundColor=none;strokeColor=#A8201A;fontColor=default;" parent="1" source="18WWBmQ5kVy6B0JB5kDH-1" target="18WWBmQ5kVy6B0JB5kDH-58" edge="1">
          <mxGeometry width="50" height="50" relative="1" as="geometry">
            <mxPoint x="730" y="432" as="sourcePoint" />
            <mxPoint x="665" y="510" as="targetPoint" />
          </mxGeometry>
        </mxCell>
        <mxCell id="18WWBmQ5kVy6B0JB5kDH-62" value="1" style="text;html=1;align=center;verticalAlign=middle;resizable=0;points=[];autosize=1;strokeColor=none;fillColor=none;labelBackgroundColor=none;fontColor=#143642;" parent="1" vertex="1">
          <mxGeometry x="645" y="330" width="30" height="30" as="geometry" />
        </mxCell>
        <mxCell id="18WWBmQ5kVy6B0JB5kDH-63" value="1" style="text;html=1;align=center;verticalAlign=middle;resizable=0;points=[];autosize=1;strokeColor=none;fillColor=none;labelBackgroundColor=none;fontColor=#143642;" parent="1" vertex="1">
          <mxGeometry x="655" y="440" width="30" height="30" as="geometry" />
        </mxCell>
        <mxCell id="18WWBmQ5kVy6B0JB5kDH-64" value="hiring_date" style="ellipse;whiteSpace=wrap;html=1;labelBackgroundColor=none;fillColor=#FAE5C7;strokeColor=#0F8B8D;fontColor=#143642;" parent="1" vertex="1">
          <mxGeometry x="695" y="380" width="110" height="40" as="geometry" />
        </mxCell>
        <mxCell id="18WWBmQ5kVy6B0JB5kDH-65" value="" style="endArrow=none;html=1;rounded=0;entryX=1;entryY=0.5;entryDx=0;entryDy=0;labelBackgroundColor=none;strokeColor=#A8201A;fontColor=default;" parent="1" source="18WWBmQ5kVy6B0JB5kDH-64" target="18WWBmQ5kVy6B0JB5kDH-58" edge="1">
          <mxGeometry width="50" height="50" relative="1" as="geometry">
            <mxPoint x="650" y="328" as="sourcePoint" />
            <mxPoint x="695" y="399" as="targetPoint" />
          </mxGeometry>
        </mxCell>
        <mxCell id="18WWBmQ5kVy6B0JB5kDH-66" value="Teach" style="rhombus;whiteSpace=wrap;html=1;labelBackgroundColor=none;fillColor=#FAE5C7;strokeColor=#0F8B8D;fontColor=#143642;" parent="1" vertex="1">
          <mxGeometry x="335" y="495" width="70" height="50" as="geometry" />
        </mxCell>
        <mxCell id="18WWBmQ5kVy6B0JB5kDH-67" value="" style="endArrow=none;html=1;rounded=0;exitX=0;exitY=0.5;exitDx=0;exitDy=0;entryX=1;entryY=0.5;entryDx=0;entryDy=0;labelBackgroundColor=none;strokeColor=#A8201A;fontColor=default;" parent="1" source="18WWBmQ5kVy6B0JB5kDH-31" target="18WWBmQ5kVy6B0JB5kDH-66" edge="1">
          <mxGeometry width="50" height="50" relative="1" as="geometry">
            <mxPoint x="415" y="400" as="sourcePoint" />
            <mxPoint x="465" y="350" as="targetPoint" />
          </mxGeometry>
        </mxCell>
        <mxCell id="18WWBmQ5kVy6B0JB5kDH-68" value="" style="endArrow=none;html=1;rounded=0;exitX=0;exitY=0.5;exitDx=0;exitDy=0;entryX=1;entryY=0.5;entryDx=0;entryDy=0;labelBackgroundColor=none;strokeColor=#A8201A;fontColor=default;" parent="1" source="18WWBmQ5kVy6B0JB5kDH-66" target="18WWBmQ5kVy6B0JB5kDH-22" edge="1">
          <mxGeometry width="50" height="50" relative="1" as="geometry">
            <mxPoint x="600" y="545" as="sourcePoint" />
            <mxPoint x="470" y="540" as="targetPoint" />
          </mxGeometry>
        </mxCell>
        <mxCell id="18WWBmQ5kVy6B0JB5kDH-69" value="m" style="text;html=1;align=center;verticalAlign=middle;resizable=0;points=[];autosize=1;strokeColor=none;fillColor=none;labelBackgroundColor=none;fontColor=#143642;" parent="1" vertex="1">
          <mxGeometry x="455" y="495" width="30" height="30" as="geometry" />
        </mxCell>
        <mxCell id="18WWBmQ5kVy6B0JB5kDH-70" value="m" style="text;html=1;align=center;verticalAlign=middle;resizable=0;points=[];autosize=1;strokeColor=none;fillColor=none;labelBackgroundColor=none;fontColor=#143642;" parent="1" vertex="1">
          <mxGeometry x="290" y="490" width="30" height="30" as="geometry" />
        </mxCell>
        <mxCell id="18WWBmQ5kVy6B0JB5kDH-71" value="Has" style="rhombus;whiteSpace=wrap;html=1;labelBackgroundColor=none;fillColor=#FAE5C7;strokeColor=#0F8B8D;fontColor=#143642;" parent="1" vertex="1">
          <mxGeometry x="360" y="260" width="60" height="50" as="geometry" />
        </mxCell>
        <mxCell id="18WWBmQ5kVy6B0JB5kDH-72" value="" style="endArrow=none;html=1;rounded=0;entryX=0;entryY=0.5;entryDx=0;entryDy=0;exitX=1;exitY=0.5;exitDx=0;exitDy=0;labelBackgroundColor=none;strokeColor=#A8201A;fontColor=default;" parent="1" source="18WWBmQ5kVy6B0JB5kDH-71" target="18WWBmQ5kVy6B0JB5kDH-1" edge="1">
          <mxGeometry width="50" height="50" relative="1" as="geometry">
            <mxPoint x="415" y="400" as="sourcePoint" />
            <mxPoint x="465" y="350" as="targetPoint" />
          </mxGeometry>
        </mxCell>
        <mxCell id="18WWBmQ5kVy6B0JB5kDH-73" value="1" style="text;html=1;align=center;verticalAlign=middle;resizable=0;points=[];autosize=1;strokeColor=none;fillColor=none;labelBackgroundColor=none;fontColor=#143642;" parent="1" vertex="1">
          <mxGeometry x="480" y="258" width="30" height="30" as="geometry" />
        </mxCell>
        <mxCell id="18WWBmQ5kVy6B0JB5kDH-74" value="" style="endArrow=none;html=1;rounded=0;entryX=0;entryY=0.5;entryDx=0;entryDy=0;exitX=1;exitY=0.5;exitDx=0;exitDy=0;labelBackgroundColor=none;strokeColor=#A8201A;fontColor=default;" parent="1" source="18WWBmQ5kVy6B0JB5kDH-2" target="18WWBmQ5kVy6B0JB5kDH-71" edge="1">
          <mxGeometry width="50" height="50" relative="1" as="geometry">
            <mxPoint x="485" y="305" as="sourcePoint" />
            <mxPoint x="615" y="313" as="targetPoint" />
          </mxGeometry>
        </mxCell>
        <mxCell id="18WWBmQ5kVy6B0JB5kDH-75" value="m" style="text;html=1;align=center;verticalAlign=middle;resizable=0;points=[];autosize=1;strokeColor=none;fillColor=none;labelBackgroundColor=none;fontColor=#143642;" parent="1" vertex="1">
          <mxGeometry x="320" y="260" width="30" height="30" as="geometry" />
        </mxCell>
        <mxCell id="18WWBmQ5kVy6B0JB5kDH-76" value="Classify&lt;br&gt;" style="rhombus;whiteSpace=wrap;html=1;rotation=45;labelBackgroundColor=none;fillColor=#FAE5C7;strokeColor=#0F8B8D;fontColor=#143642;" parent="1" vertex="1">
          <mxGeometry x="279.73" y="599.27" width="77" height="60" as="geometry" />
        </mxCell>
        <mxCell id="18WWBmQ5kVy6B0JB5kDH-77" value="" style="endArrow=none;html=1;rounded=0;entryX=0.57;entryY=0.992;entryDx=0;entryDy=0;entryPerimeter=0;labelBackgroundColor=none;strokeColor=#A8201A;fontColor=default;" parent="1" target="18WWBmQ5kVy6B0JB5kDH-2" edge="1">
          <mxGeometry width="50" height="50" relative="1" as="geometry">
            <mxPoint x="237" y="370" as="sourcePoint" />
            <mxPoint x="300" y="325" as="targetPoint" />
          </mxGeometry>
        </mxCell>
        <mxCell id="18WWBmQ5kVy6B0JB5kDH-78" value="" style="endArrow=none;html=1;rounded=0;exitX=0.642;exitY=0.004;exitDx=0;exitDy=0;exitPerimeter=0;labelBackgroundColor=none;strokeColor=#A8201A;fontColor=default;" parent="1" source="18WWBmQ5kVy6B0JB5kDH-22" edge="1">
          <mxGeometry width="50" height="50" relative="1" as="geometry">
            <mxPoint x="227" y="490" as="sourcePoint" />
            <mxPoint x="237" y="410" as="targetPoint" />
          </mxGeometry>
        </mxCell>
        <mxCell id="18WWBmQ5kVy6B0JB5kDH-79" value="Topic" style="rounded=0;whiteSpace=wrap;html=1;labelBackgroundColor=none;fillColor=#FAE5C7;strokeColor=#0F8B8D;fontColor=#143642;" parent="1" vertex="1">
          <mxGeometry x="387" y="690" width="80" height="40" as="geometry" />
        </mxCell>
        <mxCell id="18WWBmQ5kVy6B0JB5kDH-80" value="" style="endArrow=none;html=1;rounded=0;exitX=1;exitY=1;exitDx=0;exitDy=0;entryX=0.126;entryY=0.422;entryDx=0;entryDy=0;entryPerimeter=0;labelBackgroundColor=none;strokeColor=#A8201A;fontColor=default;" parent="1" source="18WWBmQ5kVy6B0JB5kDH-22" target="18WWBmQ5kVy6B0JB5kDH-76" edge="1">
          <mxGeometry width="50" height="50" relative="1" as="geometry">
            <mxPoint x="240" y="630" as="sourcePoint" />
            <mxPoint x="297" y="600" as="targetPoint" />
          </mxGeometry>
        </mxCell>
        <mxCell id="18WWBmQ5kVy6B0JB5kDH-81" value="" style="endArrow=none;html=1;rounded=0;exitX=1;exitY=1;exitDx=0;exitDy=0;entryX=0;entryY=0.5;entryDx=0;entryDy=0;labelBackgroundColor=none;strokeColor=#A8201A;fontColor=default;" parent="1" target="18WWBmQ5kVy6B0JB5kDH-76" edge="1">
          <mxGeometry width="50" height="50" relative="1" as="geometry">
            <mxPoint x="258" y="545" as="sourcePoint" />
            <mxPoint x="290" y="600" as="targetPoint" />
          </mxGeometry>
        </mxCell>
        <mxCell id="18WWBmQ5kVy6B0JB5kDH-82" value="" style="endArrow=none;html=1;rounded=0;exitX=1;exitY=0.5;exitDx=0;exitDy=0;entryX=0;entryY=0;entryDx=0;entryDy=0;labelBackgroundColor=none;strokeColor=#A8201A;fontColor=default;" parent="1" source="18WWBmQ5kVy6B0JB5kDH-76" target="18WWBmQ5kVy6B0JB5kDH-79" edge="1">
          <mxGeometry width="50" height="50" relative="1" as="geometry">
            <mxPoint x="387" y="560" as="sourcePoint" />
            <mxPoint x="437" y="510" as="targetPoint" />
          </mxGeometry>
        </mxCell>
        <mxCell id="18WWBmQ5kVy6B0JB5kDH-83" value="m" style="text;html=1;align=center;verticalAlign=middle;resizable=0;points=[];autosize=1;strokeColor=none;fillColor=none;labelBackgroundColor=none;fontColor=#143642;" parent="1" vertex="1">
          <mxGeometry x="282" y="548" width="30" height="30" as="geometry" />
        </mxCell>
        <mxCell id="18WWBmQ5kVy6B0JB5kDH-84" value="1" style="text;html=1;align=center;verticalAlign=middle;resizable=0;points=[];autosize=1;strokeColor=none;fillColor=none;labelBackgroundColor=none;fontColor=#143642;" parent="1" vertex="1">
          <mxGeometry x="360" y="647.5" width="30" height="30" as="geometry" />
        </mxCell>
        <mxCell id="18WWBmQ5kVy6B0JB5kDH-85" value="" style="endArrow=none;html=1;rounded=0;labelBackgroundColor=none;strokeColor=#A8201A;fontColor=default;" parent="1" edge="1">
          <mxGeometry width="50" height="50" relative="1" as="geometry">
            <mxPoint x="451.5" y="790" as="sourcePoint" />
            <mxPoint x="498.5" y="790.73" as="targetPoint" />
          </mxGeometry>
        </mxCell>
        <mxCell id="18WWBmQ5kVy6B0JB5kDH-86" value="" style="endArrow=none;html=1;rounded=0;labelBackgroundColor=none;strokeColor=#A8201A;fontColor=default;" parent="1" edge="1">
          <mxGeometry width="50" height="50" relative="1" as="geometry">
            <mxPoint x="446.5" y="590" as="sourcePoint" />
            <mxPoint x="493.5" y="590.73" as="targetPoint" />
          </mxGeometry>
        </mxCell>
        <mxCell id="18WWBmQ5kVy6B0JB5kDH-87" value="" style="endArrow=none;html=1;rounded=0;labelBackgroundColor=none;strokeColor=#A8201A;fontColor=default;" parent="1" edge="1">
          <mxGeometry width="50" height="50" relative="1" as="geometry">
            <mxPoint x="33" y="550" as="sourcePoint" />
            <mxPoint x="80" y="550.73" as="targetPoint" />
          </mxGeometry>
        </mxCell>
        <mxCell id="FvCnPaxAWfkqFUcF5XPX-1" value="&lt;font style=&quot;font-size: 24px;&quot;&gt;1- ITI&lt;/font&gt;" style="text;html=1;align=center;verticalAlign=middle;resizable=0;points=[];autosize=1;strokeColor=none;fillColor=none;fontColor=#143642;" parent="1" vertex="1">
          <mxGeometry x="60" y="33" width="80" height="40" as="geometry" />
        </mxCell>
      </root>
    </mxGraphModel>
  </diagram>
  <diagram id="thvMyK2xSNCgJxnKr8Ug" name="Musicana">
    <mxGraphModel dx="1280" dy="629" grid="1" gridSize="10" guides="1" tooltips="1" connect="1" arrows="1" fold="1" page="1" pageScale="1" pageWidth="850" pageHeight="1100" math="0" shadow="0">
      <root>
        <mxCell id="0" />
        <mxCell id="1" parent="0" />
        <mxCell id="Ux4ESB35TesMUiOV8RTM-1" value="&lt;font style=&quot;font-size: 18px;&quot;&gt;Musicians&lt;/font&gt;" style="rounded=0;whiteSpace=wrap;html=1;labelBackgroundColor=none;fillColor=#FAE5C7;strokeColor=#0F8B8D;fontColor=#143642;" vertex="1" parent="1">
          <mxGeometry x="190" y="290" width="120" height="50" as="geometry" />
        </mxCell>
        <mxCell id="Ux4ESB35TesMUiOV8RTM-2" value="id" style="ellipse;whiteSpace=wrap;html=1;labelBackgroundColor=none;fillColor=#FAE5C7;strokeColor=#0F8B8D;fontColor=#143642;" vertex="1" parent="1">
          <mxGeometry x="30" y="310" width="70" height="40" as="geometry" />
        </mxCell>
        <mxCell id="Ux4ESB35TesMUiOV8RTM-3" value="address" style="ellipse;whiteSpace=wrap;html=1;labelBackgroundColor=none;fillColor=#FAE5C7;strokeColor=#0F8B8D;fontColor=#143642;" vertex="1" parent="1">
          <mxGeometry x="160" y="220" width="60" height="40" as="geometry" />
        </mxCell>
        <mxCell id="Ux4ESB35TesMUiOV8RTM-4" value="name" style="ellipse;whiteSpace=wrap;html=1;labelBackgroundColor=none;fillColor=#FAE5C7;strokeColor=#0F8B8D;fontColor=#143642;" vertex="1" parent="1">
          <mxGeometry x="51" y="235" width="70" height="40" as="geometry" />
        </mxCell>
        <mxCell id="Ux4ESB35TesMUiOV8RTM-5" value="street" style="ellipse;whiteSpace=wrap;html=1;labelBackgroundColor=none;fillColor=#FAE5C7;strokeColor=#0F8B8D;fontColor=#143642;" vertex="1" parent="1">
          <mxGeometry x="90" y="170" width="60" height="40" as="geometry" />
        </mxCell>
        <mxCell id="Ux4ESB35TesMUiOV8RTM-6" value="city" style="ellipse;whiteSpace=wrap;html=1;labelBackgroundColor=none;fillColor=#FAE5C7;strokeColor=#0F8B8D;fontColor=#143642;" vertex="1" parent="1">
          <mxGeometry x="180" y="160" width="60" height="40" as="geometry" />
        </mxCell>
        <mxCell id="Ux4ESB35TesMUiOV8RTM-7" value="phoneNumber" style="ellipse;whiteSpace=wrap;html=1;labelBackgroundColor=none;fillColor=#FAE5C7;strokeColor=#0F8B8D;fontColor=#143642;" vertex="1" parent="1">
          <mxGeometry x="250" y="210" width="90" height="35" as="geometry" />
        </mxCell>
        <mxCell id="Ux4ESB35TesMUiOV8RTM-8" value="&lt;font style=&quot;font-size: 18px;&quot;&gt;Instruments&lt;/font&gt;" style="rounded=0;whiteSpace=wrap;html=1;labelBackgroundColor=none;fillColor=#FAE5C7;strokeColor=#0F8B8D;fontColor=#143642;" vertex="1" parent="1">
          <mxGeometry x="630" y="290" width="120" height="50" as="geometry" />
        </mxCell>
        <mxCell id="Ux4ESB35TesMUiOV8RTM-9" value="Name" style="ellipse;whiteSpace=wrap;html=1;labelBackgroundColor=none;fillColor=#FAE5C7;strokeColor=#0F8B8D;fontColor=#143642;" vertex="1" parent="1">
          <mxGeometry x="580" y="230" width="80" height="40" as="geometry" />
        </mxCell>
        <mxCell id="Ux4ESB35TesMUiOV8RTM-10" value="" style="endArrow=none;html=1;rounded=0;labelBackgroundColor=none;strokeColor=#000000;fontColor=default;" edge="1" parent="1">
          <mxGeometry width="50" height="50" relative="1" as="geometry">
            <mxPoint x="595" y="257" as="sourcePoint" />
            <mxPoint x="645" y="257" as="targetPoint" />
          </mxGeometry>
        </mxCell>
        <mxCell id="Ux4ESB35TesMUiOV8RTM-11" value="musical-Key" style="ellipse;whiteSpace=wrap;html=1;labelBackgroundColor=none;fillColor=#FAE5C7;strokeColor=#0F8B8D;fontColor=#143642;" vertex="1" parent="1">
          <mxGeometry x="710" y="230" width="110" height="30" as="geometry" />
        </mxCell>
        <mxCell id="Ux4ESB35TesMUiOV8RTM-12" value="&lt;font style=&quot;font-size: 18px;&quot;&gt;Albums&lt;/font&gt;" style="rounded=0;whiteSpace=wrap;html=1;labelBackgroundColor=none;fillColor=#FAE5C7;strokeColor=#0F8B8D;fontColor=#143642;" vertex="1" parent="1">
          <mxGeometry x="180" y="550" width="120" height="50" as="geometry" />
        </mxCell>
        <mxCell id="Ux4ESB35TesMUiOV8RTM-13" value="title" style="ellipse;whiteSpace=wrap;html=1;labelBackgroundColor=none;fillColor=#FAE5C7;strokeColor=#0F8B8D;fontColor=#143642;" vertex="1" parent="1">
          <mxGeometry x="60" y="590" width="80" height="40" as="geometry" />
        </mxCell>
        <mxCell id="Ux4ESB35TesMUiOV8RTM-14" value="copyright-date" style="ellipse;whiteSpace=wrap;html=1;labelBackgroundColor=none;fillColor=#FAE5C7;strokeColor=#0F8B8D;fontColor=#143642;" vertex="1" parent="1">
          <mxGeometry x="121" y="640" width="100" height="40" as="geometry" />
        </mxCell>
        <mxCell id="Ux4ESB35TesMUiOV8RTM-15" value="id" style="ellipse;whiteSpace=wrap;html=1;labelBackgroundColor=none;fillColor=#FAE5C7;strokeColor=#0F8B8D;fontColor=#143642;" vertex="1" parent="1">
          <mxGeometry x="255" y="640" width="80" height="40" as="geometry" />
        </mxCell>
        <mxCell id="Ux4ESB35TesMUiOV8RTM-16" value="&lt;span style=&quot;font-size: 18px;&quot;&gt;Songs&lt;/span&gt;" style="rounded=0;whiteSpace=wrap;html=1;labelBackgroundColor=none;fillColor=#FAE5C7;strokeColor=#0F8B8D;fontColor=#143642;" vertex="1" parent="1">
          <mxGeometry x="620" y="540" width="120" height="50" as="geometry" />
        </mxCell>
        <mxCell id="Ux4ESB35TesMUiOV8RTM-17" value="title" style="ellipse;whiteSpace=wrap;html=1;labelBackgroundColor=none;fillColor=#FAE5C7;strokeColor=#0F8B8D;fontColor=#143642;" vertex="1" parent="1">
          <mxGeometry x="570" y="640" width="80" height="40" as="geometry" />
        </mxCell>
        <mxCell id="Ux4ESB35TesMUiOV8RTM-18" value="auther" style="ellipse;whiteSpace=wrap;html=1;labelBackgroundColor=none;fillColor=#FAE5C7;strokeColor=#0F8B8D;fontColor=#143642;" vertex="1" parent="1">
          <mxGeometry x="710" y="640" width="80" height="40" as="geometry" />
        </mxCell>
        <mxCell id="Ux4ESB35TesMUiOV8RTM-19" value="" style="endArrow=none;html=1;rounded=0;labelBackgroundColor=none;strokeColor=#A8201A;fontColor=default;" edge="1" parent="1">
          <mxGeometry width="50" height="50" relative="1" as="geometry">
            <mxPoint x="585" y="670" as="sourcePoint" />
            <mxPoint x="635" y="670" as="targetPoint" />
          </mxGeometry>
        </mxCell>
        <mxCell id="Ux4ESB35TesMUiOV8RTM-20" value="" style="endArrow=none;html=1;rounded=0;exitX=0.132;exitY=1.022;exitDx=0;exitDy=0;exitPerimeter=0;entryX=0.5;entryY=0;entryDx=0;entryDy=0;labelBackgroundColor=none;strokeColor=#A8201A;fontColor=default;" edge="1" parent="1" source="Ux4ESB35TesMUiOV8RTM-16" target="Ux4ESB35TesMUiOV8RTM-17">
          <mxGeometry width="50" height="50" relative="1" as="geometry">
            <mxPoint x="470" y="460" as="sourcePoint" />
            <mxPoint x="520" y="410" as="targetPoint" />
          </mxGeometry>
        </mxCell>
        <mxCell id="Ux4ESB35TesMUiOV8RTM-21" value="" style="endArrow=none;html=1;rounded=0;entryX=0.396;entryY=0.022;entryDx=0;entryDy=0;entryPerimeter=0;labelBackgroundColor=none;strokeColor=#A8201A;fontColor=default;" edge="1" parent="1" target="Ux4ESB35TesMUiOV8RTM-18">
          <mxGeometry width="50" height="50" relative="1" as="geometry">
            <mxPoint x="710" y="590" as="sourcePoint" />
            <mxPoint x="740" y="630" as="targetPoint" />
          </mxGeometry>
        </mxCell>
        <mxCell id="Ux4ESB35TesMUiOV8RTM-22" value="" style="endArrow=none;html=1;rounded=0;exitX=0.75;exitY=1;exitDx=0;exitDy=0;entryX=0.5;entryY=0;entryDx=0;entryDy=0;labelBackgroundColor=none;strokeColor=#A8201A;fontColor=default;" edge="1" parent="1" source="Ux4ESB35TesMUiOV8RTM-12" target="Ux4ESB35TesMUiOV8RTM-15">
          <mxGeometry width="50" height="50" relative="1" as="geometry">
            <mxPoint x="713" y="602" as="sourcePoint" />
            <mxPoint x="750" y="640" as="targetPoint" />
          </mxGeometry>
        </mxCell>
        <mxCell id="Ux4ESB35TesMUiOV8RTM-23" value="" style="endArrow=none;html=1;rounded=0;exitX=0.25;exitY=1;exitDx=0;exitDy=0;labelBackgroundColor=none;strokeColor=#A8201A;fontColor=default;" edge="1" parent="1" source="Ux4ESB35TesMUiOV8RTM-12" target="Ux4ESB35TesMUiOV8RTM-14">
          <mxGeometry width="50" height="50" relative="1" as="geometry">
            <mxPoint x="280" y="610" as="sourcePoint" />
            <mxPoint x="305" y="650" as="targetPoint" />
          </mxGeometry>
        </mxCell>
        <mxCell id="Ux4ESB35TesMUiOV8RTM-24" value="" style="endArrow=none;html=1;rounded=0;exitX=0;exitY=0.75;exitDx=0;exitDy=0;entryX=0.954;entryY=0.339;entryDx=0;entryDy=0;entryPerimeter=0;labelBackgroundColor=none;strokeColor=#A8201A;fontColor=default;" edge="1" parent="1" source="Ux4ESB35TesMUiOV8RTM-12" target="Ux4ESB35TesMUiOV8RTM-13">
          <mxGeometry width="50" height="50" relative="1" as="geometry">
            <mxPoint x="220" y="610" as="sourcePoint" />
            <mxPoint x="194" y="651" as="targetPoint" />
          </mxGeometry>
        </mxCell>
        <mxCell id="Ux4ESB35TesMUiOV8RTM-25" value="" style="endArrow=none;html=1;rounded=0;labelBackgroundColor=none;strokeColor=#A8201A;fontColor=default;" edge="1" parent="1">
          <mxGeometry width="50" height="50" relative="1" as="geometry">
            <mxPoint x="270" y="670" as="sourcePoint" />
            <mxPoint x="320" y="670" as="targetPoint" />
          </mxGeometry>
        </mxCell>
        <mxCell id="Ux4ESB35TesMUiOV8RTM-26" value="" style="endArrow=none;html=1;rounded=0;entryX=1;entryY=0.5;entryDx=0;entryDy=0;exitX=0;exitY=0.75;exitDx=0;exitDy=0;labelBackgroundColor=none;strokeColor=#A8201A;fontColor=default;" edge="1" parent="1" source="Ux4ESB35TesMUiOV8RTM-1" target="Ux4ESB35TesMUiOV8RTM-2">
          <mxGeometry width="50" height="50" relative="1" as="geometry">
            <mxPoint x="470" y="460" as="sourcePoint" />
            <mxPoint x="520" y="410" as="targetPoint" />
          </mxGeometry>
        </mxCell>
        <mxCell id="Ux4ESB35TesMUiOV8RTM-27" value="" style="endArrow=none;html=1;rounded=0;entryX=1;entryY=1;entryDx=0;entryDy=0;exitX=0;exitY=0.5;exitDx=0;exitDy=0;labelBackgroundColor=none;strokeColor=#A8201A;fontColor=default;" edge="1" parent="1" source="Ux4ESB35TesMUiOV8RTM-1" target="Ux4ESB35TesMUiOV8RTM-4">
          <mxGeometry width="50" height="50" relative="1" as="geometry">
            <mxPoint x="200" y="338" as="sourcePoint" />
            <mxPoint x="110" y="340" as="targetPoint" />
          </mxGeometry>
        </mxCell>
        <mxCell id="Ux4ESB35TesMUiOV8RTM-28" value="" style="endArrow=none;html=1;rounded=0;exitX=0.079;exitY=-0.022;exitDx=0;exitDy=0;exitPerimeter=0;labelBackgroundColor=none;strokeColor=#A8201A;fontColor=default;" edge="1" parent="1" source="Ux4ESB35TesMUiOV8RTM-1" target="Ux4ESB35TesMUiOV8RTM-3">
          <mxGeometry width="50" height="50" relative="1" as="geometry">
            <mxPoint x="200" y="325" as="sourcePoint" />
            <mxPoint x="121" y="279" as="targetPoint" />
          </mxGeometry>
        </mxCell>
        <mxCell id="Ux4ESB35TesMUiOV8RTM-29" value="" style="endArrow=none;html=1;rounded=0;exitX=0.75;exitY=0;exitDx=0;exitDy=0;entryX=0.5;entryY=1;entryDx=0;entryDy=0;labelBackgroundColor=none;strokeColor=#A8201A;fontColor=default;" edge="1" parent="1" source="Ux4ESB35TesMUiOV8RTM-1" target="Ux4ESB35TesMUiOV8RTM-7">
          <mxGeometry width="50" height="50" relative="1" as="geometry">
            <mxPoint x="209" y="299" as="sourcePoint" />
            <mxPoint x="204" y="270" as="targetPoint" />
          </mxGeometry>
        </mxCell>
        <mxCell id="Ux4ESB35TesMUiOV8RTM-30" value="" style="endArrow=none;html=1;rounded=0;exitX=0.672;exitY=0.1;exitDx=0;exitDy=0;exitPerimeter=0;entryX=0.5;entryY=1;entryDx=0;entryDy=0;labelBackgroundColor=none;strokeColor=#A8201A;fontColor=default;" edge="1" parent="1" source="Ux4ESB35TesMUiOV8RTM-3" target="Ux4ESB35TesMUiOV8RTM-6">
          <mxGeometry width="50" height="50" relative="1" as="geometry">
            <mxPoint x="274" y="297" as="sourcePoint" />
            <mxPoint x="295" y="256" as="targetPoint" />
          </mxGeometry>
        </mxCell>
        <mxCell id="Ux4ESB35TesMUiOV8RTM-31" value="" style="endArrow=none;html=1;rounded=0;exitX=0;exitY=0;exitDx=0;exitDy=0;entryX=1;entryY=1;entryDx=0;entryDy=0;labelBackgroundColor=none;strokeColor=#A8201A;fontColor=default;" edge="1" parent="1" source="Ux4ESB35TesMUiOV8RTM-3" target="Ux4ESB35TesMUiOV8RTM-5">
          <mxGeometry width="50" height="50" relative="1" as="geometry">
            <mxPoint x="210" y="234" as="sourcePoint" />
            <mxPoint x="220" y="210" as="targetPoint" />
          </mxGeometry>
        </mxCell>
        <mxCell id="Ux4ESB35TesMUiOV8RTM-32" value="" style="endArrow=none;html=1;rounded=0;exitX=0.182;exitY=-0.022;exitDx=0;exitDy=0;entryX=0.665;entryY=0.961;entryDx=0;entryDy=0;entryPerimeter=0;exitPerimeter=0;labelBackgroundColor=none;strokeColor=#A8201A;fontColor=default;" edge="1" parent="1" source="Ux4ESB35TesMUiOV8RTM-8" target="Ux4ESB35TesMUiOV8RTM-9">
          <mxGeometry width="50" height="50" relative="1" as="geometry">
            <mxPoint x="290" y="300" as="sourcePoint" />
            <mxPoint x="305" y="255" as="targetPoint" />
          </mxGeometry>
        </mxCell>
        <mxCell id="Ux4ESB35TesMUiOV8RTM-33" value="" style="endArrow=none;html=1;rounded=0;entryX=0.401;entryY=1.074;entryDx=0;entryDy=0;entryPerimeter=0;exitX=0.871;exitY=0.049;exitDx=0;exitDy=0;exitPerimeter=0;labelBackgroundColor=none;strokeColor=#A8201A;fontColor=default;" edge="1" parent="1" source="Ux4ESB35TesMUiOV8RTM-8" target="Ux4ESB35TesMUiOV8RTM-11">
          <mxGeometry width="50" height="50" relative="1" as="geometry">
            <mxPoint x="730" y="287" as="sourcePoint" />
            <mxPoint x="643" y="278" as="targetPoint" />
          </mxGeometry>
        </mxCell>
        <mxCell id="Ux4ESB35TesMUiOV8RTM-34" value="Play" style="rhombus;whiteSpace=wrap;html=1;labelBackgroundColor=none;fillColor=#FAE5C7;strokeColor=#0F8B8D;fontColor=#143642;" vertex="1" parent="1">
          <mxGeometry x="430" y="280" width="80" height="60" as="geometry" />
        </mxCell>
        <mxCell id="Ux4ESB35TesMUiOV8RTM-35" value="" style="endArrow=none;html=1;rounded=0;exitX=1;exitY=0.5;exitDx=0;exitDy=0;entryX=0;entryY=0.5;entryDx=0;entryDy=0;labelBackgroundColor=none;strokeColor=#A8201A;fontColor=default;" edge="1" parent="1" source="Ux4ESB35TesMUiOV8RTM-1" target="Ux4ESB35TesMUiOV8RTM-34">
          <mxGeometry width="50" height="50" relative="1" as="geometry">
            <mxPoint x="470" y="460" as="sourcePoint" />
            <mxPoint x="520" y="410" as="targetPoint" />
          </mxGeometry>
        </mxCell>
        <mxCell id="Ux4ESB35TesMUiOV8RTM-36" value="" style="endArrow=none;html=1;rounded=0;exitX=1;exitY=0.5;exitDx=0;exitDy=0;entryX=0;entryY=0.5;entryDx=0;entryDy=0;labelBackgroundColor=none;strokeColor=#A8201A;fontColor=default;" edge="1" parent="1" source="Ux4ESB35TesMUiOV8RTM-34" target="Ux4ESB35TesMUiOV8RTM-8">
          <mxGeometry width="50" height="50" relative="1" as="geometry">
            <mxPoint x="320" y="325" as="sourcePoint" />
            <mxPoint x="440" y="320" as="targetPoint" />
          </mxGeometry>
        </mxCell>
        <mxCell id="Ux4ESB35TesMUiOV8RTM-37" value="m" style="text;html=1;align=center;verticalAlign=middle;resizable=0;points=[];autosize=1;strokeColor=none;fillColor=none;labelBackgroundColor=none;fontColor=#143642;" vertex="1" parent="1">
          <mxGeometry x="365" y="288" width="30" height="30" as="geometry" />
        </mxCell>
        <mxCell id="Ux4ESB35TesMUiOV8RTM-38" value="m" style="text;html=1;align=center;verticalAlign=middle;resizable=0;points=[];autosize=1;strokeColor=none;fillColor=none;labelBackgroundColor=none;fontColor=#143642;" vertex="1" parent="1">
          <mxGeometry x="560" y="288" width="30" height="30" as="geometry" />
        </mxCell>
        <mxCell id="Ux4ESB35TesMUiOV8RTM-39" value="Perform" style="rhombus;whiteSpace=wrap;html=1;direction=west;rotation=30;labelBackgroundColor=none;fillColor=#FAE5C7;strokeColor=#0F8B8D;fontColor=#143642;" vertex="1" parent="1">
          <mxGeometry x="430" y="410" width="80" height="60" as="geometry" />
        </mxCell>
        <mxCell id="Ux4ESB35TesMUiOV8RTM-40" value="" style="endArrow=none;html=1;rounded=0;entryX=1;entryY=1;entryDx=0;entryDy=0;exitX=1;exitY=0.5;exitDx=0;exitDy=0;labelBackgroundColor=none;strokeColor=#A8201A;fontColor=default;" edge="1" parent="1" source="Ux4ESB35TesMUiOV8RTM-39" target="Ux4ESB35TesMUiOV8RTM-1">
          <mxGeometry width="50" height="50" relative="1" as="geometry">
            <mxPoint x="470" y="460" as="sourcePoint" />
            <mxPoint x="520" y="410" as="targetPoint" />
          </mxGeometry>
        </mxCell>
        <mxCell id="Ux4ESB35TesMUiOV8RTM-41" value="" style="endArrow=none;html=1;rounded=0;entryX=0;entryY=0;entryDx=0;entryDy=0;exitX=0;exitY=0.5;exitDx=0;exitDy=0;labelBackgroundColor=none;strokeColor=#A8201A;fontColor=default;" edge="1" parent="1" source="Ux4ESB35TesMUiOV8RTM-39" target="Ux4ESB35TesMUiOV8RTM-16">
          <mxGeometry width="50" height="50" relative="1" as="geometry">
            <mxPoint x="470" y="460" as="sourcePoint" />
            <mxPoint x="520" y="410" as="targetPoint" />
          </mxGeometry>
        </mxCell>
        <mxCell id="Ux4ESB35TesMUiOV8RTM-42" value="m" style="text;html=1;align=center;verticalAlign=middle;resizable=0;points=[];autosize=1;strokeColor=none;fillColor=none;labelBackgroundColor=none;fontColor=#143642;" vertex="1" parent="1">
          <mxGeometry x="385" y="368" width="30" height="30" as="geometry" />
        </mxCell>
        <mxCell id="Ux4ESB35TesMUiOV8RTM-43" value="m" style="text;html=1;align=center;verticalAlign=middle;resizable=0;points=[];autosize=1;strokeColor=none;fillColor=none;labelBackgroundColor=none;fontColor=#143642;" vertex="1" parent="1">
          <mxGeometry x="560" y="470" width="30" height="30" as="geometry" />
        </mxCell>
        <mxCell id="Ux4ESB35TesMUiOV8RTM-44" value="Has" style="rhombus;whiteSpace=wrap;html=1;direction=west;rotation=0;labelBackgroundColor=none;fillColor=#FAE5C7;strokeColor=#0F8B8D;fontColor=#143642;" vertex="1" parent="1">
          <mxGeometry x="420" y="545" width="80" height="60" as="geometry" />
        </mxCell>
        <mxCell id="Ux4ESB35TesMUiOV8RTM-45" value="" style="endArrow=none;html=1;rounded=0;exitX=1;exitY=0.5;exitDx=0;exitDy=0;labelBackgroundColor=none;strokeColor=#A8201A;fontColor=default;" edge="1" parent="1" source="Ux4ESB35TesMUiOV8RTM-12" target="Ux4ESB35TesMUiOV8RTM-44">
          <mxGeometry width="50" height="50" relative="1" as="geometry">
            <mxPoint x="470" y="460" as="sourcePoint" />
            <mxPoint x="520" y="410" as="targetPoint" />
          </mxGeometry>
        </mxCell>
        <mxCell id="Ux4ESB35TesMUiOV8RTM-46" value="" style="endArrow=none;html=1;rounded=0;exitX=0;exitY=0.5;exitDx=0;exitDy=0;entryX=0;entryY=0.75;entryDx=0;entryDy=0;labelBackgroundColor=none;strokeColor=#A8201A;fontColor=default;" edge="1" parent="1" source="Ux4ESB35TesMUiOV8RTM-44" target="Ux4ESB35TesMUiOV8RTM-16">
          <mxGeometry width="50" height="50" relative="1" as="geometry">
            <mxPoint x="310" y="585" as="sourcePoint" />
            <mxPoint x="430" y="585" as="targetPoint" />
          </mxGeometry>
        </mxCell>
        <mxCell id="Ux4ESB35TesMUiOV8RTM-47" value="1" style="text;html=1;align=center;verticalAlign=middle;resizable=0;points=[];autosize=1;strokeColor=none;fillColor=none;labelBackgroundColor=none;fontColor=#143642;" vertex="1" parent="1">
          <mxGeometry x="355" y="538" width="30" height="30" as="geometry" />
        </mxCell>
        <mxCell id="Ux4ESB35TesMUiOV8RTM-48" value="m" style="text;html=1;align=center;verticalAlign=middle;resizable=0;points=[];autosize=1;strokeColor=none;fillColor=none;labelBackgroundColor=none;fontColor=#143642;" vertex="1" parent="1">
          <mxGeometry x="555" y="548" width="30" height="30" as="geometry" />
        </mxCell>
        <mxCell id="Ux4ESB35TesMUiOV8RTM-49" value="Produce" style="rhombus;whiteSpace=wrap;html=1;labelBackgroundColor=none;fillColor=#FAE5C7;strokeColor=#0F8B8D;fontColor=#143642;" vertex="1" parent="1">
          <mxGeometry x="205" y="430" width="75" height="60" as="geometry" />
        </mxCell>
        <mxCell id="Ux4ESB35TesMUiOV8RTM-50" value="" style="endArrow=none;html=1;rounded=0;entryX=0.5;entryY=1;entryDx=0;entryDy=0;labelBackgroundColor=none;strokeColor=#A8201A;fontColor=default;" edge="1" parent="1" source="Ux4ESB35TesMUiOV8RTM-49" target="Ux4ESB35TesMUiOV8RTM-1">
          <mxGeometry width="50" height="50" relative="1" as="geometry">
            <mxPoint x="470" y="460" as="sourcePoint" />
            <mxPoint x="520" y="410" as="targetPoint" />
          </mxGeometry>
        </mxCell>
        <mxCell id="Ux4ESB35TesMUiOV8RTM-51" value="" style="endArrow=none;html=1;rounded=0;entryX=0.5;entryY=1;entryDx=0;entryDy=0;exitX=0.5;exitY=0;exitDx=0;exitDy=0;labelBackgroundColor=none;strokeColor=#A8201A;fontColor=default;" edge="1" parent="1" source="Ux4ESB35TesMUiOV8RTM-12" target="Ux4ESB35TesMUiOV8RTM-49">
          <mxGeometry width="50" height="50" relative="1" as="geometry">
            <mxPoint x="254" y="441" as="sourcePoint" />
            <mxPoint x="260" y="350" as="targetPoint" />
          </mxGeometry>
        </mxCell>
        <mxCell id="Ux4ESB35TesMUiOV8RTM-52" value="1" style="text;html=1;align=center;verticalAlign=middle;resizable=0;points=[];autosize=1;strokeColor=none;fillColor=none;labelBackgroundColor=none;fontColor=#143642;" vertex="1" parent="1">
          <mxGeometry x="215" y="368" width="30" height="30" as="geometry" />
        </mxCell>
        <mxCell id="Ux4ESB35TesMUiOV8RTM-53" value="m" style="text;html=1;align=center;verticalAlign=middle;resizable=0;points=[];autosize=1;strokeColor=none;fillColor=none;labelBackgroundColor=none;fontColor=#143642;" vertex="1" parent="1">
          <mxGeometry x="205" y="508" width="30" height="30" as="geometry" />
        </mxCell>
        <mxCell id="Ux4ESB35TesMUiOV8RTM-59" value="" style="endArrow=none;html=1;rounded=0;" edge="1" parent="1">
          <mxGeometry width="50" height="50" relative="1" as="geometry">
            <mxPoint x="45" y="340" as="sourcePoint" />
            <mxPoint x="85" y="340" as="targetPoint" />
          </mxGeometry>
        </mxCell>
        <mxCell id="Ux4ESB35TesMUiOV8RTM-60" value="" style="endArrow=none;html=1;rounded=0;strokeColor=#A8201A;fontColor=#143642;fillColor=#FAE5C7;" edge="1" parent="1">
          <mxGeometry width="50" height="50" relative="1" as="geometry">
            <mxPoint x="250" y="550" as="sourcePoint" />
            <mxPoint x="250" y="480" as="targetPoint" />
          </mxGeometry>
        </mxCell>
        <mxCell id="Ux4ESB35TesMUiOV8RTM-61" value="" style="endArrow=none;html=1;rounded=0;exitX=0.094;exitY=0.418;exitDx=0;exitDy=0;labelBackgroundColor=none;strokeColor=#A8201A;fontColor=default;exitPerimeter=0;entryX=0;entryY=0.25;entryDx=0;entryDy=0;" edge="1" parent="1" source="Ux4ESB35TesMUiOV8RTM-39" target="Ux4ESB35TesMUiOV8RTM-16">
          <mxGeometry width="50" height="50" relative="1" as="geometry">
            <mxPoint x="515" y="470" as="sourcePoint" />
            <mxPoint x="630" y="550" as="targetPoint" />
          </mxGeometry>
        </mxCell>
        <mxCell id="Ux4ESB35TesMUiOV8RTM-62" value="" style="endArrow=none;html=1;rounded=0;labelBackgroundColor=none;strokeColor=#A8201A;fontColor=default;" edge="1" parent="1">
          <mxGeometry width="50" height="50" relative="1" as="geometry">
            <mxPoint x="490" y="580" as="sourcePoint" />
            <mxPoint x="620" y="580" as="targetPoint" />
          </mxGeometry>
        </mxCell>
        <mxCell id="91VecGU5DOZqS7eXm5qI-1" value="&lt;font style=&quot;font-size: 24px;&quot;&gt;2- Musicana&lt;/font&gt;" style="text;html=1;align=center;verticalAlign=middle;resizable=0;points=[];autosize=1;strokeColor=none;fillColor=none;fontColor=#143642;" vertex="1" parent="1">
          <mxGeometry x="15" y="13" width="150" height="40" as="geometry" />
        </mxCell>
      </root>
    </mxGraphModel>
  </diagram>
  <diagram id="11tLU3LQRRdPN58BnV1M" name="Real estate">
    <mxGraphModel dx="1280" dy="629" grid="1" gridSize="10" guides="1" tooltips="1" connect="1" arrows="1" fold="1" page="1" pageScale="1" pageWidth="850" pageHeight="1100" math="0" shadow="0">
      <root>
        <mxCell id="0" />
        <mxCell id="1" parent="0" />
        <mxCell id="HtsRs0g25Qp1Lwj930Z--1" value="&lt;font style=&quot;font-size: 18px;&quot;&gt;Sales-Offices&lt;/font&gt;" style="rounded=0;whiteSpace=wrap;html=1;labelBackgroundColor=none;fillColor=#FAE5C7;strokeColor=#0F8B8D;fontColor=#143642;" vertex="1" parent="1">
          <mxGeometry x="110" y="270" width="120" height="50" as="geometry" />
        </mxCell>
        <mxCell id="HtsRs0g25Qp1Lwj930Z--2" value="office-number" style="ellipse;whiteSpace=wrap;html=1;labelBackgroundColor=none;fillColor=#FAE5C7;strokeColor=#0F8B8D;fontColor=#143642;" vertex="1" parent="1">
          <mxGeometry x="20" y="210" width="80" height="40" as="geometry" />
        </mxCell>
        <mxCell id="HtsRs0g25Qp1Lwj930Z--3" value="Locations" style="ellipse;whiteSpace=wrap;html=1;labelBackgroundColor=none;fillColor=#FAE5C7;strokeColor=#0F8B8D;fontColor=#143642;" vertex="1" parent="1">
          <mxGeometry x="140" y="190" width="80" height="40" as="geometry" />
        </mxCell>
        <mxCell id="HtsRs0g25Qp1Lwj930Z--4" value="&lt;font style=&quot;font-size: 18px;&quot;&gt;Empolyees&lt;/font&gt;" style="rounded=0;whiteSpace=wrap;html=1;labelBackgroundColor=none;fillColor=#FAE5C7;strokeColor=#0F8B8D;fontColor=#143642;" vertex="1" parent="1">
          <mxGeometry x="560" y="270" width="120" height="50" as="geometry" />
        </mxCell>
        <mxCell id="HtsRs0g25Qp1Lwj930Z--5" value="id" style="ellipse;whiteSpace=wrap;html=1;labelBackgroundColor=none;fillColor=#FAE5C7;strokeColor=#0F8B8D;fontColor=#143642;" vertex="1" parent="1">
          <mxGeometry x="530" y="190" width="70" height="40" as="geometry" />
        </mxCell>
        <mxCell id="HtsRs0g25Qp1Lwj930Z--6" value="name" style="ellipse;whiteSpace=wrap;html=1;labelBackgroundColor=none;fillColor=#FAE5C7;strokeColor=#0F8B8D;fontColor=#143642;" vertex="1" parent="1">
          <mxGeometry x="640" y="190" width="70" height="40" as="geometry" />
        </mxCell>
        <mxCell id="HtsRs0g25Qp1Lwj930Z--7" value="&lt;font style=&quot;font-size: 18px;&quot;&gt;Properties&lt;/font&gt;" style="rounded=0;whiteSpace=wrap;html=1;labelBackgroundColor=none;fillColor=#FAE5C7;strokeColor=#0F8B8D;fontColor=#143642;" vertex="1" parent="1">
          <mxGeometry x="110" y="530" width="120" height="50" as="geometry" />
        </mxCell>
        <mxCell id="HtsRs0g25Qp1Lwj930Z--8" value="id" style="ellipse;whiteSpace=wrap;html=1;labelBackgroundColor=none;fillColor=#FAE5C7;strokeColor=#0F8B8D;fontColor=#143642;" vertex="1" parent="1">
          <mxGeometry x="20" y="600" width="70" height="40" as="geometry" />
        </mxCell>
        <mxCell id="HtsRs0g25Qp1Lwj930Z--9" value="location" style="ellipse;whiteSpace=wrap;html=1;labelBackgroundColor=none;fillColor=#FAE5C7;strokeColor=#0F8B8D;fontColor=#143642;" vertex="1" parent="1">
          <mxGeometry x="120" y="630" width="60" height="30" as="geometry" />
        </mxCell>
        <mxCell id="HtsRs0g25Qp1Lwj930Z--10" value="address" style="ellipse;whiteSpace=wrap;html=1;labelBackgroundColor=none;fillColor=#FAE5C7;strokeColor=#0F8B8D;fontColor=#143642;" vertex="1" parent="1">
          <mxGeometry x="50" y="670" width="60" height="30" as="geometry" />
        </mxCell>
        <mxCell id="HtsRs0g25Qp1Lwj930Z--11" value="city" style="ellipse;whiteSpace=wrap;html=1;labelBackgroundColor=none;fillColor=#FAE5C7;strokeColor=#0F8B8D;fontColor=#143642;" vertex="1" parent="1">
          <mxGeometry x="120" y="700" width="60" height="30" as="geometry" />
        </mxCell>
        <mxCell id="HtsRs0g25Qp1Lwj930Z--12" value="state" style="ellipse;whiteSpace=wrap;html=1;labelBackgroundColor=none;fillColor=#FAE5C7;strokeColor=#0F8B8D;fontColor=#143642;" vertex="1" parent="1">
          <mxGeometry x="190" y="680" width="60" height="30" as="geometry" />
        </mxCell>
        <mxCell id="HtsRs0g25Qp1Lwj930Z--13" value="Zip-Code" style="ellipse;whiteSpace=wrap;html=1;labelBackgroundColor=none;fillColor=#FAE5C7;strokeColor=#0F8B8D;fontColor=#143642;" vertex="1" parent="1">
          <mxGeometry x="230" y="640" width="60" height="30" as="geometry" />
        </mxCell>
        <mxCell id="HtsRs0g25Qp1Lwj930Z--14" value="&lt;font style=&quot;font-size: 18px;&quot;&gt;Owners&lt;/font&gt;" style="rounded=0;whiteSpace=wrap;html=1;labelBackgroundColor=none;fillColor=#FAE5C7;strokeColor=#0F8B8D;fontColor=#143642;" vertex="1" parent="1">
          <mxGeometry x="560" y="530" width="120" height="50" as="geometry" />
        </mxCell>
        <mxCell id="HtsRs0g25Qp1Lwj930Z--15" value="Owner-id" style="ellipse;whiteSpace=wrap;html=1;labelBackgroundColor=none;fillColor=#FAE5C7;strokeColor=#0F8B8D;fontColor=#143642;" vertex="1" parent="1">
          <mxGeometry x="510" y="640" width="80" height="40" as="geometry" />
        </mxCell>
        <mxCell id="HtsRs0g25Qp1Lwj930Z--16" value="name" style="ellipse;whiteSpace=wrap;html=1;labelBackgroundColor=none;fillColor=#FAE5C7;strokeColor=#0F8B8D;fontColor=#143642;" vertex="1" parent="1">
          <mxGeometry x="630" y="640" width="60" height="30" as="geometry" />
        </mxCell>
        <mxCell id="HtsRs0g25Qp1Lwj930Z--17" value="Work" style="rhombus;whiteSpace=wrap;html=1;labelBackgroundColor=none;fillColor=#FAE5C7;strokeColor=#0F8B8D;fontColor=#143642;" vertex="1" parent="1">
          <mxGeometry x="360" y="240" width="80" height="60" as="geometry" />
        </mxCell>
        <mxCell id="HtsRs0g25Qp1Lwj930Z--18" value="" style="endArrow=none;html=1;rounded=0;exitX=0.416;exitY=1.004;exitDx=0;exitDy=0;exitPerimeter=0;entryX=0.5;entryY=0;entryDx=0;entryDy=0;labelBackgroundColor=none;strokeColor=#A8201A;fontColor=default;" edge="1" parent="1" source="HtsRs0g25Qp1Lwj930Z--7" target="HtsRs0g25Qp1Lwj930Z--9">
          <mxGeometry width="50" height="50" relative="1" as="geometry">
            <mxPoint x="400" y="470" as="sourcePoint" />
            <mxPoint x="160" y="630" as="targetPoint" />
          </mxGeometry>
        </mxCell>
        <mxCell id="HtsRs0g25Qp1Lwj930Z--19" value="" style="endArrow=none;html=1;rounded=0;exitX=0.706;exitY=0.059;exitDx=0;exitDy=0;exitPerimeter=0;entryX=0;entryY=1;entryDx=0;entryDy=0;labelBackgroundColor=none;strokeColor=#A8201A;fontColor=default;" edge="1" parent="1" source="HtsRs0g25Qp1Lwj930Z--10" target="HtsRs0g25Qp1Lwj930Z--9">
          <mxGeometry width="50" height="50" relative="1" as="geometry">
            <mxPoint x="170" y="590" as="sourcePoint" />
            <mxPoint x="167" y="637" as="targetPoint" />
          </mxGeometry>
        </mxCell>
        <mxCell id="HtsRs0g25Qp1Lwj930Z--20" value="" style="endArrow=none;html=1;rounded=0;exitX=0.5;exitY=0;exitDx=0;exitDy=0;entryX=0.5;entryY=1;entryDx=0;entryDy=0;labelBackgroundColor=none;strokeColor=#A8201A;fontColor=default;" edge="1" parent="1" source="HtsRs0g25Qp1Lwj930Z--11" target="HtsRs0g25Qp1Lwj930Z--9">
          <mxGeometry width="50" height="50" relative="1" as="geometry">
            <mxPoint x="170" y="590" as="sourcePoint" />
            <mxPoint x="160" y="640" as="targetPoint" />
          </mxGeometry>
        </mxCell>
        <mxCell id="HtsRs0g25Qp1Lwj930Z--21" value="" style="endArrow=none;html=1;rounded=0;exitX=0;exitY=0;exitDx=0;exitDy=0;entryX=1;entryY=1;entryDx=0;entryDy=0;labelBackgroundColor=none;strokeColor=#A8201A;fontColor=default;" edge="1" parent="1" source="HtsRs0g25Qp1Lwj930Z--12" target="HtsRs0g25Qp1Lwj930Z--9">
          <mxGeometry width="50" height="50" relative="1" as="geometry">
            <mxPoint x="160" y="710" as="sourcePoint" />
            <mxPoint x="160" y="670" as="targetPoint" />
          </mxGeometry>
        </mxCell>
        <mxCell id="HtsRs0g25Qp1Lwj930Z--22" value="" style="endArrow=none;html=1;rounded=0;exitX=0;exitY=0.5;exitDx=0;exitDy=0;entryX=1;entryY=0.5;entryDx=0;entryDy=0;labelBackgroundColor=none;strokeColor=#A8201A;fontColor=default;" edge="1" parent="1" source="HtsRs0g25Qp1Lwj930Z--13" target="HtsRs0g25Qp1Lwj930Z--9">
          <mxGeometry width="50" height="50" relative="1" as="geometry">
            <mxPoint x="209" y="694" as="sourcePoint" />
            <mxPoint x="181" y="666" as="targetPoint" />
          </mxGeometry>
        </mxCell>
        <mxCell id="HtsRs0g25Qp1Lwj930Z--23" value="" style="endArrow=none;html=1;rounded=0;exitX=0;exitY=1;exitDx=0;exitDy=0;entryX=0.746;entryY=0.081;entryDx=0;entryDy=0;entryPerimeter=0;labelBackgroundColor=none;strokeColor=#A8201A;fontColor=default;" edge="1" parent="1" source="HtsRs0g25Qp1Lwj930Z--7" target="HtsRs0g25Qp1Lwj930Z--8">
          <mxGeometry width="50" height="50" relative="1" as="geometry">
            <mxPoint x="240" y="665" as="sourcePoint" />
            <mxPoint x="190" y="655" as="targetPoint" />
          </mxGeometry>
        </mxCell>
        <mxCell id="HtsRs0g25Qp1Lwj930Z--24" value="" style="endArrow=none;html=1;rounded=0;exitX=0.162;exitY=0.987;exitDx=0;exitDy=0;entryX=0.631;entryY=-0.007;entryDx=0;entryDy=0;entryPerimeter=0;exitPerimeter=0;labelBackgroundColor=none;strokeColor=#A8201A;fontColor=default;" edge="1" parent="1" source="HtsRs0g25Qp1Lwj930Z--14" target="HtsRs0g25Qp1Lwj930Z--15">
          <mxGeometry width="50" height="50" relative="1" as="geometry">
            <mxPoint x="120" y="590" as="sourcePoint" />
            <mxPoint x="75" y="612" as="targetPoint" />
          </mxGeometry>
        </mxCell>
        <mxCell id="HtsRs0g25Qp1Lwj930Z--25" value="" style="endArrow=none;html=1;rounded=0;exitX=0.75;exitY=1;exitDx=0;exitDy=0;entryX=0.5;entryY=0;entryDx=0;entryDy=0;labelBackgroundColor=none;strokeColor=#A8201A;fontColor=default;" edge="1" parent="1" source="HtsRs0g25Qp1Lwj930Z--14" target="HtsRs0g25Qp1Lwj930Z--16">
          <mxGeometry width="50" height="50" relative="1" as="geometry">
            <mxPoint x="589" y="589" as="sourcePoint" />
            <mxPoint x="578" y="646" as="targetPoint" />
          </mxGeometry>
        </mxCell>
        <mxCell id="HtsRs0g25Qp1Lwj930Z--26" value="" style="endArrow=none;html=1;rounded=0;entryX=0.5;entryY=1;entryDx=0;entryDy=0;exitX=0.25;exitY=0;exitDx=0;exitDy=0;labelBackgroundColor=none;strokeColor=#A8201A;fontColor=default;" edge="1" parent="1" source="HtsRs0g25Qp1Lwj930Z--4" target="HtsRs0g25Qp1Lwj930Z--5">
          <mxGeometry width="50" height="50" relative="1" as="geometry">
            <mxPoint x="400" y="470" as="sourcePoint" />
            <mxPoint x="450" y="420" as="targetPoint" />
          </mxGeometry>
        </mxCell>
        <mxCell id="HtsRs0g25Qp1Lwj930Z--27" value="" style="endArrow=none;html=1;rounded=0;entryX=0.367;entryY=1;entryDx=0;entryDy=0;exitX=0.75;exitY=0;exitDx=0;exitDy=0;entryPerimeter=0;labelBackgroundColor=none;strokeColor=#A8201A;fontColor=default;" edge="1" parent="1" source="HtsRs0g25Qp1Lwj930Z--4" target="HtsRs0g25Qp1Lwj930Z--6">
          <mxGeometry width="50" height="50" relative="1" as="geometry">
            <mxPoint x="600" y="280" as="sourcePoint" />
            <mxPoint x="575" y="240" as="targetPoint" />
          </mxGeometry>
        </mxCell>
        <mxCell id="HtsRs0g25Qp1Lwj930Z--28" value="" style="endArrow=none;html=1;rounded=0;entryX=0.5;entryY=1;entryDx=0;entryDy=0;exitX=0.623;exitY=0.053;exitDx=0;exitDy=0;exitPerimeter=0;labelBackgroundColor=none;strokeColor=#A8201A;fontColor=default;" edge="1" parent="1" source="HtsRs0g25Qp1Lwj930Z--1" target="HtsRs0g25Qp1Lwj930Z--3">
          <mxGeometry width="50" height="50" relative="1" as="geometry">
            <mxPoint x="400" y="470" as="sourcePoint" />
            <mxPoint x="450" y="420" as="targetPoint" />
          </mxGeometry>
        </mxCell>
        <mxCell id="HtsRs0g25Qp1Lwj930Z--29" value="" style="endArrow=none;html=1;rounded=0;exitX=0;exitY=0;exitDx=0;exitDy=0;labelBackgroundColor=none;strokeColor=#A8201A;fontColor=default;" edge="1" parent="1" source="HtsRs0g25Qp1Lwj930Z--1" target="HtsRs0g25Qp1Lwj930Z--2">
          <mxGeometry width="50" height="50" relative="1" as="geometry">
            <mxPoint x="195" y="283" as="sourcePoint" />
            <mxPoint x="190" y="240" as="targetPoint" />
          </mxGeometry>
        </mxCell>
        <mxCell id="HtsRs0g25Qp1Lwj930Z--30" value="manage" style="rhombus;whiteSpace=wrap;html=1;labelBackgroundColor=none;fillColor=#FAE5C7;strokeColor=#0F8B8D;fontColor=#143642;" vertex="1" parent="1">
          <mxGeometry x="360" y="330" width="80" height="60" as="geometry" />
        </mxCell>
        <mxCell id="HtsRs0g25Qp1Lwj930Z--31" value="" style="endArrow=none;html=1;rounded=0;entryX=1;entryY=0.25;entryDx=0;entryDy=0;exitX=0;exitY=0.5;exitDx=0;exitDy=0;labelBackgroundColor=none;strokeColor=#A8201A;fontColor=default;" edge="1" parent="1" source="HtsRs0g25Qp1Lwj930Z--17" target="HtsRs0g25Qp1Lwj930Z--1">
          <mxGeometry width="50" height="50" relative="1" as="geometry">
            <mxPoint x="400" y="470" as="sourcePoint" />
            <mxPoint x="450" y="420" as="targetPoint" />
          </mxGeometry>
        </mxCell>
        <mxCell id="HtsRs0g25Qp1Lwj930Z--32" value="" style="endArrow=none;html=1;rounded=0;exitX=0;exitY=0.5;exitDx=0;exitDy=0;entryX=1;entryY=0.5;entryDx=0;entryDy=0;labelBackgroundColor=none;strokeColor=#A8201A;fontColor=default;" edge="1" parent="1" source="HtsRs0g25Qp1Lwj930Z--4" target="HtsRs0g25Qp1Lwj930Z--17">
          <mxGeometry width="50" height="50" relative="1" as="geometry">
            <mxPoint x="550" y="290" as="sourcePoint" />
            <mxPoint x="240" y="293" as="targetPoint" />
          </mxGeometry>
        </mxCell>
        <mxCell id="HtsRs0g25Qp1Lwj930Z--33" value="" style="endArrow=none;html=1;rounded=0;entryX=1;entryY=0.75;entryDx=0;entryDy=0;exitX=0;exitY=0.5;exitDx=0;exitDy=0;labelBackgroundColor=none;strokeColor=#A8201A;fontColor=default;" edge="1" parent="1" source="HtsRs0g25Qp1Lwj930Z--30" target="HtsRs0g25Qp1Lwj930Z--1">
          <mxGeometry width="50" height="50" relative="1" as="geometry">
            <mxPoint x="370" y="280" as="sourcePoint" />
            <mxPoint x="240" y="293" as="targetPoint" />
          </mxGeometry>
        </mxCell>
        <mxCell id="HtsRs0g25Qp1Lwj930Z--34" value="" style="endArrow=none;html=1;rounded=0;exitX=0.899;exitY=0.437;exitDx=0;exitDy=0;exitPerimeter=0;labelBackgroundColor=none;strokeColor=#A8201A;fontColor=default;" edge="1" parent="1" source="HtsRs0g25Qp1Lwj930Z--30" target="HtsRs0g25Qp1Lwj930Z--4">
          <mxGeometry width="50" height="50" relative="1" as="geometry">
            <mxPoint x="370" y="370" as="sourcePoint" />
            <mxPoint x="240" y="318" as="targetPoint" />
          </mxGeometry>
        </mxCell>
        <mxCell id="HtsRs0g25Qp1Lwj930Z--35" value="1" style="text;html=1;align=center;verticalAlign=middle;resizable=0;points=[];autosize=1;strokeColor=none;fillColor=none;labelBackgroundColor=none;fontColor=#143642;" vertex="1" parent="1">
          <mxGeometry x="285" y="248" width="30" height="30" as="geometry" />
        </mxCell>
        <mxCell id="HtsRs0g25Qp1Lwj930Z--36" value="m" style="text;html=1;align=center;verticalAlign=middle;resizable=0;points=[];autosize=1;strokeColor=none;fillColor=none;labelBackgroundColor=none;fontColor=#143642;" vertex="1" parent="1">
          <mxGeometry x="495" y="258" width="30" height="30" as="geometry" />
        </mxCell>
        <mxCell id="HtsRs0g25Qp1Lwj930Z--37" value="1" style="text;html=1;align=center;verticalAlign=middle;resizable=0;points=[];autosize=1;strokeColor=none;fillColor=none;labelBackgroundColor=none;fontColor=#143642;" vertex="1" parent="1">
          <mxGeometry x="295" y="308" width="30" height="30" as="geometry" />
        </mxCell>
        <mxCell id="HtsRs0g25Qp1Lwj930Z--38" value="1" style="text;html=1;align=center;verticalAlign=middle;resizable=0;points=[];autosize=1;strokeColor=none;fillColor=none;labelBackgroundColor=none;fontColor=#143642;" vertex="1" parent="1">
          <mxGeometry x="465" y="318" width="30" height="30" as="geometry" />
        </mxCell>
        <mxCell id="HtsRs0g25Qp1Lwj930Z--39" value="Owned-by" style="rhombus;whiteSpace=wrap;html=1;labelBackgroundColor=none;fillColor=#FAE5C7;strokeColor=#0F8B8D;fontColor=#143642;" vertex="1" parent="1">
          <mxGeometry x="370" y="525" width="80" height="60" as="geometry" />
        </mxCell>
        <mxCell id="HtsRs0g25Qp1Lwj930Z--40" value="" style="endArrow=none;html=1;rounded=0;exitX=1;exitY=0.5;exitDx=0;exitDy=0;labelBackgroundColor=none;strokeColor=#A8201A;fontColor=default;" edge="1" parent="1" source="HtsRs0g25Qp1Lwj930Z--7" target="HtsRs0g25Qp1Lwj930Z--39">
          <mxGeometry width="50" height="50" relative="1" as="geometry">
            <mxPoint x="400" y="470" as="sourcePoint" />
            <mxPoint x="450" y="420" as="targetPoint" />
          </mxGeometry>
        </mxCell>
        <mxCell id="HtsRs0g25Qp1Lwj930Z--41" value="" style="endArrow=none;html=1;rounded=0;exitX=1;exitY=0.5;exitDx=0;exitDy=0;labelBackgroundColor=none;strokeColor=#A8201A;fontColor=default;" edge="1" parent="1" source="HtsRs0g25Qp1Lwj930Z--39" target="HtsRs0g25Qp1Lwj930Z--14">
          <mxGeometry width="50" height="50" relative="1" as="geometry">
            <mxPoint x="240" y="565" as="sourcePoint" />
            <mxPoint x="380" y="565" as="targetPoint" />
          </mxGeometry>
        </mxCell>
        <mxCell id="HtsRs0g25Qp1Lwj930Z--42" value="m" style="text;html=1;align=center;verticalAlign=middle;resizable=0;points=[];autosize=1;strokeColor=none;fillColor=none;labelBackgroundColor=none;fontColor=#143642;" vertex="1" parent="1">
          <mxGeometry x="295" y="518" width="30" height="30" as="geometry" />
        </mxCell>
        <mxCell id="HtsRs0g25Qp1Lwj930Z--43" value="m" style="text;html=1;align=center;verticalAlign=middle;resizable=0;points=[];autosize=1;strokeColor=none;fillColor=none;labelBackgroundColor=none;fontColor=#143642;" vertex="1" parent="1">
          <mxGeometry x="495" y="528" width="30" height="30" as="geometry" />
        </mxCell>
        <mxCell id="HtsRs0g25Qp1Lwj930Z--44" value="% percent of property onwed" style="ellipse;whiteSpace=wrap;html=1;labelBackgroundColor=none;fillColor=#FAE5C7;strokeColor=#0F8B8D;fontColor=#143642;" vertex="1" parent="1">
          <mxGeometry x="330" y="430" width="160" height="60" as="geometry" />
        </mxCell>
        <mxCell id="HtsRs0g25Qp1Lwj930Z--45" value="" style="endArrow=none;html=1;rounded=0;exitX=0.5;exitY=1;exitDx=0;exitDy=0;labelBackgroundColor=none;strokeColor=#A8201A;fontColor=default;" edge="1" parent="1" source="HtsRs0g25Qp1Lwj930Z--44">
          <mxGeometry width="50" height="50" relative="1" as="geometry">
            <mxPoint x="400" y="470" as="sourcePoint" />
            <mxPoint x="410" y="520" as="targetPoint" />
          </mxGeometry>
        </mxCell>
        <mxCell id="HtsRs0g25Qp1Lwj930Z--46" value="List" style="rhombus;whiteSpace=wrap;html=1;labelBackgroundColor=none;fillColor=#FAE5C7;strokeColor=#0F8B8D;fontColor=#143642;" vertex="1" parent="1">
          <mxGeometry x="130" y="390" width="80" height="60" as="geometry" />
        </mxCell>
        <mxCell id="HtsRs0g25Qp1Lwj930Z--47" value="" style="endArrow=none;html=1;rounded=0;entryX=0.5;entryY=1;entryDx=0;entryDy=0;labelBackgroundColor=none;strokeColor=#A8201A;fontColor=default;" edge="1" parent="1" source="HtsRs0g25Qp1Lwj930Z--46" target="HtsRs0g25Qp1Lwj930Z--1">
          <mxGeometry width="50" height="50" relative="1" as="geometry">
            <mxPoint x="400" y="470" as="sourcePoint" />
            <mxPoint x="450" y="420" as="targetPoint" />
          </mxGeometry>
        </mxCell>
        <mxCell id="HtsRs0g25Qp1Lwj930Z--48" value="" style="endArrow=none;html=1;rounded=0;labelBackgroundColor=none;strokeColor=#A8201A;fontColor=default;exitX=0.371;exitY=0.828;exitDx=0;exitDy=0;exitPerimeter=0;" edge="1" parent="1" source="HtsRs0g25Qp1Lwj930Z--46">
          <mxGeometry width="50" height="50" relative="1" as="geometry">
            <mxPoint x="160" y="450" as="sourcePoint" />
            <mxPoint x="160" y="530" as="targetPoint" />
          </mxGeometry>
        </mxCell>
        <mxCell id="HtsRs0g25Qp1Lwj930Z--49" value="1" style="text;html=1;align=center;verticalAlign=middle;resizable=0;points=[];autosize=1;strokeColor=none;fillColor=none;labelBackgroundColor=none;fontColor=#143642;" vertex="1" parent="1">
          <mxGeometry x="145" y="338" width="30" height="30" as="geometry" />
        </mxCell>
        <mxCell id="HtsRs0g25Qp1Lwj930Z--50" value="m" style="text;html=1;align=center;verticalAlign=middle;resizable=0;points=[];autosize=1;strokeColor=none;fillColor=none;labelBackgroundColor=none;fontColor=#143642;" vertex="1" parent="1">
          <mxGeometry x="120" y="460" width="30" height="30" as="geometry" />
        </mxCell>
        <mxCell id="HtsRs0g25Qp1Lwj930Z--51" value="" style="endArrow=none;html=1;rounded=0;entryX=0.142;entryY=0.596;entryDx=0;entryDy=0;entryPerimeter=0;labelBackgroundColor=none;strokeColor=#A8201A;fontColor=default;" edge="1" parent="1" target="HtsRs0g25Qp1Lwj930Z--17">
          <mxGeometry width="50" height="50" relative="1" as="geometry">
            <mxPoint x="230" y="290" as="sourcePoint" />
            <mxPoint x="380" y="410" as="targetPoint" />
          </mxGeometry>
        </mxCell>
        <mxCell id="HtsRs0g25Qp1Lwj930Z--52" value="" style="endArrow=none;html=1;rounded=0;entryX=0.116;entryY=0.66;entryDx=0;entryDy=0;entryPerimeter=0;exitX=1;exitY=1;exitDx=0;exitDy=0;exitPerimeter=0;labelBackgroundColor=none;strokeColor=#A8201A;fontColor=default;" edge="1" parent="1" source="HtsRs0g25Qp1Lwj930Z--1" target="HtsRs0g25Qp1Lwj930Z--30">
          <mxGeometry width="50" height="50" relative="1" as="geometry">
            <mxPoint x="220" y="310" as="sourcePoint" />
            <mxPoint x="380" y="410" as="targetPoint" />
          </mxGeometry>
        </mxCell>
        <mxCell id="HtsRs0g25Qp1Lwj930Z--53" value="" style="endArrow=none;html=1;rounded=0;labelBackgroundColor=none;strokeColor=#A8201A;fontColor=default;exitX=0.5;exitY=1;exitDx=0;exitDy=0;entryX=0.5;entryY=0;entryDx=0;entryDy=0;" edge="1" parent="1" source="HtsRs0g25Qp1Lwj930Z--46" target="HtsRs0g25Qp1Lwj930Z--7">
          <mxGeometry width="50" height="50" relative="1" as="geometry">
            <mxPoint x="183" y="460" as="sourcePoint" />
            <mxPoint x="170" y="520" as="targetPoint" />
          </mxGeometry>
        </mxCell>
        <mxCell id="HtsRs0g25Qp1Lwj930Z--54" value="" style="endArrow=none;html=1;rounded=0;labelBackgroundColor=none;strokeColor=#A8201A;fontColor=default;" edge="1" parent="1">
          <mxGeometry width="50" height="50" relative="1" as="geometry">
            <mxPoint x="50" y="240" as="sourcePoint" />
            <mxPoint x="80" y="240" as="targetPoint" />
            <Array as="points">
              <mxPoint x="30" y="240" />
            </Array>
          </mxGeometry>
        </mxCell>
        <mxCell id="HtsRs0g25Qp1Lwj930Z--55" value="" style="endArrow=none;html=1;rounded=0;labelBackgroundColor=none;strokeColor=#A8201A;fontColor=default;" edge="1" parent="1">
          <mxGeometry width="50" height="50" relative="1" as="geometry">
            <mxPoint x="560" y="220" as="sourcePoint" />
            <mxPoint x="590" y="220" as="targetPoint" />
            <Array as="points">
              <mxPoint x="540" y="220" />
            </Array>
          </mxGeometry>
        </mxCell>
        <mxCell id="HtsRs0g25Qp1Lwj930Z--56" value="" style="endArrow=none;html=1;rounded=0;labelBackgroundColor=none;strokeColor=#A8201A;fontColor=default;" edge="1" parent="1">
          <mxGeometry width="50" height="50" relative="1" as="geometry">
            <mxPoint x="50" y="630.3299999999999" as="sourcePoint" />
            <mxPoint x="80" y="630.3299999999999" as="targetPoint" />
            <Array as="points">
              <mxPoint x="30" y="630.3299999999999" />
              <mxPoint x="65" y="630" />
            </Array>
          </mxGeometry>
        </mxCell>
        <mxCell id="HtsRs0g25Qp1Lwj930Z--57" value="" style="endArrow=none;html=1;rounded=0;labelBackgroundColor=none;strokeColor=#A8201A;fontColor=default;" edge="1" parent="1">
          <mxGeometry width="50" height="50" relative="1" as="geometry">
            <mxPoint x="545" y="670.3299999999999" as="sourcePoint" />
            <mxPoint x="575" y="670.3299999999999" as="targetPoint" />
            <Array as="points">
              <mxPoint x="525" y="670.3299999999999" />
              <mxPoint x="560" y="670" />
            </Array>
          </mxGeometry>
        </mxCell>
        <mxCell id="HtsRs0g25Qp1Lwj930Z--58" value="" style="endArrow=none;html=1;rounded=0;exitX=0.895;exitY=0.597;exitDx=0;exitDy=0;labelBackgroundColor=none;strokeColor=#A8201A;fontColor=default;exitPerimeter=0;" edge="1" parent="1" source="HtsRs0g25Qp1Lwj930Z--39">
          <mxGeometry width="50" height="50" relative="1" as="geometry">
            <mxPoint x="460" y="565" as="sourcePoint" />
            <mxPoint x="558" y="561" as="targetPoint" />
          </mxGeometry>
        </mxCell>
        <mxCell id="HtsRs0g25Qp1Lwj930Z--59" value="" style="endArrow=none;html=1;rounded=0;entryX=0.875;entryY=0.5;entryDx=0;entryDy=0;labelBackgroundColor=none;strokeColor=#A8201A;fontColor=default;entryPerimeter=0;" edge="1" parent="1" target="HtsRs0g25Qp1Lwj930Z--17">
          <mxGeometry width="50" height="50" relative="1" as="geometry">
            <mxPoint x="560" y="300" as="sourcePoint" />
            <mxPoint x="450" y="280" as="targetPoint" />
          </mxGeometry>
        </mxCell>
        <mxCell id="82wTJhz9rahn9C4ICJF--1" value="&lt;font style=&quot;font-size: 24px;&quot;&gt;3- Sales&lt;/font&gt;" style="text;html=1;align=center;verticalAlign=middle;resizable=0;points=[];autosize=1;strokeColor=none;fillColor=none;fontColor=#143642;" vertex="1" parent="1">
          <mxGeometry x="25" y="43" width="110" height="40" as="geometry" />
        </mxCell>
      </root>
    </mxGraphModel>
  </diagram>
  <diagram id="rnraHoEmaEKioNbjqeob" name="Hospital">
    <mxGraphModel dx="1280" dy="629" grid="1" gridSize="10" guides="1" tooltips="1" connect="1" arrows="1" fold="1" page="1" pageScale="1" pageWidth="850" pageHeight="1100" math="0" shadow="0">
      <root>
        <mxCell id="0" />
        <mxCell id="1" parent="0" />
        <mxCell id="tI6piOpz3AzojJ7zanfg-1" value="&lt;font style=&quot;font-size: 18px;&quot;&gt;Wards&lt;/font&gt;" style="rounded=0;whiteSpace=wrap;html=1;labelBackgroundColor=none;fillColor=#FAE5C7;strokeColor=#0F8B8D;fontColor=#143642;" vertex="1" parent="1">
          <mxGeometry x="100" y="240" width="120" height="50" as="geometry" />
        </mxCell>
        <mxCell id="tI6piOpz3AzojJ7zanfg-2" value="ward-id" style="ellipse;whiteSpace=wrap;html=1;labelBackgroundColor=none;fillColor=#FAE5C7;strokeColor=#0F8B8D;fontColor=#143642;" vertex="1" parent="1">
          <mxGeometry x="50" y="160" width="90" height="40" as="geometry" />
        </mxCell>
        <mxCell id="tI6piOpz3AzojJ7zanfg-3" value="name" style="ellipse;whiteSpace=wrap;html=1;labelBackgroundColor=none;fillColor=#FAE5C7;strokeColor=#0F8B8D;fontColor=#143642;" vertex="1" parent="1">
          <mxGeometry x="160" y="160" width="90" height="40" as="geometry" />
        </mxCell>
        <mxCell id="tI6piOpz3AzojJ7zanfg-4" value="&lt;font style=&quot;font-size: 18px;&quot;&gt;Nurses&lt;/font&gt;" style="rounded=0;whiteSpace=wrap;html=1;labelBackgroundColor=none;fillColor=#FAE5C7;strokeColor=#0F8B8D;fontColor=#143642;" vertex="1" parent="1">
          <mxGeometry x="100" y="500" width="120" height="50" as="geometry" />
        </mxCell>
        <mxCell id="tI6piOpz3AzojJ7zanfg-5" value="name" style="ellipse;whiteSpace=wrap;html=1;labelBackgroundColor=none;fillColor=#FAE5C7;strokeColor=#0F8B8D;fontColor=#143642;" vertex="1" parent="1">
          <mxGeometry x="110" y="610" width="90" height="40" as="geometry" />
        </mxCell>
        <mxCell id="tI6piOpz3AzojJ7zanfg-6" value="number" style="ellipse;whiteSpace=wrap;html=1;labelBackgroundColor=none;fillColor=#FAE5C7;strokeColor=#0F8B8D;fontColor=#143642;" vertex="1" parent="1">
          <mxGeometry x="20" y="590" width="90" height="40" as="geometry" />
        </mxCell>
        <mxCell id="tI6piOpz3AzojJ7zanfg-7" value="address" style="ellipse;whiteSpace=wrap;html=1;labelBackgroundColor=none;fillColor=#FAE5C7;strokeColor=#0F8B8D;fontColor=#143642;" vertex="1" parent="1">
          <mxGeometry x="210" y="590" width="90" height="40" as="geometry" />
        </mxCell>
        <mxCell id="tI6piOpz3AzojJ7zanfg-8" value="&lt;font style=&quot;font-size: 18px;&quot;&gt;Patients&lt;/font&gt;" style="rounded=0;whiteSpace=wrap;html=1;labelBackgroundColor=none;fillColor=#FAE5C7;strokeColor=#0F8B8D;fontColor=#143642;" vertex="1" parent="1">
          <mxGeometry x="450" y="240" width="120" height="50" as="geometry" />
        </mxCell>
        <mxCell id="tI6piOpz3AzojJ7zanfg-9" value="id" style="ellipse;whiteSpace=wrap;html=1;labelBackgroundColor=none;fillColor=#FAE5C7;strokeColor=#0F8B8D;fontColor=#143642;" vertex="1" parent="1">
          <mxGeometry x="390" y="160" width="70" height="40" as="geometry" />
        </mxCell>
        <mxCell id="tI6piOpz3AzojJ7zanfg-10" value="name" style="ellipse;whiteSpace=wrap;html=1;labelBackgroundColor=none;fillColor=#FAE5C7;strokeColor=#0F8B8D;fontColor=#143642;" vertex="1" parent="1">
          <mxGeometry x="490" y="150" width="70" height="40" as="geometry" />
        </mxCell>
        <mxCell id="tI6piOpz3AzojJ7zanfg-11" value="date-of-birth" style="ellipse;whiteSpace=wrap;html=1;labelBackgroundColor=none;fillColor=#FAE5C7;strokeColor=#0F8B8D;fontColor=#143642;" vertex="1" parent="1">
          <mxGeometry x="580" y="170" width="90" height="40" as="geometry" />
        </mxCell>
        <mxCell id="tI6piOpz3AzojJ7zanfg-12" value="&lt;font style=&quot;font-size: 18px;&quot;&gt;Drugs&lt;/font&gt;" style="rounded=0;whiteSpace=wrap;html=1;labelBackgroundColor=none;fillColor=#FAE5C7;strokeColor=#0F8B8D;fontColor=#143642;" vertex="1" parent="1">
          <mxGeometry x="440" y="540" width="120" height="50" as="geometry" />
        </mxCell>
        <mxCell id="tI6piOpz3AzojJ7zanfg-13" value="code-number" style="ellipse;whiteSpace=wrap;html=1;labelBackgroundColor=none;fillColor=#FAE5C7;strokeColor=#0F8B8D;fontColor=#143642;" vertex="1" parent="1">
          <mxGeometry x="370" y="640" width="90" height="40" as="geometry" />
        </mxCell>
        <mxCell id="tI6piOpz3AzojJ7zanfg-14" value="recommended dosage" style="ellipse;whiteSpace=wrap;html=1;labelBackgroundColor=none;fillColor=#FAE5C7;strokeColor=#0F8B8D;fontColor=#143642;" vertex="1" parent="1">
          <mxGeometry x="460" y="660" width="110" height="40" as="geometry" />
        </mxCell>
        <mxCell id="tI6piOpz3AzojJ7zanfg-15" value="" style="ellipse;whiteSpace=wrap;html=1;labelBackgroundColor=none;fillColor=#FAE5C7;strokeColor=#0F8B8D;fontColor=#143642;" vertex="1" parent="1">
          <mxGeometry x="570" y="630" width="110" height="60" as="geometry" />
        </mxCell>
        <mxCell id="tI6piOpz3AzojJ7zanfg-16" value="brand name" style="ellipse;whiteSpace=wrap;html=1;labelBackgroundColor=none;fillColor=#FAE5C7;strokeColor=#0F8B8D;fontColor=#143642;" vertex="1" parent="1">
          <mxGeometry x="580" y="640" width="90" height="40" as="geometry" />
        </mxCell>
        <mxCell id="tI6piOpz3AzojJ7zanfg-17" value="&lt;font style=&quot;font-size: 18px;&quot;&gt;Leading Consultants&lt;/font&gt;" style="rounded=0;whiteSpace=wrap;html=1;labelBackgroundColor=none;fillColor=#FAE5C7;strokeColor=#0F8B8D;fontColor=#143642;" vertex="1" parent="1">
          <mxGeometry x="655" y="436" width="120" height="50" as="geometry" />
        </mxCell>
        <mxCell id="tI6piOpz3AzojJ7zanfg-18" value="id" style="ellipse;whiteSpace=wrap;html=1;labelBackgroundColor=none;fillColor=#FAE5C7;strokeColor=#0F8B8D;fontColor=#143642;" vertex="1" parent="1">
          <mxGeometry x="680" y="540" width="70" height="40" as="geometry" />
        </mxCell>
        <mxCell id="tI6piOpz3AzojJ7zanfg-19" value="name" style="ellipse;whiteSpace=wrap;html=1;labelBackgroundColor=none;fillColor=#FAE5C7;strokeColor=#0F8B8D;fontColor=#143642;" vertex="1" parent="1">
          <mxGeometry x="760" y="530" width="70" height="40" as="geometry" />
        </mxCell>
        <mxCell id="tI6piOpz3AzojJ7zanfg-20" value="" style="endArrow=none;html=1;rounded=0;entryX=0.678;entryY=1.022;entryDx=0;entryDy=0;entryPerimeter=0;labelBackgroundColor=none;strokeColor=#A8201A;fontColor=default;" edge="1" parent="1" source="tI6piOpz3AzojJ7zanfg-1" target="tI6piOpz3AzojJ7zanfg-2">
          <mxGeometry width="50" height="50" relative="1" as="geometry">
            <mxPoint x="400" y="420" as="sourcePoint" />
            <mxPoint x="450" y="370" as="targetPoint" />
          </mxGeometry>
        </mxCell>
        <mxCell id="tI6piOpz3AzojJ7zanfg-21" value="" style="endArrow=none;html=1;rounded=0;entryX=0.591;entryY=1.022;entryDx=0;entryDy=0;entryPerimeter=0;exitX=0.75;exitY=0;exitDx=0;exitDy=0;labelBackgroundColor=none;strokeColor=#A8201A;fontColor=default;" edge="1" parent="1" source="tI6piOpz3AzojJ7zanfg-1" target="tI6piOpz3AzojJ7zanfg-3">
          <mxGeometry width="50" height="50" relative="1" as="geometry">
            <mxPoint x="187" y="250" as="sourcePoint" />
            <mxPoint x="215" y="210" as="targetPoint" />
          </mxGeometry>
        </mxCell>
        <mxCell id="tI6piOpz3AzojJ7zanfg-22" value="" style="endArrow=none;html=1;rounded=0;labelBackgroundColor=none;strokeColor=#A8201A;fontColor=default;" edge="1" parent="1" source="tI6piOpz3AzojJ7zanfg-4" target="tI6piOpz3AzojJ7zanfg-5">
          <mxGeometry width="50" height="50" relative="1" as="geometry">
            <mxPoint x="151" y="250" as="sourcePoint" />
            <mxPoint x="121" y="211" as="targetPoint" />
          </mxGeometry>
        </mxCell>
        <mxCell id="tI6piOpz3AzojJ7zanfg-23" value="" style="endArrow=none;html=1;rounded=0;exitX=0.25;exitY=1;exitDx=0;exitDy=0;entryX=0.5;entryY=0;entryDx=0;entryDy=0;labelBackgroundColor=none;strokeColor=#A8201A;fontColor=default;" edge="1" parent="1" source="tI6piOpz3AzojJ7zanfg-4" target="tI6piOpz3AzojJ7zanfg-6">
          <mxGeometry width="50" height="50" relative="1" as="geometry">
            <mxPoint x="126" y="560" as="sourcePoint" />
            <mxPoint x="83" y="584" as="targetPoint" />
          </mxGeometry>
        </mxCell>
        <mxCell id="tI6piOpz3AzojJ7zanfg-24" value="" style="endArrow=none;html=1;rounded=0;exitX=0.862;exitY=1.022;exitDx=0;exitDy=0;exitPerimeter=0;entryX=0.243;entryY=0.05;entryDx=0;entryDy=0;entryPerimeter=0;labelBackgroundColor=none;strokeColor=#A8201A;fontColor=default;" edge="1" parent="1" source="tI6piOpz3AzojJ7zanfg-4" target="tI6piOpz3AzojJ7zanfg-7">
          <mxGeometry width="50" height="50" relative="1" as="geometry">
            <mxPoint x="157" y="562" as="sourcePoint" />
            <mxPoint x="145" y="620" as="targetPoint" />
          </mxGeometry>
        </mxCell>
        <mxCell id="tI6piOpz3AzojJ7zanfg-25" value="" style="endArrow=none;html=1;rounded=0;exitX=0.103;exitY=1.058;exitDx=0;exitDy=0;exitPerimeter=0;entryX=0.609;entryY=0.022;entryDx=0;entryDy=0;entryPerimeter=0;labelBackgroundColor=none;strokeColor=#A8201A;fontColor=default;" edge="1" parent="1" source="tI6piOpz3AzojJ7zanfg-12" target="tI6piOpz3AzojJ7zanfg-13">
          <mxGeometry width="50" height="50" relative="1" as="geometry">
            <mxPoint x="213" y="561" as="sourcePoint" />
            <mxPoint x="242" y="602" as="targetPoint" />
          </mxGeometry>
        </mxCell>
        <mxCell id="tI6piOpz3AzojJ7zanfg-26" value="" style="endArrow=none;html=1;rounded=0;exitX=0.5;exitY=1;exitDx=0;exitDy=0;entryX=0.439;entryY=-0.011;entryDx=0;entryDy=0;entryPerimeter=0;labelBackgroundColor=none;strokeColor=#A8201A;fontColor=default;" edge="1" parent="1" source="tI6piOpz3AzojJ7zanfg-12" target="tI6piOpz3AzojJ7zanfg-14">
          <mxGeometry width="50" height="50" relative="1" as="geometry">
            <mxPoint x="462" y="603" as="sourcePoint" />
            <mxPoint x="435" y="651" as="targetPoint" />
          </mxGeometry>
        </mxCell>
        <mxCell id="tI6piOpz3AzojJ7zanfg-27" value="" style="endArrow=none;html=1;rounded=0;exitX=0.851;exitY=0.987;exitDx=0;exitDy=0;exitPerimeter=0;labelBackgroundColor=none;strokeColor=#A8201A;fontColor=default;" edge="1" parent="1" source="tI6piOpz3AzojJ7zanfg-12" target="tI6piOpz3AzojJ7zanfg-15">
          <mxGeometry width="50" height="50" relative="1" as="geometry">
            <mxPoint x="510" y="600" as="sourcePoint" />
            <mxPoint x="518" y="670" as="targetPoint" />
          </mxGeometry>
        </mxCell>
        <mxCell id="tI6piOpz3AzojJ7zanfg-28" value="" style="endArrow=none;html=1;rounded=0;entryX=0.5;entryY=1;entryDx=0;entryDy=0;labelBackgroundColor=none;strokeColor=#A8201A;fontColor=default;" edge="1" parent="1" source="tI6piOpz3AzojJ7zanfg-18" target="tI6piOpz3AzojJ7zanfg-17">
          <mxGeometry width="50" height="50" relative="1" as="geometry">
            <mxPoint x="487" y="665" as="sourcePoint" />
            <mxPoint x="655" y="426" as="targetPoint" />
          </mxGeometry>
        </mxCell>
        <mxCell id="tI6piOpz3AzojJ7zanfg-29" value="" style="endArrow=none;html=1;rounded=0;labelBackgroundColor=none;strokeColor=#A8201A;fontColor=default;" edge="1" parent="1" source="tI6piOpz3AzojJ7zanfg-19" target="tI6piOpz3AzojJ7zanfg-17">
          <mxGeometry width="50" height="50" relative="1" as="geometry">
            <mxPoint x="650" y="396" as="sourcePoint" />
            <mxPoint x="760" y="460" as="targetPoint" />
          </mxGeometry>
        </mxCell>
        <mxCell id="tI6piOpz3AzojJ7zanfg-30" value="" style="endArrow=none;html=1;rounded=0;exitX=0.116;exitY=-0.036;exitDx=0;exitDy=0;exitPerimeter=0;entryX=0.725;entryY=0.911;entryDx=0;entryDy=0;entryPerimeter=0;labelBackgroundColor=none;strokeColor=#A8201A;fontColor=default;" edge="1" parent="1" source="tI6piOpz3AzojJ7zanfg-8" target="tI6piOpz3AzojJ7zanfg-9">
          <mxGeometry width="50" height="50" relative="1" as="geometry">
            <mxPoint x="400" y="420" as="sourcePoint" />
            <mxPoint x="440" y="190" as="targetPoint" />
          </mxGeometry>
        </mxCell>
        <mxCell id="tI6piOpz3AzojJ7zanfg-31" value="" style="endArrow=none;html=1;rounded=0;exitX=0.5;exitY=0;exitDx=0;exitDy=0;entryX=0.5;entryY=1;entryDx=0;entryDy=0;labelBackgroundColor=none;strokeColor=#A8201A;fontColor=default;" edge="1" parent="1" source="tI6piOpz3AzojJ7zanfg-8" target="tI6piOpz3AzojJ7zanfg-10">
          <mxGeometry width="50" height="50" relative="1" as="geometry">
            <mxPoint x="510" y="230" as="sourcePoint" />
            <mxPoint x="520" y="180" as="targetPoint" />
          </mxGeometry>
        </mxCell>
        <mxCell id="tI6piOpz3AzojJ7zanfg-32" value="" style="endArrow=none;html=1;rounded=0;exitX=0.931;exitY=0.018;exitDx=0;exitDy=0;entryX=0;entryY=1;entryDx=0;entryDy=0;exitPerimeter=0;labelBackgroundColor=none;strokeColor=#A8201A;fontColor=default;" edge="1" parent="1" source="tI6piOpz3AzojJ7zanfg-8" target="tI6piOpz3AzojJ7zanfg-11">
          <mxGeometry width="50" height="50" relative="1" as="geometry">
            <mxPoint x="520" y="250" as="sourcePoint" />
            <mxPoint x="535" y="200" as="targetPoint" />
          </mxGeometry>
        </mxCell>
        <mxCell id="tI6piOpz3AzojJ7zanfg-33" value="Host" style="rhombus;whiteSpace=wrap;html=1;labelBackgroundColor=none;fillColor=#FAE5C7;strokeColor=#0F8B8D;fontColor=#143642;" vertex="1" parent="1">
          <mxGeometry x="310" y="240" width="60" height="50" as="geometry" />
        </mxCell>
        <mxCell id="tI6piOpz3AzojJ7zanfg-34" value="" style="endArrow=none;html=1;rounded=0;entryX=1;entryY=0.5;entryDx=0;entryDy=0;exitX=0;exitY=0.5;exitDx=0;exitDy=0;labelBackgroundColor=none;strokeColor=#A8201A;fontColor=default;" edge="1" parent="1" source="tI6piOpz3AzojJ7zanfg-33" target="tI6piOpz3AzojJ7zanfg-1">
          <mxGeometry width="50" height="50" relative="1" as="geometry">
            <mxPoint x="400" y="420" as="sourcePoint" />
            <mxPoint x="450" y="370" as="targetPoint" />
          </mxGeometry>
        </mxCell>
        <mxCell id="tI6piOpz3AzojJ7zanfg-35" value="" style="endArrow=none;html=1;rounded=0;entryX=1;entryY=0.5;entryDx=0;entryDy=0;exitX=0;exitY=0.5;exitDx=0;exitDy=0;labelBackgroundColor=none;strokeColor=#A8201A;fontColor=default;" edge="1" parent="1" source="tI6piOpz3AzojJ7zanfg-8" target="tI6piOpz3AzojJ7zanfg-33">
          <mxGeometry width="50" height="50" relative="1" as="geometry">
            <mxPoint x="320" y="275" as="sourcePoint" />
            <mxPoint x="230" y="275" as="targetPoint" />
          </mxGeometry>
        </mxCell>
        <mxCell id="tI6piOpz3AzojJ7zanfg-36" value="1" style="text;html=1;align=center;verticalAlign=middle;resizable=0;points=[];autosize=1;strokeColor=none;fillColor=none;labelBackgroundColor=none;fontColor=#143642;" vertex="1" parent="1">
          <mxGeometry x="250" y="240" width="30" height="30" as="geometry" />
        </mxCell>
        <mxCell id="tI6piOpz3AzojJ7zanfg-37" value="m" style="text;html=1;align=center;verticalAlign=middle;resizable=0;points=[];autosize=1;strokeColor=none;fillColor=none;labelBackgroundColor=none;fontColor=#143642;" vertex="1" parent="1">
          <mxGeometry x="390" y="240" width="30" height="30" as="geometry" />
        </mxCell>
        <mxCell id="tI6piOpz3AzojJ7zanfg-38" value="supervise" style="rhombus;whiteSpace=wrap;html=1;labelBackgroundColor=none;fillColor=#FAE5C7;strokeColor=#0F8B8D;fontColor=#143642;" vertex="1" parent="1">
          <mxGeometry x="70" y="380" width="70" height="50" as="geometry" />
        </mxCell>
        <mxCell id="tI6piOpz3AzojJ7zanfg-39" value="serve" style="rhombus;whiteSpace=wrap;html=1;labelBackgroundColor=none;fillColor=#FAE5C7;strokeColor=#0F8B8D;fontColor=#143642;" vertex="1" parent="1">
          <mxGeometry x="160" y="380" width="60" height="50" as="geometry" />
        </mxCell>
        <mxCell id="tI6piOpz3AzojJ7zanfg-40" value="" style="endArrow=none;html=1;rounded=0;entryX=0.75;entryY=1;entryDx=0;entryDy=0;labelBackgroundColor=none;strokeColor=#A8201A;fontColor=default;" edge="1" parent="1" source="tI6piOpz3AzojJ7zanfg-39" target="tI6piOpz3AzojJ7zanfg-1">
          <mxGeometry width="50" height="50" relative="1" as="geometry">
            <mxPoint x="400" y="420" as="sourcePoint" />
            <mxPoint x="450" y="370" as="targetPoint" />
          </mxGeometry>
        </mxCell>
        <mxCell id="tI6piOpz3AzojJ7zanfg-41" value="" style="endArrow=none;html=1;rounded=0;entryX=0.166;entryY=0.996;entryDx=0;entryDy=0;entryPerimeter=0;labelBackgroundColor=none;strokeColor=#A8201A;fontColor=default;" edge="1" parent="1" source="tI6piOpz3AzojJ7zanfg-38" target="tI6piOpz3AzojJ7zanfg-1">
          <mxGeometry width="50" height="50" relative="1" as="geometry">
            <mxPoint x="200" y="390" as="sourcePoint" />
            <mxPoint x="200" y="300" as="targetPoint" />
          </mxGeometry>
        </mxCell>
        <mxCell id="tI6piOpz3AzojJ7zanfg-42" value="" style="endArrow=none;html=1;rounded=0;entryX=0.25;entryY=0;entryDx=0;entryDy=0;exitX=0.5;exitY=1;exitDx=0;exitDy=0;labelBackgroundColor=none;strokeColor=#A8201A;fontColor=default;" edge="1" parent="1" source="tI6piOpz3AzojJ7zanfg-38" target="tI6piOpz3AzojJ7zanfg-4">
          <mxGeometry width="50" height="50" relative="1" as="geometry">
            <mxPoint x="118" y="392" as="sourcePoint" />
            <mxPoint x="130" y="300" as="targetPoint" />
          </mxGeometry>
        </mxCell>
        <mxCell id="tI6piOpz3AzojJ7zanfg-43" value="" style="endArrow=none;html=1;rounded=0;entryX=0.677;entryY=-0.009;entryDx=0;entryDy=0;entryPerimeter=0;labelBackgroundColor=none;strokeColor=#A8201A;fontColor=default;exitX=0.383;exitY=0.9;exitDx=0;exitDy=0;exitPerimeter=0;" edge="1" parent="1" source="tI6piOpz3AzojJ7zanfg-39" target="tI6piOpz3AzojJ7zanfg-4">
          <mxGeometry width="50" height="50" relative="1" as="geometry">
            <mxPoint x="180" y="430" as="sourcePoint" />
            <mxPoint x="140" y="510" as="targetPoint" />
          </mxGeometry>
        </mxCell>
        <mxCell id="tI6piOpz3AzojJ7zanfg-44" value="" style="endArrow=none;html=1;rounded=0;labelBackgroundColor=none;strokeColor=#A8201A;fontColor=default;exitX=0.5;exitY=1;exitDx=0;exitDy=0;" edge="1" parent="1" source="tI6piOpz3AzojJ7zanfg-39">
          <mxGeometry width="50" height="50" relative="1" as="geometry">
            <mxPoint x="200" y="440" as="sourcePoint" />
            <mxPoint x="190" y="500" as="targetPoint" />
          </mxGeometry>
        </mxCell>
        <mxCell id="tI6piOpz3AzojJ7zanfg-45" value="1" style="text;html=1;align=center;verticalAlign=middle;resizable=0;points=[];autosize=1;strokeColor=none;fillColor=none;labelBackgroundColor=none;fontColor=#143642;" vertex="1" parent="1">
          <mxGeometry x="85" y="318" width="30" height="30" as="geometry" />
        </mxCell>
        <mxCell id="tI6piOpz3AzojJ7zanfg-46" value="1" style="text;html=1;align=center;verticalAlign=middle;resizable=0;points=[];autosize=1;strokeColor=none;fillColor=none;labelBackgroundColor=none;fontColor=#143642;" vertex="1" parent="1">
          <mxGeometry x="85" y="458" width="30" height="30" as="geometry" />
        </mxCell>
        <mxCell id="tI6piOpz3AzojJ7zanfg-47" value="1" style="text;html=1;align=center;verticalAlign=middle;resizable=0;points=[];autosize=1;strokeColor=none;fillColor=none;labelBackgroundColor=none;fontColor=#143642;" vertex="1" parent="1">
          <mxGeometry x="185" y="318" width="30" height="30" as="geometry" />
        </mxCell>
        <mxCell id="tI6piOpz3AzojJ7zanfg-48" value="m" style="text;html=1;align=center;verticalAlign=middle;resizable=0;points=[];autosize=1;strokeColor=none;fillColor=none;labelBackgroundColor=none;fontColor=#143642;" vertex="1" parent="1">
          <mxGeometry x="195" y="448" width="30" height="30" as="geometry" />
        </mxCell>
        <mxCell id="tI6piOpz3AzojJ7zanfg-49" value="assigned&lt;br&gt;" style="rhombus;whiteSpace=wrap;html=1;rotation=45;labelBackgroundColor=none;fillColor=#FAE5C7;strokeColor=#0F8B8D;fontColor=#143642;" vertex="1" parent="1">
          <mxGeometry x="620" y="336.25" width="70" height="50" as="geometry" />
        </mxCell>
        <mxCell id="tI6piOpz3AzojJ7zanfg-50" value="examin" style="rhombus;whiteSpace=wrap;html=1;rotation=30;labelBackgroundColor=none;fillColor=#FAE5C7;strokeColor=#0F8B8D;fontColor=#143642;" vertex="1" parent="1">
          <mxGeometry x="560" y="380" width="65" height="50" as="geometry" />
        </mxCell>
        <mxCell id="tI6piOpz3AzojJ7zanfg-51" value="" style="endArrow=none;html=1;rounded=0;exitX=1;exitY=0.5;exitDx=0;exitDy=0;entryX=0;entryY=0.5;entryDx=0;entryDy=0;labelBackgroundColor=none;strokeColor=#A8201A;fontColor=default;" edge="1" parent="1" source="tI6piOpz3AzojJ7zanfg-50" target="tI6piOpz3AzojJ7zanfg-17">
          <mxGeometry width="50" height="50" relative="1" as="geometry">
            <mxPoint x="335" y="486" as="sourcePoint" />
            <mxPoint x="645" y="456" as="targetPoint" />
          </mxGeometry>
        </mxCell>
        <mxCell id="tI6piOpz3AzojJ7zanfg-52" value="" style="endArrow=none;html=1;rounded=0;exitX=1;exitY=1;exitDx=0;exitDy=0;entryX=0;entryY=0.5;entryDx=0;entryDy=0;labelBackgroundColor=none;strokeColor=#A8201A;fontColor=default;" edge="1" parent="1" source="tI6piOpz3AzojJ7zanfg-8" target="tI6piOpz3AzojJ7zanfg-49">
          <mxGeometry width="50" height="50" relative="1" as="geometry">
            <mxPoint x="505" y="331" as="sourcePoint" />
            <mxPoint x="655" y="466" as="targetPoint" />
          </mxGeometry>
        </mxCell>
        <mxCell id="tI6piOpz3AzojJ7zanfg-53" value="" style="endArrow=none;html=1;rounded=0;exitX=0.686;exitY=1.031;exitDx=0;exitDy=0;entryX=0;entryY=0.5;entryDx=0;entryDy=0;exitPerimeter=0;labelBackgroundColor=none;strokeColor=#A8201A;fontColor=default;" edge="1" parent="1" source="tI6piOpz3AzojJ7zanfg-8" target="tI6piOpz3AzojJ7zanfg-50">
          <mxGeometry width="50" height="50" relative="1" as="geometry">
            <mxPoint x="505" y="356" as="sourcePoint" />
            <mxPoint x="544" y="421" as="targetPoint" />
          </mxGeometry>
        </mxCell>
        <mxCell id="tI6piOpz3AzojJ7zanfg-54" value="" style="endArrow=none;html=1;rounded=0;exitX=1;exitY=0.5;exitDx=0;exitDy=0;entryX=0.593;entryY=-0.027;entryDx=0;entryDy=0;entryPerimeter=0;labelBackgroundColor=none;strokeColor=#A8201A;fontColor=default;" edge="1" parent="1" source="tI6piOpz3AzojJ7zanfg-49" target="tI6piOpz3AzojJ7zanfg-17">
          <mxGeometry width="50" height="50" relative="1" as="geometry">
            <mxPoint x="515" y="341" as="sourcePoint" />
            <mxPoint x="730" y="430" as="targetPoint" />
          </mxGeometry>
        </mxCell>
        <mxCell id="tI6piOpz3AzojJ7zanfg-55" value="1" style="text;html=1;align=center;verticalAlign=middle;resizable=0;points=[];autosize=1;strokeColor=none;fillColor=none;labelBackgroundColor=none;fontColor=#143642;" vertex="1" parent="1">
          <mxGeometry x="700" y="380" width="30" height="30" as="geometry" />
        </mxCell>
        <mxCell id="tI6piOpz3AzojJ7zanfg-56" value="m" style="text;html=1;align=center;verticalAlign=middle;resizable=0;points=[];autosize=1;strokeColor=none;fillColor=none;labelBackgroundColor=none;fontColor=#143642;" vertex="1" parent="1">
          <mxGeometry x="600" y="288" width="30" height="30" as="geometry" />
        </mxCell>
        <mxCell id="tI6piOpz3AzojJ7zanfg-57" value="m" style="text;html=1;align=center;verticalAlign=middle;resizable=0;points=[];autosize=1;strokeColor=none;fillColor=none;labelBackgroundColor=none;fontColor=#143642;" vertex="1" parent="1">
          <mxGeometry x="520" y="341" width="30" height="30" as="geometry" />
        </mxCell>
        <mxCell id="tI6piOpz3AzojJ7zanfg-58" value="m" style="text;html=1;align=center;verticalAlign=middle;resizable=0;points=[];autosize=1;strokeColor=none;fillColor=none;labelBackgroundColor=none;fontColor=#143642;" vertex="1" parent="1">
          <mxGeometry x="610" y="436" width="30" height="30" as="geometry" />
        </mxCell>
        <mxCell id="tI6piOpz3AzojJ7zanfg-59" value="give" style="rhombus;whiteSpace=wrap;html=1;labelBackgroundColor=none;fillColor=#FAE5C7;strokeColor=#0F8B8D;fontColor=#143642;" vertex="1" parent="1">
          <mxGeometry x="345" y="428" width="80" height="60" as="geometry" />
        </mxCell>
        <mxCell id="tI6piOpz3AzojJ7zanfg-60" value="" style="endArrow=none;html=1;rounded=0;exitX=1;exitY=0;exitDx=0;exitDy=0;labelBackgroundColor=none;strokeColor=#A8201A;fontColor=default;" edge="1" parent="1" source="tI6piOpz3AzojJ7zanfg-59" target="tI6piOpz3AzojJ7zanfg-8">
          <mxGeometry width="50" height="50" relative="1" as="geometry">
            <mxPoint x="400" y="420" as="sourcePoint" />
            <mxPoint x="450" y="370" as="targetPoint" />
          </mxGeometry>
        </mxCell>
        <mxCell id="tI6piOpz3AzojJ7zanfg-61" value="" style="endArrow=none;html=1;rounded=0;exitX=1;exitY=1;exitDx=0;exitDy=0;entryX=0.5;entryY=0;entryDx=0;entryDy=0;labelBackgroundColor=none;strokeColor=#A8201A;fontColor=default;" edge="1" parent="1" source="tI6piOpz3AzojJ7zanfg-59" target="tI6piOpz3AzojJ7zanfg-12">
          <mxGeometry width="50" height="50" relative="1" as="geometry">
            <mxPoint x="405" y="446" as="sourcePoint" />
            <mxPoint x="503" y="300" as="targetPoint" />
          </mxGeometry>
        </mxCell>
        <mxCell id="tI6piOpz3AzojJ7zanfg-62" value="" style="endArrow=none;html=1;rounded=0;exitX=0.175;exitY=0.704;exitDx=0;exitDy=0;entryX=1;entryY=0.25;entryDx=0;entryDy=0;exitPerimeter=0;labelBackgroundColor=none;strokeColor=#A8201A;fontColor=default;" edge="1" parent="1" source="tI6piOpz3AzojJ7zanfg-59" target="tI6piOpz3AzojJ7zanfg-4">
          <mxGeometry width="50" height="50" relative="1" as="geometry">
            <mxPoint x="415" y="483" as="sourcePoint" />
            <mxPoint x="510" y="550" as="targetPoint" />
          </mxGeometry>
        </mxCell>
        <mxCell id="tI6piOpz3AzojJ7zanfg-63" value="m" style="text;html=1;align=center;verticalAlign=middle;resizable=0;points=[];autosize=1;strokeColor=none;fillColor=none;labelBackgroundColor=none;fontColor=#143642;" vertex="1" parent="1">
          <mxGeometry x="435" y="478" width="30" height="30" as="geometry" />
        </mxCell>
        <mxCell id="tI6piOpz3AzojJ7zanfg-64" value="m" style="text;html=1;align=center;verticalAlign=middle;resizable=0;points=[];autosize=1;strokeColor=none;fillColor=none;labelBackgroundColor=none;fontColor=#143642;" vertex="1" parent="1">
          <mxGeometry x="275" y="458" width="30" height="30" as="geometry" />
        </mxCell>
        <mxCell id="tI6piOpz3AzojJ7zanfg-65" value="m" style="text;html=1;align=center;verticalAlign=middle;resizable=0;points=[];autosize=1;strokeColor=none;fillColor=none;labelBackgroundColor=none;fontColor=#143642;" vertex="1" parent="1">
          <mxGeometry x="450" y="346.25" width="30" height="30" as="geometry" />
        </mxCell>
        <mxCell id="tI6piOpz3AzojJ7zanfg-66" value="date" style="ellipse;whiteSpace=wrap;html=1;labelBackgroundColor=none;fillColor=#FAE5C7;strokeColor=#0F8B8D;fontColor=#143642;" vertex="1" parent="1">
          <mxGeometry x="375" y="363.88" width="50" height="30" as="geometry" />
        </mxCell>
        <mxCell id="tI6piOpz3AzojJ7zanfg-67" value="time" style="ellipse;whiteSpace=wrap;html=1;labelBackgroundColor=none;fillColor=#FAE5C7;strokeColor=#0F8B8D;fontColor=#143642;" vertex="1" parent="1">
          <mxGeometry x="315" y="370.13" width="50" height="30" as="geometry" />
        </mxCell>
        <mxCell id="tI6piOpz3AzojJ7zanfg-68" value="" style="endArrow=none;html=1;rounded=0;entryX=0.5;entryY=1;entryDx=0;entryDy=0;labelBackgroundColor=none;strokeColor=#A8201A;fontColor=default;exitX=0;exitY=0;exitDx=0;exitDy=0;" edge="1" parent="1" source="tI6piOpz3AzojJ7zanfg-59" target="tI6piOpz3AzojJ7zanfg-67">
          <mxGeometry width="50" height="50" relative="1" as="geometry">
            <mxPoint x="390" y="390" as="sourcePoint" />
            <mxPoint x="450" y="370" as="targetPoint" />
            <Array as="points" />
          </mxGeometry>
        </mxCell>
        <mxCell id="tI6piOpz3AzojJ7zanfg-69" value="dosage" style="ellipse;whiteSpace=wrap;html=1;labelBackgroundColor=none;fillColor=#FAE5C7;strokeColor=#0F8B8D;fontColor=#143642;" vertex="1" parent="1">
          <mxGeometry x="255" y="398.13" width="70" height="28" as="geometry" />
        </mxCell>
        <mxCell id="tI6piOpz3AzojJ7zanfg-70" value="" style="endArrow=none;html=1;rounded=0;labelBackgroundColor=none;strokeColor=#A8201A;fontColor=default;exitX=0.5;exitY=0;exitDx=0;exitDy=0;entryX=0.5;entryY=1;entryDx=0;entryDy=0;" edge="1" parent="1" source="tI6piOpz3AzojJ7zanfg-59" target="tI6piOpz3AzojJ7zanfg-66">
          <mxGeometry width="50" height="50" relative="1" as="geometry">
            <mxPoint x="400" y="420" as="sourcePoint" />
            <mxPoint x="440" y="360" as="targetPoint" />
            <Array as="points" />
          </mxGeometry>
        </mxCell>
        <mxCell id="tI6piOpz3AzojJ7zanfg-71" value="" style="endArrow=none;html=1;rounded=0;entryX=0;entryY=0.5;entryDx=0;entryDy=0;exitX=0.606;exitY=0.968;exitDx=0;exitDy=0;exitPerimeter=0;labelBackgroundColor=none;strokeColor=#A8201A;fontColor=default;" edge="1" parent="1" source="tI6piOpz3AzojJ7zanfg-69" target="tI6piOpz3AzojJ7zanfg-59">
          <mxGeometry width="50" height="50" relative="1" as="geometry">
            <mxPoint x="400" y="420" as="sourcePoint" />
            <mxPoint x="450" y="370" as="targetPoint" />
          </mxGeometry>
        </mxCell>
        <mxCell id="tI6piOpz3AzojJ7zanfg-72" value="" style="endArrow=none;html=1;rounded=0;" edge="1" parent="1">
          <mxGeometry width="50" height="50" relative="1" as="geometry">
            <mxPoint x="695" y="570" as="sourcePoint" />
            <mxPoint x="735" y="570" as="targetPoint" />
          </mxGeometry>
        </mxCell>
        <mxCell id="tI6piOpz3AzojJ7zanfg-73" value="" style="endArrow=none;html=1;rounded=0;" edge="1" parent="1">
          <mxGeometry width="50" height="50" relative="1" as="geometry">
            <mxPoint x="40" y="620" as="sourcePoint" />
            <mxPoint x="90" y="620" as="targetPoint" />
          </mxGeometry>
        </mxCell>
        <mxCell id="tI6piOpz3AzojJ7zanfg-74" value="" style="endArrow=none;html=1;rounded=0;" edge="1" parent="1">
          <mxGeometry width="50" height="50" relative="1" as="geometry">
            <mxPoint x="382.5" y="670" as="sourcePoint" />
            <mxPoint x="447.5" y="670" as="targetPoint" />
          </mxGeometry>
        </mxCell>
        <mxCell id="tI6piOpz3AzojJ7zanfg-75" value="" style="endArrow=none;html=1;rounded=0;" edge="1" parent="1">
          <mxGeometry width="50" height="50" relative="1" as="geometry">
            <mxPoint x="405" y="190" as="sourcePoint" />
            <mxPoint x="445" y="190" as="targetPoint" />
          </mxGeometry>
        </mxCell>
        <mxCell id="tI6piOpz3AzojJ7zanfg-76" value="" style="endArrow=none;html=1;rounded=0;" edge="1" parent="1">
          <mxGeometry width="50" height="50" relative="1" as="geometry">
            <mxPoint x="65" y="190" as="sourcePoint" />
            <mxPoint x="115" y="190" as="targetPoint" />
          </mxGeometry>
        </mxCell>
        <mxCell id="tI6piOpz3AzojJ7zanfg-77" value="" style="endArrow=none;html=1;rounded=0;entryX=0.882;entryY=1.02;entryDx=0;entryDy=0;entryPerimeter=0;exitX=0.092;exitY=0.653;exitDx=0;exitDy=0;exitPerimeter=0;" edge="1" parent="1" source="tI6piOpz3AzojJ7zanfg-49" target="tI6piOpz3AzojJ7zanfg-8">
          <mxGeometry width="50" height="50" relative="1" as="geometry">
            <mxPoint x="640" y="350" as="sourcePoint" />
            <mxPoint x="460" y="380" as="targetPoint" />
          </mxGeometry>
        </mxCell>
        <mxCell id="tI6piOpz3AzojJ7zanfg-78" value="" style="endArrow=none;html=1;rounded=0;entryX=0.25;entryY=1;entryDx=0;entryDy=0;exitX=0.643;exitY=0.148;exitDx=0;exitDy=0;exitPerimeter=0;" edge="1" parent="1" source="tI6piOpz3AzojJ7zanfg-38" target="tI6piOpz3AzojJ7zanfg-1">
          <mxGeometry width="50" height="50" relative="1" as="geometry">
            <mxPoint x="110" y="380" as="sourcePoint" />
            <mxPoint x="460" y="380" as="targetPoint" />
          </mxGeometry>
        </mxCell>
        <mxCell id="tI6piOpz3AzojJ7zanfg-79" value="&lt;font style=&quot;font-size: 24px;&quot;&gt;2-&amp;nbsp; Hospital&lt;/font&gt;" style="text;html=1;align=center;verticalAlign=middle;resizable=0;points=[];autosize=1;strokeColor=none;fillColor=none;" vertex="1" parent="1">
          <mxGeometry x="30" y="43" width="140" height="40" as="geometry" />
        </mxCell>
      </root>
    </mxGraphModel>
  </diagram>
  <diagram name="Airline" id="3CsdD4fK1TSFtZYtRUNH">
    <mxGraphModel dx="1289" dy="628" grid="1" gridSize="10" guides="1" tooltips="1" connect="1" arrows="1" fold="1" page="1" pageScale="1" pageWidth="850" pageHeight="1100" math="0" shadow="0">
      <root>
        <mxCell id="0" />
        <mxCell id="1" parent="0" />
        <mxCell id="7xZTiTQt4ohjxS7sE8qV-45" value="Host 1" style="ellipse;whiteSpace=wrap;html=1;labelBackgroundColor=none;fillColor=#FAE5C7;strokeColor=#0F8B8D;fontColor=#143642;" parent="1" vertex="1">
          <mxGeometry x="227.19" y="978.08" width="71.25" height="30" as="geometry" />
        </mxCell>
        <mxCell id="7xZTiTQt4ohjxS7sE8qV-1" value="&lt;font style=&quot;font-size: 18px;&quot;&gt;Airlines&lt;/font&gt;" style="rounded=0;whiteSpace=wrap;html=1;labelBackgroundColor=none;fillColor=#FAE5C7;strokeColor=#0F8B8D;fontColor=#143642;" parent="1" vertex="1">
          <mxGeometry x="105" y="250" width="120" height="40" as="geometry" />
        </mxCell>
        <mxCell id="7xZTiTQt4ohjxS7sE8qV-2" value="&lt;font style=&quot;font-size: 18px;&quot;&gt;Employees&lt;/font&gt;" style="rounded=0;whiteSpace=wrap;html=1;labelBackgroundColor=none;fillColor=#FAE5C7;strokeColor=#0F8B8D;fontColor=#143642;" parent="1" vertex="1">
          <mxGeometry x="570" y="298" width="120" height="40" as="geometry" />
        </mxCell>
        <mxCell id="7xZTiTQt4ohjxS7sE8qV-3" value="&lt;font style=&quot;font-size: 18px;&quot;&gt;Aircrafts&lt;/font&gt;" style="rounded=0;whiteSpace=wrap;html=1;labelBackgroundColor=none;fillColor=#FAE5C7;strokeColor=#0F8B8D;fontColor=#143642;" parent="1" vertex="1">
          <mxGeometry x="90.63" y="594" width="120" height="40" as="geometry" />
        </mxCell>
        <mxCell id="7xZTiTQt4ohjxS7sE8qV-4" value="&lt;font style=&quot;font-size: 18px;&quot;&gt;Route&lt;br&gt;&lt;/font&gt;" style="rounded=0;whiteSpace=wrap;html=1;labelBackgroundColor=none;fillColor=#FAE5C7;strokeColor=#0F8B8D;fontColor=#143642;" parent="1" vertex="1">
          <mxGeometry x="599.28" y="776.11" width="120" height="40" as="geometry" />
        </mxCell>
        <mxCell id="7xZTiTQt4ohjxS7sE8qV-5" value="&lt;font style=&quot;font-size: 18px;&quot;&gt;Transactions&lt;/font&gt;" style="rounded=0;whiteSpace=wrap;html=1;labelBackgroundColor=none;fillColor=#FAE5C7;strokeColor=#0F8B8D;fontColor=#143642;" parent="1" vertex="1">
          <mxGeometry x="485" y="447" width="120" height="40" as="geometry" />
        </mxCell>
        <mxCell id="7xZTiTQt4ohjxS7sE8qV-6" value="id" style="ellipse;whiteSpace=wrap;html=1;labelBackgroundColor=none;fillColor=#FAE5C7;strokeColor=#0F8B8D;fontColor=#143642;" parent="1" vertex="1">
          <mxGeometry x="15" y="280" width="60" height="34" as="geometry" />
        </mxCell>
        <mxCell id="7xZTiTQt4ohjxS7sE8qV-7" value="name" style="ellipse;whiteSpace=wrap;html=1;labelBackgroundColor=none;fillColor=#FAE5C7;strokeColor=#0F8B8D;fontColor=#143642;" parent="1" vertex="1">
          <mxGeometry x="25" y="240" width="50" height="30" as="geometry" />
        </mxCell>
        <mxCell id="7xZTiTQt4ohjxS7sE8qV-8" value="Address" style="ellipse;whiteSpace=wrap;html=1;labelBackgroundColor=none;fillColor=#FAE5C7;strokeColor=#0F8B8D;fontColor=#143642;" parent="1" vertex="1">
          <mxGeometry x="65" y="190" width="60" height="30" as="geometry" />
        </mxCell>
        <mxCell id="7xZTiTQt4ohjxS7sE8qV-9" value="Neme of CP" style="ellipse;whiteSpace=wrap;html=1;labelBackgroundColor=none;fillColor=#FAE5C7;strokeColor=#0F8B8D;fontColor=#143642;" parent="1" vertex="1">
          <mxGeometry x="135" y="170" width="80" height="30" as="geometry" />
        </mxCell>
        <mxCell id="7xZTiTQt4ohjxS7sE8qV-14" value="" style="ellipse;whiteSpace=wrap;html=1;labelBackgroundColor=none;fillColor=#FAE5C7;strokeColor=#0F8B8D;fontColor=#143642;" parent="1" vertex="1">
          <mxGeometry x="210" y="195" width="90" height="50" as="geometry" />
        </mxCell>
        <mxCell id="7xZTiTQt4ohjxS7sE8qV-10" value="Ph-Number" style="ellipse;whiteSpace=wrap;html=1;labelBackgroundColor=none;fillColor=#FAE5C7;strokeColor=#0F8B8D;fontColor=#143642;" parent="1" vertex="1">
          <mxGeometry x="215" y="200" width="80" height="40" as="geometry" />
        </mxCell>
        <mxCell id="7xZTiTQt4ohjxS7sE8qV-15" value="name" style="ellipse;whiteSpace=wrap;html=1;labelBackgroundColor=none;fillColor=#FAE5C7;strokeColor=#0F8B8D;fontColor=#143642;" parent="1" vertex="1">
          <mxGeometry x="500" y="222" width="50" height="30" as="geometry" />
        </mxCell>
        <mxCell id="7xZTiTQt4ohjxS7sE8qV-16" value="address" style="ellipse;whiteSpace=wrap;html=1;labelBackgroundColor=none;fillColor=#FAE5C7;strokeColor=#0F8B8D;fontColor=#143642;" parent="1" vertex="1">
          <mxGeometry x="560" y="212" width="50" height="30" as="geometry" />
        </mxCell>
        <mxCell id="7xZTiTQt4ohjxS7sE8qV-17" value="birthday" style="ellipse;whiteSpace=wrap;html=1;labelBackgroundColor=none;fillColor=#FAE5C7;strokeColor=#0F8B8D;fontColor=#143642;" parent="1" vertex="1">
          <mxGeometry x="640" y="232" width="60" height="30" as="geometry" />
        </mxCell>
        <mxCell id="7xZTiTQt4ohjxS7sE8qV-18" value="day" style="ellipse;whiteSpace=wrap;html=1;labelBackgroundColor=none;fillColor=#FAE5C7;strokeColor=#0F8B8D;fontColor=#143642;" parent="1" vertex="1">
          <mxGeometry x="630" y="182" width="50" height="30" as="geometry" />
        </mxCell>
        <mxCell id="7xZTiTQt4ohjxS7sE8qV-19" value="month" style="ellipse;whiteSpace=wrap;html=1;labelBackgroundColor=none;fillColor=#FAE5C7;strokeColor=#0F8B8D;fontColor=#143642;" parent="1" vertex="1">
          <mxGeometry x="690" y="182" width="50" height="30" as="geometry" />
        </mxCell>
        <mxCell id="7xZTiTQt4ohjxS7sE8qV-20" value="year" style="ellipse;whiteSpace=wrap;html=1;labelBackgroundColor=none;fillColor=#FAE5C7;strokeColor=#0F8B8D;fontColor=#143642;" parent="1" vertex="1">
          <mxGeometry x="740" y="212" width="50" height="30" as="geometry" />
        </mxCell>
        <mxCell id="7xZTiTQt4ohjxS7sE8qV-22" value="gender" style="ellipse;whiteSpace=wrap;html=1;labelBackgroundColor=none;fillColor=#FAE5C7;strokeColor=#0F8B8D;fontColor=#143642;" parent="1" vertex="1">
          <mxGeometry x="770" y="262" width="50" height="30" as="geometry" />
        </mxCell>
        <mxCell id="7xZTiTQt4ohjxS7sE8qV-23" value="position" style="ellipse;whiteSpace=wrap;html=1;labelBackgroundColor=none;fillColor=#FAE5C7;strokeColor=#0F8B8D;fontColor=#143642;" parent="1" vertex="1">
          <mxGeometry x="790" y="312" width="50" height="30" as="geometry" />
        </mxCell>
        <mxCell id="7xZTiTQt4ohjxS7sE8qV-25" value="" style="ellipse;whiteSpace=wrap;html=1;labelBackgroundColor=none;fillColor=#FAE5C7;strokeColor=#0F8B8D;fontColor=#143642;" parent="1" vertex="1">
          <mxGeometry x="745" y="362" width="100" height="40" as="geometry" />
        </mxCell>
        <mxCell id="7xZTiTQt4ohjxS7sE8qV-24" value="qualifications" style="ellipse;whiteSpace=wrap;html=1;labelBackgroundColor=none;fillColor=#FAE5C7;strokeColor=#0F8B8D;fontColor=#143642;" parent="1" vertex="1">
          <mxGeometry x="750" y="367" width="90" height="30" as="geometry" />
        </mxCell>
        <mxCell id="7xZTiTQt4ohjxS7sE8qV-27" value="id" style="ellipse;whiteSpace=wrap;html=1;labelBackgroundColor=none;fillColor=#FAE5C7;strokeColor=#0F8B8D;fontColor=#143642;" parent="1" vertex="1">
          <mxGeometry x="5" y="542" width="60" height="27" as="geometry" />
        </mxCell>
        <mxCell id="7xZTiTQt4ohjxS7sE8qV-28" value="capacity" style="ellipse;whiteSpace=wrap;html=1;labelBackgroundColor=none;fillColor=#FAE5C7;strokeColor=#0F8B8D;fontColor=#143642;" parent="1" vertex="1">
          <mxGeometry x="5" y="584" width="50" height="30" as="geometry" />
        </mxCell>
        <mxCell id="7xZTiTQt4ohjxS7sE8qV-30" value="major-pilot" style="ellipse;whiteSpace=wrap;html=1;labelBackgroundColor=none;fillColor=#FAE5C7;strokeColor=#0F8B8D;fontColor=#143642;" parent="1" vertex="1">
          <mxGeometry x="125" y="928.08" width="64.38" height="37.5" as="geometry" />
        </mxCell>
        <mxCell id="7xZTiTQt4ohjxS7sE8qV-31" value="assistant&lt;br&gt;pilot" style="ellipse;whiteSpace=wrap;html=1;labelBackgroundColor=none;fillColor=#FAE5C7;strokeColor=#0F8B8D;fontColor=#143642;" parent="1" vertex="1">
          <mxGeometry x="167.19" y="965.58" width="60" height="42.5" as="geometry" />
        </mxCell>
        <mxCell id="7xZTiTQt4ohjxS7sE8qV-33" value="model" style="ellipse;whiteSpace=wrap;html=1;labelBackgroundColor=none;fillColor=#FAE5C7;strokeColor=#0F8B8D;fontColor=#143642;" parent="1" vertex="1">
          <mxGeometry x="5" y="627.5" width="50" height="30" as="geometry" />
        </mxCell>
        <mxCell id="7xZTiTQt4ohjxS7sE8qV-34" value="id" style="ellipse;whiteSpace=wrap;html=1;labelBackgroundColor=none;fillColor=#FAE5C7;strokeColor=#0F8B8D;fontColor=#143642;" parent="1" vertex="1">
          <mxGeometry x="570" y="867" width="60" height="40" as="geometry" />
        </mxCell>
        <mxCell id="7xZTiTQt4ohjxS7sE8qV-35" value="origin" style="ellipse;whiteSpace=wrap;html=1;labelBackgroundColor=none;fillColor=#FAE5C7;strokeColor=#0F8B8D;fontColor=#143642;" parent="1" vertex="1">
          <mxGeometry x="650" y="872" width="50" height="30" as="geometry" />
        </mxCell>
        <mxCell id="7xZTiTQt4ohjxS7sE8qV-36" value="distination" style="ellipse;whiteSpace=wrap;html=1;labelBackgroundColor=none;fillColor=#FAE5C7;strokeColor=#0F8B8D;fontColor=#143642;" parent="1" vertex="1">
          <mxGeometry x="732.5" y="861.11" width="65" height="30" as="geometry" />
        </mxCell>
        <mxCell id="7xZTiTQt4ohjxS7sE8qV-37" value="distance" style="ellipse;whiteSpace=wrap;html=1;labelBackgroundColor=none;fillColor=#FAE5C7;strokeColor=#0F8B8D;fontColor=#143642;" parent="1" vertex="1">
          <mxGeometry x="782.5" y="806.11" width="50" height="30" as="geometry" />
        </mxCell>
        <mxCell id="7xZTiTQt4ohjxS7sE8qV-38" value="classification" style="ellipse;whiteSpace=wrap;html=1;labelBackgroundColor=none;fillColor=#FAE5C7;strokeColor=#0F8B8D;fontColor=#143642;" parent="1" vertex="1">
          <mxGeometry x="770" y="766.11" width="75" height="30" as="geometry" />
        </mxCell>
        <mxCell id="7xZTiTQt4ohjxS7sE8qV-39" value="id" style="ellipse;whiteSpace=wrap;html=1;labelBackgroundColor=none;fillColor=#FAE5C7;strokeColor=#0F8B8D;fontColor=#143642;" parent="1" vertex="1">
          <mxGeometry x="475" y="537" width="65" height="32" as="geometry" />
        </mxCell>
        <mxCell id="7xZTiTQt4ohjxS7sE8qV-40" value="amount" style="ellipse;whiteSpace=wrap;html=1;labelBackgroundColor=none;fillColor=#FAE5C7;strokeColor=#0F8B8D;fontColor=#143642;" parent="1" vertex="1">
          <mxGeometry x="625" y="427" width="50" height="30" as="geometry" />
        </mxCell>
        <mxCell id="7xZTiTQt4ohjxS7sE8qV-41" value="date" style="ellipse;whiteSpace=wrap;html=1;labelBackgroundColor=none;fillColor=#FAE5C7;strokeColor=#0F8B8D;fontColor=#143642;" parent="1" vertex="1">
          <mxGeometry x="560" y="524" width="50" height="30" as="geometry" />
        </mxCell>
        <mxCell id="7xZTiTQt4ohjxS7sE8qV-42" value="description" style="ellipse;whiteSpace=wrap;html=1;labelBackgroundColor=none;fillColor=#FAE5C7;strokeColor=#0F8B8D;fontColor=#143642;" parent="1" vertex="1">
          <mxGeometry x="620" y="489" width="70" height="30" as="geometry" />
        </mxCell>
        <mxCell id="7xZTiTQt4ohjxS7sE8qV-47" value="" style="endArrow=none;html=1;rounded=0;entryX=1;entryY=0.5;entryDx=0;entryDy=0;exitX=0;exitY=0.75;exitDx=0;exitDy=0;labelBackgroundColor=none;strokeColor=#A8201A;fontColor=default;" parent="1" source="7xZTiTQt4ohjxS7sE8qV-1" target="7xZTiTQt4ohjxS7sE8qV-6" edge="1">
          <mxGeometry width="50" height="50" relative="1" as="geometry">
            <mxPoint x="405" y="430" as="sourcePoint" />
            <mxPoint x="455" y="380" as="targetPoint" />
          </mxGeometry>
        </mxCell>
        <mxCell id="7xZTiTQt4ohjxS7sE8qV-48" value="" style="endArrow=none;html=1;rounded=0;entryX=1;entryY=0.5;entryDx=0;entryDy=0;exitX=0;exitY=0.5;exitDx=0;exitDy=0;labelBackgroundColor=none;strokeColor=#A8201A;fontColor=default;" parent="1" source="7xZTiTQt4ohjxS7sE8qV-1" target="7xZTiTQt4ohjxS7sE8qV-7" edge="1">
          <mxGeometry width="50" height="50" relative="1" as="geometry">
            <mxPoint x="115" y="290" as="sourcePoint" />
            <mxPoint x="75" y="305" as="targetPoint" />
          </mxGeometry>
        </mxCell>
        <mxCell id="7xZTiTQt4ohjxS7sE8qV-49" value="" style="endArrow=none;html=1;rounded=0;exitX=0.142;exitY=-0.072;exitDx=0;exitDy=0;exitPerimeter=0;labelBackgroundColor=none;strokeColor=#A8201A;fontColor=default;" parent="1" source="7xZTiTQt4ohjxS7sE8qV-1" target="7xZTiTQt4ohjxS7sE8qV-8" edge="1">
          <mxGeometry width="50" height="50" relative="1" as="geometry">
            <mxPoint x="115" y="280" as="sourcePoint" />
            <mxPoint x="85" y="265" as="targetPoint" />
          </mxGeometry>
        </mxCell>
        <mxCell id="7xZTiTQt4ohjxS7sE8qV-50" value="" style="endArrow=none;html=1;rounded=0;entryX=0.5;entryY=1;entryDx=0;entryDy=0;exitX=0.5;exitY=0;exitDx=0;exitDy=0;labelBackgroundColor=none;strokeColor=#A8201A;fontColor=default;" parent="1" source="7xZTiTQt4ohjxS7sE8qV-1" target="7xZTiTQt4ohjxS7sE8qV-9" edge="1">
          <mxGeometry width="50" height="50" relative="1" as="geometry">
            <mxPoint x="175" y="240" as="sourcePoint" />
            <mxPoint x="114" y="229" as="targetPoint" />
          </mxGeometry>
        </mxCell>
        <mxCell id="7xZTiTQt4ohjxS7sE8qV-51" value="" style="endArrow=none;html=1;rounded=0;entryX=0.026;entryY=0.8;entryDx=0;entryDy=0;exitX=0.816;exitY=-0.006;exitDx=0;exitDy=0;entryPerimeter=0;exitPerimeter=0;labelBackgroundColor=none;strokeColor=#A8201A;fontColor=default;" parent="1" source="7xZTiTQt4ohjxS7sE8qV-1" target="7xZTiTQt4ohjxS7sE8qV-10" edge="1">
          <mxGeometry width="50" height="50" relative="1" as="geometry">
            <mxPoint x="175" y="260" as="sourcePoint" />
            <mxPoint x="185" y="210" as="targetPoint" />
          </mxGeometry>
        </mxCell>
        <mxCell id="7xZTiTQt4ohjxS7sE8qV-52" value="" style="endArrow=none;html=1;rounded=0;exitX=1;exitY=1;exitDx=0;exitDy=0;entryX=0;entryY=0;entryDx=0;entryDy=0;labelBackgroundColor=none;strokeColor=#A8201A;fontColor=default;" parent="1" source="7xZTiTQt4ohjxS7sE8qV-27" target="7xZTiTQt4ohjxS7sE8qV-3" edge="1">
          <mxGeometry width="50" height="50" relative="1" as="geometry">
            <mxPoint x="425" y="504" as="sourcePoint" />
            <mxPoint x="475" y="454" as="targetPoint" />
          </mxGeometry>
        </mxCell>
        <mxCell id="7xZTiTQt4ohjxS7sE8qV-53" value="" style="endArrow=none;html=1;rounded=0;exitX=1;exitY=0.5;exitDx=0;exitDy=0;labelBackgroundColor=none;strokeColor=#A8201A;fontColor=default;entryX=0;entryY=0.5;entryDx=0;entryDy=0;" parent="1" source="7xZTiTQt4ohjxS7sE8qV-28" target="7xZTiTQt4ohjxS7sE8qV-3" edge="1">
          <mxGeometry width="50" height="50" relative="1" as="geometry">
            <mxPoint x="5" y="599" as="sourcePoint" />
            <mxPoint x="95" y="612" as="targetPoint" />
          </mxGeometry>
        </mxCell>
        <mxCell id="7xZTiTQt4ohjxS7sE8qV-55" value="" style="endArrow=none;html=1;rounded=0;entryX=1;entryY=0.5;entryDx=0;entryDy=0;exitX=0;exitY=0.75;exitDx=0;exitDy=0;labelBackgroundColor=none;strokeColor=#A8201A;fontColor=default;" parent="1" source="7xZTiTQt4ohjxS7sE8qV-3" target="7xZTiTQt4ohjxS7sE8qV-33" edge="1">
          <mxGeometry width="50" height="50" relative="1" as="geometry">
            <mxPoint x="80" y="634" as="sourcePoint" />
            <mxPoint x="50" y="692" as="targetPoint" />
          </mxGeometry>
        </mxCell>
        <mxCell id="7xZTiTQt4ohjxS7sE8qV-56" value="" style="endArrow=none;html=1;rounded=0;exitX=0.248;exitY=0.01;exitDx=0;exitDy=0;exitPerimeter=0;labelBackgroundColor=none;strokeColor=#A8201A;fontColor=default;" parent="1" source="7xZTiTQt4ohjxS7sE8qV-45" target="0BEgyjrSs3sw41b4Ue6r-28" edge="1">
          <mxGeometry width="50" height="50" relative="1" as="geometry">
            <mxPoint x="268.44" y="805.08" as="sourcePoint" />
            <mxPoint x="237.19000000000005" y="902.19" as="targetPoint" />
          </mxGeometry>
        </mxCell>
        <mxCell id="7xZTiTQt4ohjxS7sE8qV-57" value="" style="endArrow=none;html=1;rounded=0;labelBackgroundColor=none;strokeColor=#A8201A;fontColor=default;exitX=0.677;exitY=0.002;exitDx=0;exitDy=0;exitPerimeter=0;" parent="1" source="7xZTiTQt4ohjxS7sE8qV-31" target="0BEgyjrSs3sw41b4Ue6r-28" edge="1">
          <mxGeometry width="50" height="50" relative="1" as="geometry">
            <mxPoint x="220.52536183461626" y="943.1043420153924" as="sourcePoint" />
            <mxPoint x="217.19000000000005" y="902.19" as="targetPoint" />
          </mxGeometry>
        </mxCell>
        <mxCell id="7xZTiTQt4ohjxS7sE8qV-58" value="" style="endArrow=none;html=1;rounded=0;exitX=1;exitY=0;exitDx=0;exitDy=0;labelBackgroundColor=none;strokeColor=#A8201A;fontColor=default;" parent="1" source="7xZTiTQt4ohjxS7sE8qV-30" target="0BEgyjrSs3sw41b4Ue6r-28" edge="1">
          <mxGeometry width="50" height="50" relative="1" as="geometry">
            <mxPoint x="228.44" y="945.08" as="sourcePoint" />
            <mxPoint x="195" y="902.19" as="targetPoint" />
          </mxGeometry>
        </mxCell>
        <mxCell id="7xZTiTQt4ohjxS7sE8qV-59" value="" style="endArrow=none;html=1;rounded=0;exitX=0.733;exitY=0.075;exitDx=0;exitDy=0;entryX=0.443;entryY=0.987;entryDx=0;entryDy=0;labelBackgroundColor=none;strokeColor=#A8201A;fontColor=default;entryPerimeter=0;exitPerimeter=0;" parent="1" source="7xZTiTQt4ohjxS7sE8qV-34" target="7xZTiTQt4ohjxS7sE8qV-4" edge="1">
          <mxGeometry width="50" height="50" relative="1" as="geometry">
            <mxPoint x="540.4932034355963" y="831.967864376269" as="sourcePoint" />
            <mxPoint x="624.28" y="571.11" as="targetPoint" />
          </mxGeometry>
        </mxCell>
        <mxCell id="7xZTiTQt4ohjxS7sE8qV-60" value="" style="endArrow=none;html=1;rounded=0;exitX=0.5;exitY=0;exitDx=0;exitDy=0;labelBackgroundColor=none;strokeColor=#A8201A;fontColor=default;entryX=0.656;entryY=0.987;entryDx=0;entryDy=0;entryPerimeter=0;" parent="1" source="7xZTiTQt4ohjxS7sE8qV-35" target="7xZTiTQt4ohjxS7sE8qV-4" edge="1">
          <mxGeometry width="50" height="50" relative="1" as="geometry">
            <mxPoint x="547.28" y="855.11" as="sourcePoint" />
            <mxPoint x="594.28" y="831.11" as="targetPoint" />
            <Array as="points">
              <mxPoint x="676" y="842" />
            </Array>
          </mxGeometry>
        </mxCell>
        <mxCell id="7xZTiTQt4ohjxS7sE8qV-61" value="" style="endArrow=none;html=1;rounded=0;entryX=0.809;entryY=0.967;entryDx=0;entryDy=0;entryPerimeter=0;labelBackgroundColor=none;strokeColor=#A8201A;fontColor=default;exitX=0;exitY=0;exitDx=0;exitDy=0;" parent="1" source="7xZTiTQt4ohjxS7sE8qV-36" target="7xZTiTQt4ohjxS7sE8qV-4" edge="1">
          <mxGeometry width="50" height="50" relative="1" as="geometry">
            <mxPoint x="765" y="861" as="sourcePoint" />
            <mxPoint x="636.28" y="836.11" as="targetPoint" />
            <Array as="points" />
          </mxGeometry>
        </mxCell>
        <mxCell id="7xZTiTQt4ohjxS7sE8qV-62" value="" style="endArrow=none;html=1;rounded=0;exitX=0;exitY=0.5;exitDx=0;exitDy=0;entryX=1;entryY=0.75;entryDx=0;entryDy=0;labelBackgroundColor=none;strokeColor=#A8201A;fontColor=default;" parent="1" source="7xZTiTQt4ohjxS7sE8qV-37" target="7xZTiTQt4ohjxS7sE8qV-4" edge="1">
          <mxGeometry width="50" height="50" relative="1" as="geometry">
            <mxPoint x="662.28" y="901.11" as="sourcePoint" />
            <mxPoint x="684.28" y="831.11" as="targetPoint" />
          </mxGeometry>
        </mxCell>
        <mxCell id="7xZTiTQt4ohjxS7sE8qV-63" value="" style="endArrow=none;html=1;rounded=0;exitX=0;exitY=0.5;exitDx=0;exitDy=0;labelBackgroundColor=none;strokeColor=#A8201A;fontColor=default;entryX=1;entryY=0.5;entryDx=0;entryDy=0;" parent="1" source="7xZTiTQt4ohjxS7sE8qV-38" target="7xZTiTQt4ohjxS7sE8qV-4" edge="1">
          <mxGeometry width="50" height="50" relative="1" as="geometry">
            <mxPoint x="739.28" y="901.11" as="sourcePoint" />
            <mxPoint x="719" y="776" as="targetPoint" />
            <Array as="points" />
          </mxGeometry>
        </mxCell>
        <mxCell id="7xZTiTQt4ohjxS7sE8qV-64" value="" style="endArrow=none;html=1;rounded=0;exitX=0.5;exitY=0;exitDx=0;exitDy=0;entryX=0.168;entryY=0.994;entryDx=0;entryDy=0;entryPerimeter=0;labelBackgroundColor=none;strokeColor=#A8201A;fontColor=default;" parent="1" source="7xZTiTQt4ohjxS7sE8qV-39" target="7xZTiTQt4ohjxS7sE8qV-5" edge="1">
          <mxGeometry width="50" height="50" relative="1" as="geometry">
            <mxPoint x="296" y="633" as="sourcePoint" />
            <mxPoint x="239.99999999999997" y="594" as="targetPoint" />
          </mxGeometry>
        </mxCell>
        <mxCell id="7xZTiTQt4ohjxS7sE8qV-65" value="" style="endArrow=none;html=1;rounded=0;exitX=0;exitY=0;exitDx=0;exitDy=0;entryX=0.612;entryY=1.017;entryDx=0;entryDy=0;entryPerimeter=0;labelBackgroundColor=none;strokeColor=#A8201A;fontColor=default;" parent="1" source="7xZTiTQt4ohjxS7sE8qV-41" target="7xZTiTQt4ohjxS7sE8qV-5" edge="1">
          <mxGeometry width="50" height="50" relative="1" as="geometry">
            <mxPoint x="435" y="589" as="sourcePoint" />
            <mxPoint x="450" y="539" as="targetPoint" />
          </mxGeometry>
        </mxCell>
        <mxCell id="7xZTiTQt4ohjxS7sE8qV-66" value="" style="endArrow=none;html=1;rounded=0;exitX=0;exitY=0;exitDx=0;exitDy=0;entryX=1;entryY=1;entryDx=0;entryDy=0;labelBackgroundColor=none;strokeColor=#A8201A;fontColor=default;" parent="1" source="7xZTiTQt4ohjxS7sE8qV-42" target="7xZTiTQt4ohjxS7sE8qV-5" edge="1">
          <mxGeometry width="50" height="50" relative="1" as="geometry">
            <mxPoint x="497" y="593" as="sourcePoint" />
            <mxPoint x="503" y="540" as="targetPoint" />
          </mxGeometry>
        </mxCell>
        <mxCell id="7xZTiTQt4ohjxS7sE8qV-67" value="" style="endArrow=none;html=1;rounded=0;exitX=0;exitY=0.5;exitDx=0;exitDy=0;entryX=1;entryY=0.5;entryDx=0;entryDy=0;labelBackgroundColor=none;strokeColor=#A8201A;fontColor=default;" parent="1" source="7xZTiTQt4ohjxS7sE8qV-40" target="7xZTiTQt4ohjxS7sE8qV-5" edge="1">
          <mxGeometry width="50" height="50" relative="1" as="geometry">
            <mxPoint x="570" y="573" as="sourcePoint" />
            <mxPoint x="550" y="539" as="targetPoint" />
          </mxGeometry>
        </mxCell>
        <mxCell id="7xZTiTQt4ohjxS7sE8qV-68" value="" style="endArrow=none;html=1;rounded=0;exitX=0;exitY=0.5;exitDx=0;exitDy=0;entryX=1;entryY=1;entryDx=0;entryDy=0;labelBackgroundColor=none;strokeColor=#A8201A;fontColor=default;" parent="1" source="7xZTiTQt4ohjxS7sE8qV-24" target="7xZTiTQt4ohjxS7sE8qV-2" edge="1">
          <mxGeometry width="50" height="50" relative="1" as="geometry">
            <mxPoint x="880" y="607" as="sourcePoint" />
            <mxPoint x="810" y="602" as="targetPoint" />
          </mxGeometry>
        </mxCell>
        <mxCell id="7xZTiTQt4ohjxS7sE8qV-69" value="" style="endArrow=none;html=1;rounded=0;exitX=0;exitY=0.5;exitDx=0;exitDy=0;entryX=1;entryY=0.5;entryDx=0;entryDy=0;labelBackgroundColor=none;strokeColor=#A8201A;fontColor=default;" parent="1" source="7xZTiTQt4ohjxS7sE8qV-23" target="7xZTiTQt4ohjxS7sE8qV-2" edge="1">
          <mxGeometry width="50" height="50" relative="1" as="geometry">
            <mxPoint x="760" y="392" as="sourcePoint" />
            <mxPoint x="700" y="332" as="targetPoint" />
          </mxGeometry>
        </mxCell>
        <mxCell id="7xZTiTQt4ohjxS7sE8qV-70" value="" style="endArrow=none;html=1;rounded=0;exitX=0;exitY=0.5;exitDx=0;exitDy=0;entryX=1;entryY=0;entryDx=0;entryDy=0;labelBackgroundColor=none;strokeColor=#A8201A;fontColor=default;" parent="1" source="7xZTiTQt4ohjxS7sE8qV-22" target="7xZTiTQt4ohjxS7sE8qV-2" edge="1">
          <mxGeometry width="50" height="50" relative="1" as="geometry">
            <mxPoint x="800" y="337" as="sourcePoint" />
            <mxPoint x="700" y="312" as="targetPoint" />
          </mxGeometry>
        </mxCell>
        <mxCell id="7xZTiTQt4ohjxS7sE8qV-71" value="" style="endArrow=none;html=1;rounded=0;entryX=1;entryY=0.5;entryDx=0;entryDy=0;labelBackgroundColor=none;strokeColor=#A8201A;fontColor=default;" parent="1" source="7xZTiTQt4ohjxS7sE8qV-20" target="7xZTiTQt4ohjxS7sE8qV-17" edge="1">
          <mxGeometry width="50" height="50" relative="1" as="geometry">
            <mxPoint x="780" y="287" as="sourcePoint" />
            <mxPoint x="700" y="292" as="targetPoint" />
          </mxGeometry>
        </mxCell>
        <mxCell id="7xZTiTQt4ohjxS7sE8qV-72" value="" style="endArrow=none;html=1;rounded=0;entryX=1;entryY=0;entryDx=0;entryDy=0;exitX=0.327;exitY=0.963;exitDx=0;exitDy=0;exitPerimeter=0;labelBackgroundColor=none;strokeColor=#A8201A;fontColor=default;" parent="1" source="7xZTiTQt4ohjxS7sE8qV-19" target="7xZTiTQt4ohjxS7sE8qV-17" edge="1">
          <mxGeometry width="50" height="50" relative="1" as="geometry">
            <mxPoint x="753" y="244" as="sourcePoint" />
            <mxPoint x="710" y="257" as="targetPoint" />
          </mxGeometry>
        </mxCell>
        <mxCell id="7xZTiTQt4ohjxS7sE8qV-73" value="" style="endArrow=none;html=1;rounded=0;exitX=0.5;exitY=1;exitDx=0;exitDy=0;entryX=0.35;entryY=-0.081;entryDx=0;entryDy=0;entryPerimeter=0;labelBackgroundColor=none;strokeColor=#A8201A;fontColor=default;" parent="1" source="7xZTiTQt4ohjxS7sE8qV-18" target="7xZTiTQt4ohjxS7sE8qV-17" edge="1">
          <mxGeometry width="50" height="50" relative="1" as="geometry">
            <mxPoint x="716" y="221" as="sourcePoint" />
            <mxPoint x="670" y="242" as="targetPoint" />
          </mxGeometry>
        </mxCell>
        <mxCell id="7xZTiTQt4ohjxS7sE8qV-74" value="" style="endArrow=none;html=1;rounded=0;entryX=0;entryY=0.5;entryDx=0;entryDy=0;labelBackgroundColor=none;strokeColor=#A8201A;fontColor=default;" parent="1" source="7xZTiTQt4ohjxS7sE8qV-12" target="7xZTiTQt4ohjxS7sE8qV-2" edge="1">
          <mxGeometry width="50" height="50" relative="1" as="geometry">
            <mxPoint x="500" y="272" as="sourcePoint" />
            <mxPoint x="410" y="422" as="targetPoint" />
          </mxGeometry>
        </mxCell>
        <mxCell id="7xZTiTQt4ohjxS7sE8qV-75" value="" style="endArrow=none;html=1;rounded=0;entryX=0;entryY=0;entryDx=0;entryDy=0;exitX=1;exitY=1;exitDx=0;exitDy=0;labelBackgroundColor=none;strokeColor=#A8201A;fontColor=default;" parent="1" source="7xZTiTQt4ohjxS7sE8qV-15" target="7xZTiTQt4ohjxS7sE8qV-2" edge="1">
          <mxGeometry width="50" height="50" relative="1" as="geometry">
            <mxPoint x="521" y="288" as="sourcePoint" />
            <mxPoint x="580" y="312" as="targetPoint" />
          </mxGeometry>
        </mxCell>
        <mxCell id="7xZTiTQt4ohjxS7sE8qV-76" value="" style="endArrow=none;html=1;rounded=0;entryX=0;entryY=0.5;entryDx=0;entryDy=0;labelBackgroundColor=none;strokeColor=#A8201A;fontColor=default;" parent="1" target="7xZTiTQt4ohjxS7sE8qV-12" edge="1">
          <mxGeometry width="50" height="50" relative="1" as="geometry">
            <mxPoint x="500" y="272" as="sourcePoint" />
            <mxPoint x="570" y="302" as="targetPoint" />
          </mxGeometry>
        </mxCell>
        <mxCell id="7xZTiTQt4ohjxS7sE8qV-12" value="id" style="ellipse;whiteSpace=wrap;html=1;labelBackgroundColor=none;fillColor=#FAE5C7;strokeColor=#0F8B8D;fontColor=#143642;" parent="1" vertex="1">
          <mxGeometry x="465" y="257" width="60" height="30" as="geometry" />
        </mxCell>
        <mxCell id="7xZTiTQt4ohjxS7sE8qV-77" value="" style="endArrow=none;html=1;rounded=0;entryX=0.25;entryY=0;entryDx=0;entryDy=0;exitX=0.5;exitY=1;exitDx=0;exitDy=0;labelBackgroundColor=none;strokeColor=#A8201A;fontColor=default;" parent="1" source="7xZTiTQt4ohjxS7sE8qV-16" target="7xZTiTQt4ohjxS7sE8qV-2" edge="1">
          <mxGeometry width="50" height="50" relative="1" as="geometry">
            <mxPoint x="553" y="258" as="sourcePoint" />
            <mxPoint x="580" y="292" as="targetPoint" />
          </mxGeometry>
        </mxCell>
        <mxCell id="7xZTiTQt4ohjxS7sE8qV-78" value="" style="endArrow=none;html=1;rounded=0;entryX=0.61;entryY=-0.067;entryDx=0;entryDy=0;exitX=0;exitY=1;exitDx=0;exitDy=0;entryPerimeter=0;labelBackgroundColor=none;strokeColor=#A8201A;fontColor=default;" parent="1" source="7xZTiTQt4ohjxS7sE8qV-17" target="7xZTiTQt4ohjxS7sE8qV-2" edge="1">
          <mxGeometry width="50" height="50" relative="1" as="geometry">
            <mxPoint x="595" y="252" as="sourcePoint" />
            <mxPoint x="610" y="292" as="targetPoint" />
          </mxGeometry>
        </mxCell>
        <mxCell id="7xZTiTQt4ohjxS7sE8qV-79" value="ownes" style="rhombus;whiteSpace=wrap;html=1;labelBackgroundColor=none;fillColor=#FAE5C7;strokeColor=#0F8B8D;fontColor=#143642;" parent="1" vertex="1">
          <mxGeometry x="105" y="432" width="70" height="50" as="geometry" />
        </mxCell>
        <mxCell id="7xZTiTQt4ohjxS7sE8qV-80" value="" style="endArrow=none;html=1;rounded=0;entryX=0.371;entryY=0.994;entryDx=0;entryDy=0;entryPerimeter=0;exitX=0.5;exitY=0;exitDx=0;exitDy=0;labelBackgroundColor=none;strokeColor=#A8201A;fontColor=default;" parent="1" source="7xZTiTQt4ohjxS7sE8qV-79" target="7xZTiTQt4ohjxS7sE8qV-1" edge="1">
          <mxGeometry width="50" height="50" relative="1" as="geometry">
            <mxPoint x="265" y="482" as="sourcePoint" />
            <mxPoint x="315" y="432" as="targetPoint" />
          </mxGeometry>
        </mxCell>
        <mxCell id="7xZTiTQt4ohjxS7sE8qV-81" value="" style="endArrow=none;html=1;rounded=0;entryX=0.636;entryY=-0.039;entryDx=0;entryDy=0;entryPerimeter=0;exitX=0.5;exitY=1;exitDx=0;exitDy=0;labelBackgroundColor=none;strokeColor=#A8201A;fontColor=default;" parent="1" source="7xZTiTQt4ohjxS7sE8qV-79" target="7xZTiTQt4ohjxS7sE8qV-3" edge="1">
          <mxGeometry width="50" height="50" relative="1" as="geometry">
            <mxPoint x="85" y="480" as="sourcePoint" />
            <mxPoint x="65" y="565" as="targetPoint" />
          </mxGeometry>
        </mxCell>
        <mxCell id="7xZTiTQt4ohjxS7sE8qV-84" value="1" style="text;html=1;align=center;verticalAlign=middle;resizable=0;points=[];autosize=1;strokeColor=none;fillColor=none;labelBackgroundColor=none;fontColor=#143642;" parent="1" vertex="1">
          <mxGeometry x="115" y="332" width="30" height="30" as="geometry" />
        </mxCell>
        <mxCell id="7xZTiTQt4ohjxS7sE8qV-86" value="m" style="text;html=1;align=center;verticalAlign=middle;resizable=0;points=[];autosize=1;strokeColor=none;fillColor=none;labelBackgroundColor=none;fontColor=#143642;" parent="1" vertex="1">
          <mxGeometry x="115" y="522" width="30" height="30" as="geometry" />
        </mxCell>
        <mxCell id="7xZTiTQt4ohjxS7sE8qV-88" value="works" style="rhombus;whiteSpace=wrap;html=1;labelBackgroundColor=none;fillColor=#FAE5C7;strokeColor=#0F8B8D;fontColor=#143642;" parent="1" vertex="1">
          <mxGeometry x="375" y="280" width="60" height="50" as="geometry" />
        </mxCell>
        <mxCell id="7xZTiTQt4ohjxS7sE8qV-89" value="" style="endArrow=none;html=1;rounded=0;exitX=1;exitY=0.5;exitDx=0;exitDy=0;entryX=0;entryY=0.5;entryDx=0;entryDy=0;labelBackgroundColor=none;strokeColor=#A8201A;fontColor=default;" parent="1" source="7xZTiTQt4ohjxS7sE8qV-1" target="7xZTiTQt4ohjxS7sE8qV-88" edge="1">
          <mxGeometry width="50" height="50" relative="1" as="geometry">
            <mxPoint x="265" y="482" as="sourcePoint" />
            <mxPoint x="315" y="432" as="targetPoint" />
          </mxGeometry>
        </mxCell>
        <mxCell id="7xZTiTQt4ohjxS7sE8qV-90" value="" style="endArrow=none;html=1;rounded=0;exitX=1;exitY=0.5;exitDx=0;exitDy=0;labelBackgroundColor=none;strokeColor=#A8201A;fontColor=default;entryX=0;entryY=0.75;entryDx=0;entryDy=0;" parent="1" source="7xZTiTQt4ohjxS7sE8qV-88" target="7xZTiTQt4ohjxS7sE8qV-2" edge="1">
          <mxGeometry width="50" height="50" relative="1" as="geometry">
            <mxPoint x="95" y="332" as="sourcePoint" />
            <mxPoint x="565" y="322" as="targetPoint" />
          </mxGeometry>
        </mxCell>
        <mxCell id="7xZTiTQt4ohjxS7sE8qV-91" value="1" style="text;html=1;align=center;verticalAlign=middle;resizable=0;points=[];autosize=1;strokeColor=none;fillColor=none;labelBackgroundColor=none;fontColor=#143642;" parent="1" vertex="1">
          <mxGeometry x="300" y="260" width="30" height="30" as="geometry" />
        </mxCell>
        <mxCell id="7xZTiTQt4ohjxS7sE8qV-92" value="m" style="text;html=1;align=center;verticalAlign=middle;resizable=0;points=[];autosize=1;strokeColor=none;fillColor=none;labelBackgroundColor=none;fontColor=#143642;" parent="1" vertex="1">
          <mxGeometry x="465" y="290" width="30" height="30" as="geometry" />
        </mxCell>
        <mxCell id="7xZTiTQt4ohjxS7sE8qV-93" value="assigned" style="rhombus;whiteSpace=wrap;html=1;labelBackgroundColor=none;fillColor=#FAE5C7;strokeColor=#0F8B8D;fontColor=#143642;" parent="1" vertex="1">
          <mxGeometry x="364.28" y="677.57" width="70" height="50" as="geometry" />
        </mxCell>
        <mxCell id="7xZTiTQt4ohjxS7sE8qV-94" value="" style="endArrow=none;html=1;rounded=0;exitX=0;exitY=0.5;exitDx=0;exitDy=0;labelBackgroundColor=none;strokeColor=#A8201A;fontColor=default;entryX=1;entryY=0.75;entryDx=0;entryDy=0;" parent="1" source="7xZTiTQt4ohjxS7sE8qV-93" target="7xZTiTQt4ohjxS7sE8qV-3" edge="1">
          <mxGeometry width="50" height="50" relative="1" as="geometry">
            <mxPoint x="189.28" y="598.46" as="sourcePoint" />
            <mxPoint x="283.30999999999995" y="585.06" as="targetPoint" />
          </mxGeometry>
        </mxCell>
        <mxCell id="7xZTiTQt4ohjxS7sE8qV-95" value="" style="endArrow=none;html=1;rounded=0;labelBackgroundColor=none;strokeColor=#A8201A;fontColor=default;exitX=0.395;exitY=-0.09;exitDx=0;exitDy=0;exitPerimeter=0;" parent="1" target="7xZTiTQt4ohjxS7sE8qV-93" edge="1">
          <mxGeometry width="50" height="50" relative="1" as="geometry">
            <mxPoint x="596.6800000000001" y="776.1100000000001" as="sourcePoint" />
            <mxPoint x="119.28" y="690.46" as="targetPoint" />
          </mxGeometry>
        </mxCell>
        <mxCell id="7xZTiTQt4ohjxS7sE8qV-96" value="m" style="text;html=1;align=center;verticalAlign=middle;resizable=0;points=[];autosize=1;strokeColor=none;fillColor=none;labelBackgroundColor=none;fontColor=#143642;" parent="1" vertex="1">
          <mxGeometry x="265" y="677" width="30" height="30" as="geometry" />
        </mxCell>
        <mxCell id="7xZTiTQt4ohjxS7sE8qV-97" value="m" style="text;html=1;align=center;verticalAlign=middle;resizable=0;points=[];autosize=1;strokeColor=none;fillColor=none;labelBackgroundColor=none;fontColor=#143642;" parent="1" vertex="1">
          <mxGeometry x="504.28" y="752" width="30" height="30" as="geometry" />
        </mxCell>
        <mxCell id="7xZTiTQt4ohjxS7sE8qV-105" value="N of Passengers" style="ellipse;whiteSpace=wrap;html=1;labelBackgroundColor=none;fillColor=#FAE5C7;strokeColor=#0F8B8D;fontColor=#143642;" parent="1" vertex="1">
          <mxGeometry x="300" y="614" width="95" height="44" as="geometry" />
        </mxCell>
        <mxCell id="7xZTiTQt4ohjxS7sE8qV-106" value="Price per Passenger" style="ellipse;whiteSpace=wrap;html=1;labelBackgroundColor=none;fillColor=#FAE5C7;strokeColor=#0F8B8D;fontColor=#143642;" parent="1" vertex="1">
          <mxGeometry x="330" y="582" width="110" height="30" as="geometry" />
        </mxCell>
        <mxCell id="7xZTiTQt4ohjxS7sE8qV-107" value="departure-datetime" style="ellipse;whiteSpace=wrap;html=1;labelBackgroundColor=none;fillColor=#FAE5C7;strokeColor=#0F8B8D;fontColor=#143642;" parent="1" vertex="1">
          <mxGeometry x="434.28" y="596.5" width="70" height="35" as="geometry" />
        </mxCell>
        <mxCell id="7xZTiTQt4ohjxS7sE8qV-108" value="arrival datetime" style="ellipse;whiteSpace=wrap;html=1;labelBackgroundColor=none;fillColor=#FAE5C7;strokeColor=#0F8B8D;fontColor=#143642;" parent="1" vertex="1">
          <mxGeometry x="455" y="634" width="70" height="37" as="geometry" />
        </mxCell>
        <mxCell id="7xZTiTQt4ohjxS7sE8qV-111" value="" style="endArrow=none;html=1;rounded=0;exitX=0;exitY=0;exitDx=0;exitDy=0;labelBackgroundColor=none;strokeColor=#A8201A;fontColor=default;entryX=0.699;entryY=1.014;entryDx=0;entryDy=0;entryPerimeter=0;" parent="1" source="7xZTiTQt4ohjxS7sE8qV-93" target="7xZTiTQt4ohjxS7sE8qV-105" edge="1">
          <mxGeometry width="50" height="50" relative="1" as="geometry">
            <mxPoint x="370.99572875253807" y="614.317864376269" as="sourcePoint" />
            <mxPoint x="329.28" y="600.46" as="targetPoint" />
          </mxGeometry>
        </mxCell>
        <mxCell id="7xZTiTQt4ohjxS7sE8qV-112" value="" style="endArrow=none;html=1;rounded=0;entryX=0.651;entryY=0.948;entryDx=0;entryDy=0;entryPerimeter=0;exitX=0.5;exitY=0;exitDx=0;exitDy=0;labelBackgroundColor=none;strokeColor=#A8201A;fontColor=default;" parent="1" source="7xZTiTQt4ohjxS7sE8qV-93" target="7xZTiTQt4ohjxS7sE8qV-106" edge="1">
          <mxGeometry width="50" height="50" relative="1" as="geometry">
            <mxPoint x="399.28" y="608.46" as="sourcePoint" />
            <mxPoint x="348.28" y="613.46" as="targetPoint" />
          </mxGeometry>
        </mxCell>
        <mxCell id="7xZTiTQt4ohjxS7sE8qV-113" value="" style="endArrow=none;html=1;rounded=0;entryX=0.267;entryY=0.94;entryDx=0;entryDy=0;entryPerimeter=0;exitX=0.614;exitY=0.14;exitDx=0;exitDy=0;exitPerimeter=0;labelBackgroundColor=none;strokeColor=#A8201A;fontColor=default;" parent="1" source="7xZTiTQt4ohjxS7sE8qV-93" target="7xZTiTQt4ohjxS7sE8qV-107" edge="1">
          <mxGeometry width="50" height="50" relative="1" as="geometry">
            <mxPoint x="419.8399999999999" y="611.9000000000001" as="sourcePoint" />
            <mxPoint x="398.28" y="573.46" as="targetPoint" />
          </mxGeometry>
        </mxCell>
        <mxCell id="7xZTiTQt4ohjxS7sE8qV-114" value="" style="endArrow=none;html=1;rounded=0;entryX=0.037;entryY=0.742;entryDx=0;entryDy=0;entryPerimeter=0;exitX=0.671;exitY=0.188;exitDx=0;exitDy=0;labelBackgroundColor=none;strokeColor=#A8201A;fontColor=default;exitPerimeter=0;" parent="1" source="7xZTiTQt4ohjxS7sE8qV-93" target="7xZTiTQt4ohjxS7sE8qV-108" edge="1">
          <mxGeometry width="50" height="50" relative="1" as="geometry">
            <mxPoint x="427.5642712474619" y="614.317864376269" as="sourcePoint" />
            <mxPoint x="453.28" y="578.46" as="targetPoint" />
          </mxGeometry>
        </mxCell>
        <mxCell id="7xZTiTQt4ohjxS7sE8qV-115" value="" style="endArrow=none;html=1;rounded=0;entryX=0.047;entryY=0.777;entryDx=0;entryDy=0;exitX=1;exitY=0;exitDx=0;exitDy=0;labelBackgroundColor=none;strokeColor=#A8201A;fontColor=default;entryPerimeter=0;" parent="1" source="7xZTiTQt4ohjxS7sE8qV-93" target="0BEgyjrSs3sw41b4Ue6r-22" edge="1">
          <mxGeometry width="50" height="50" relative="1" as="geometry">
            <mxPoint x="439.28" y="628.46" as="sourcePoint" />
            <mxPoint x="519.28" y="642.46" as="targetPoint" />
          </mxGeometry>
        </mxCell>
        <mxCell id="0BEgyjrSs3sw41b4Ue6r-1" value="" style="endArrow=none;html=1;rounded=0;labelBackgroundColor=none;strokeColor=#A8201A;fontColor=default;" parent="1" edge="1">
          <mxGeometry width="50" height="50" relative="1" as="geometry">
            <mxPoint x="25" y="308" as="sourcePoint" />
            <mxPoint x="65" y="308" as="targetPoint" />
          </mxGeometry>
        </mxCell>
        <mxCell id="0BEgyjrSs3sw41b4Ue6r-2" value="" style="endArrow=none;html=1;rounded=0;labelBackgroundColor=none;strokeColor=#A8201A;fontColor=default;" parent="1" edge="1">
          <mxGeometry width="50" height="50" relative="1" as="geometry">
            <mxPoint x="475" y="282" as="sourcePoint" />
            <mxPoint x="515" y="282" as="targetPoint" />
          </mxGeometry>
        </mxCell>
        <mxCell id="0BEgyjrSs3sw41b4Ue6r-3" value="" style="endArrow=none;html=1;rounded=0;labelBackgroundColor=none;strokeColor=#A8201A;fontColor=default;" parent="1" edge="1">
          <mxGeometry width="50" height="50" relative="1" as="geometry">
            <mxPoint x="15" y="562" as="sourcePoint" />
            <mxPoint x="50" y="562.5" as="targetPoint" />
          </mxGeometry>
        </mxCell>
        <mxCell id="0BEgyjrSs3sw41b4Ue6r-6" value="" style="endArrow=none;html=1;rounded=0;labelBackgroundColor=none;strokeColor=#A8201A;fontColor=default;" parent="1" edge="1">
          <mxGeometry width="50" height="50" relative="1" as="geometry">
            <mxPoint x="582.5" y="897" as="sourcePoint" />
            <mxPoint x="617.5" y="897.5" as="targetPoint" />
          </mxGeometry>
        </mxCell>
        <mxCell id="0BEgyjrSs3sw41b4Ue6r-7" value="" style="endArrow=none;html=1;rounded=0;labelBackgroundColor=none;strokeColor=#A8201A;fontColor=default;" parent="1" edge="1">
          <mxGeometry width="50" height="50" relative="1" as="geometry">
            <mxPoint x="490.5" y="559.5" as="sourcePoint" />
            <mxPoint x="525" y="559" as="targetPoint" />
          </mxGeometry>
        </mxCell>
        <mxCell id="0BEgyjrSs3sw41b4Ue6r-11" value="Host 2" style="ellipse;whiteSpace=wrap;html=1;labelBackgroundColor=none;fillColor=#FAE5C7;strokeColor=#0F8B8D;fontColor=#143642;" parent="1" vertex="1">
          <mxGeometry x="277.19" y="948.08" width="73.75" height="30" as="geometry" />
        </mxCell>
        <mxCell id="0BEgyjrSs3sw41b4Ue6r-12" value="" style="endArrow=none;html=1;rounded=0;exitX=0;exitY=0;exitDx=0;exitDy=0;labelBackgroundColor=none;strokeColor=#A8201A;fontColor=default;" parent="1" source="0BEgyjrSs3sw41b4Ue6r-11" target="0BEgyjrSs3sw41b4Ue6r-28" edge="1">
          <mxGeometry width="50" height="50" relative="1" as="geometry">
            <mxPoint x="291.44" y="958.19" as="sourcePoint" />
            <mxPoint x="257.19000000000005" y="902.19" as="targetPoint" />
          </mxGeometry>
        </mxCell>
        <mxCell id="0BEgyjrSs3sw41b4Ue6r-15" value="" style="endArrow=none;dashed=1;html=1;rounded=0;labelBackgroundColor=none;strokeColor=#A8201A;fontColor=default;" parent="1" edge="1">
          <mxGeometry width="50" height="50" relative="1" as="geometry">
            <mxPoint x="674.28" y="871.11" as="sourcePoint" />
            <mxPoint x="674.28" y="871.11" as="targetPoint" />
          </mxGeometry>
        </mxCell>
        <mxCell id="0BEgyjrSs3sw41b4Ue6r-17" value="" style="endArrow=none;html=1;rounded=0;exitX=1;exitY=0.75;exitDx=0;exitDy=0;labelBackgroundColor=none;strokeColor=#A8201A;fontColor=default;entryX=0;entryY=1;entryDx=0;entryDy=0;" parent="1" source="7xZTiTQt4ohjxS7sE8qV-1" target="7xZTiTQt4ohjxS7sE8qV-88" edge="1">
          <mxGeometry width="50" height="50" relative="1" as="geometry">
            <mxPoint x="225" y="328" as="sourcePoint" />
            <mxPoint x="385" y="332" as="targetPoint" />
          </mxGeometry>
        </mxCell>
        <mxCell id="0BEgyjrSs3sw41b4Ue6r-18" value="" style="endArrow=none;html=1;rounded=0;exitX=0.877;exitY=0.628;exitDx=0;exitDy=0;labelBackgroundColor=none;strokeColor=#A8201A;fontColor=default;exitPerimeter=0;" parent="1" source="7xZTiTQt4ohjxS7sE8qV-88" edge="1">
          <mxGeometry width="50" height="50" relative="1" as="geometry">
            <mxPoint x="445" y="332" as="sourcePoint" />
            <mxPoint x="575" y="332" as="targetPoint" />
          </mxGeometry>
        </mxCell>
        <mxCell id="0BEgyjrSs3sw41b4Ue6r-19" value="" style="endArrow=none;html=1;rounded=0;labelBackgroundColor=none;strokeColor=#A8201A;fontColor=default;entryX=0.685;entryY=0.05;entryDx=0;entryDy=0;entryPerimeter=0;exitX=0.606;exitY=0.936;exitDx=0;exitDy=0;exitPerimeter=0;" parent="1" source="7xZTiTQt4ohjxS7sE8qV-79" target="7xZTiTQt4ohjxS7sE8qV-3" edge="1">
          <mxGeometry width="50" height="50" relative="1" as="geometry">
            <mxPoint x="125" y="502" as="sourcePoint" />
            <mxPoint x="135" y="552" as="targetPoint" />
          </mxGeometry>
        </mxCell>
        <mxCell id="0BEgyjrSs3sw41b4Ue6r-21" value="" style="endArrow=none;html=1;rounded=0;entryX=0.432;entryY=0.96;entryDx=0;entryDy=0;entryPerimeter=0;labelBackgroundColor=none;strokeColor=#A8201A;fontColor=default;exitX=0.594;exitY=0.168;exitDx=0;exitDy=0;exitPerimeter=0;" parent="1" source="7xZTiTQt4ohjxS7sE8qV-79" target="7xZTiTQt4ohjxS7sE8qV-1" edge="1">
          <mxGeometry width="50" height="50" relative="1" as="geometry">
            <mxPoint x="115" y="432" as="sourcePoint" />
            <mxPoint x="150" y="348" as="targetPoint" />
          </mxGeometry>
        </mxCell>
        <mxCell id="0BEgyjrSs3sw41b4Ue6r-22" value="Duration" style="ellipse;whiteSpace=wrap;html=1;align=center;dashed=1;labelBackgroundColor=none;fillColor=#FAE5C7;strokeColor=#0F8B8D;fontColor=#143642;" parent="1" vertex="1">
          <mxGeometry x="459.28" y="672" width="75" height="35" as="geometry" />
        </mxCell>
        <mxCell id="0BEgyjrSs3sw41b4Ue6r-27" value="Has" style="shape=rhombus;double=1;perimeter=rhombusPerimeter;whiteSpace=wrap;html=1;align=center;rotation=-15;labelBackgroundColor=none;fillColor=#FAE5C7;strokeColor=#0F8B8D;fontColor=#143642;" parent="1" vertex="1">
          <mxGeometry x="157.19" y="726.11" width="77.19" height="55.89" as="geometry" />
        </mxCell>
        <mxCell id="0BEgyjrSs3sw41b4Ue6r-28" value="Crew" style="shape=ext;margin=3;double=1;whiteSpace=wrap;html=1;align=center;labelBackgroundColor=none;fillColor=#FAE5C7;strokeColor=#0F8B8D;fontColor=#143642;" parent="1" vertex="1">
          <mxGeometry x="177.19" y="861.3000000000001" width="100" height="40" as="geometry" />
        </mxCell>
        <mxCell id="0BEgyjrSs3sw41b4Ue6r-29" value="" style="shape=link;html=1;rounded=0;exitX=0.588;exitY=0.98;exitDx=0;exitDy=0;exitPerimeter=0;labelBackgroundColor=none;strokeColor=#A8201A;fontColor=default;" parent="1" source="7xZTiTQt4ohjxS7sE8qV-3" edge="1">
          <mxGeometry relative="1" as="geometry">
            <mxPoint x="235" y="812" as="sourcePoint" />
            <mxPoint x="189" y="727" as="targetPoint" />
          </mxGeometry>
        </mxCell>
        <mxCell id="0BEgyjrSs3sw41b4Ue6r-30" value="1" style="resizable=0;html=1;whiteSpace=wrap;align=right;verticalAlign=bottom;labelBackgroundColor=none;fillColor=#FAE5C7;strokeColor=#0F8B8D;fontColor=#143642;" parent="0BEgyjrSs3sw41b4Ue6r-29" connectable="0" vertex="1">
          <mxGeometry x="1" relative="1" as="geometry" />
        </mxCell>
        <mxCell id="0BEgyjrSs3sw41b4Ue6r-31" value="1" style="text;html=1;align=center;verticalAlign=middle;resizable=0;points=[];autosize=1;strokeColor=none;fillColor=none;labelBackgroundColor=none;fontColor=#143642;" parent="1" vertex="1">
          <mxGeometry x="140" y="680" width="30" height="30" as="geometry" />
        </mxCell>
        <mxCell id="0BEgyjrSs3sw41b4Ue6r-33" value="" style="shape=link;html=1;rounded=0;entryX=0.5;entryY=0;entryDx=0;entryDy=0;exitX=0.5;exitY=1;exitDx=0;exitDy=0;labelBackgroundColor=none;strokeColor=#A8201A;fontColor=default;" parent="1" source="0BEgyjrSs3sw41b4Ue6r-27" target="0BEgyjrSs3sw41b4Ue6r-28" edge="1">
          <mxGeometry relative="1" as="geometry">
            <mxPoint x="204" y="776" as="sourcePoint" />
            <mxPoint x="186" y="750" as="targetPoint" />
          </mxGeometry>
        </mxCell>
        <mxCell id="0BEgyjrSs3sw41b4Ue6r-34" value="1" style="resizable=0;html=1;whiteSpace=wrap;align=right;verticalAlign=bottom;labelBackgroundColor=none;fillColor=#FAE5C7;strokeColor=#0F8B8D;fontColor=#143642;" parent="0BEgyjrSs3sw41b4Ue6r-33" connectable="0" vertex="1">
          <mxGeometry x="1" relative="1" as="geometry" />
        </mxCell>
        <mxCell id="0BEgyjrSs3sw41b4Ue6r-35" value="1" style="text;html=1;align=center;verticalAlign=middle;resizable=0;points=[];autosize=1;strokeColor=none;fillColor=none;labelBackgroundColor=none;fontColor=#143642;" parent="1" vertex="1">
          <mxGeometry x="190" y="820" width="30" height="30" as="geometry" />
        </mxCell>
        <mxCell id="0BEgyjrSs3sw41b4Ue6r-36" value="Record" style="shape=rhombus;perimeter=rhombusPerimeter;whiteSpace=wrap;html=1;align=center;labelBackgroundColor=none;fillColor=#FAE5C7;strokeColor=#0F8B8D;fontColor=#143642;" parent="1" vertex="1">
          <mxGeometry x="300" y="382" width="80" height="50" as="geometry" />
        </mxCell>
        <mxCell id="0BEgyjrSs3sw41b4Ue6r-42" value="" style="shape=link;html=1;rounded=0;entryX=0;entryY=0;entryDx=0;entryDy=0;labelBackgroundColor=none;strokeColor=#A8201A;fontColor=default;" parent="1" source="0BEgyjrSs3sw41b4Ue6r-36" target="7xZTiTQt4ohjxS7sE8qV-5" edge="1">
          <mxGeometry relative="1" as="geometry">
            <mxPoint x="415" y="512" as="sourcePoint" />
            <mxPoint x="575" y="512" as="targetPoint" />
          </mxGeometry>
        </mxCell>
        <mxCell id="0BEgyjrSs3sw41b4Ue6r-43" value="M" style="resizable=0;html=1;whiteSpace=wrap;align=right;verticalAlign=bottom;labelBackgroundColor=none;fillColor=#FAE5C7;strokeColor=#0F8B8D;fontColor=#143642;" parent="0BEgyjrSs3sw41b4Ue6r-42" connectable="0" vertex="1">
          <mxGeometry x="1" relative="1" as="geometry">
            <mxPoint x="-45" y="10" as="offset" />
          </mxGeometry>
        </mxCell>
        <mxCell id="0BEgyjrSs3sw41b4Ue6r-44" value="" style="shape=link;html=1;rounded=0;entryX=0;entryY=0;entryDx=0;entryDy=0;exitX=1;exitY=1;exitDx=0;exitDy=0;labelBackgroundColor=none;strokeColor=#A8201A;fontColor=default;" parent="1" source="7xZTiTQt4ohjxS7sE8qV-1" target="0BEgyjrSs3sw41b4Ue6r-36" edge="1">
          <mxGeometry relative="1" as="geometry">
            <mxPoint x="205" y="322" as="sourcePoint" />
            <mxPoint x="575" y="512" as="targetPoint" />
          </mxGeometry>
        </mxCell>
        <mxCell id="0BEgyjrSs3sw41b4Ue6r-45" value="1" style="resizable=0;html=1;whiteSpace=wrap;align=right;verticalAlign=bottom;labelBackgroundColor=none;fillColor=#FAE5C7;strokeColor=#0F8B8D;fontColor=#143642;" parent="0BEgyjrSs3sw41b4Ue6r-44" connectable="0" vertex="1">
          <mxGeometry x="1" relative="1" as="geometry">
            <mxPoint x="-40" y="-13" as="offset" />
          </mxGeometry>
        </mxCell>
        <mxCell id="Tq0bz1DAcGt3V1Z8LYp6-1" value="&lt;font style=&quot;font-size: 24px;&quot;&gt;5- AirLine&lt;/font&gt;" style="text;html=1;align=center;verticalAlign=middle;resizable=0;points=[];autosize=1;strokeColor=none;fillColor=none;fontColor=#143642;" parent="1" vertex="1">
          <mxGeometry x="40" y="53" width="120" height="40" as="geometry" />
        </mxCell>
      </root>
    </mxGraphModel>
  </diagram>
</mxfile>
